<svg width="250" height="169" viewBox="0 0 250 169" fill="none" xmlns="http://www.w3.org/2000/svg">
<g opacity="0.2">
<path d="M307.047 -27.8096C292.306 52.5738 215.193 105.788 134.81 91.0471C54.4263 76.3064 1.21232 -0.806915 15.953 -81.1903C30.6937 -161.574 107.807 -214.788 188.19 -200.047C268.574 -185.306 321.788 -108.193 307.047 -27.8096Z" stroke="white"/>
<path d="M330.888 -8.76749C314.7 79.5082 230.236 137.985 142.234 121.847C54.2332 105.709 -3.98607 21.0677 12.2019 -67.208C28.3899 -155.484 112.854 -213.96 200.855 -197.822C288.857 -181.685 347.076 -97.0432 330.888 -8.76749Z" stroke="white"/>
<path d="M387.385 7.1581C367.81 113.906 266.066 184.687 160.14 165.263C54.2148 145.838 -15.7935 43.5606 3.78183 -63.187C23.3572 -169.935 125.101 -240.716 231.027 -221.292C336.952 -201.867 406.961 -99.5895 387.385 7.1581Z" stroke="white"/>
</g>
</svg>
