<svg width="28" height="29" viewBox="0 0 28 29" fill="none" xmlns="http://www.w3.org/2000/svg">
<path d="M26.2281 22.3595L21.7938 17.9252L18.3831 16.5161C19.5188 14.9011 20.1272 12.9743 20.125 11C20.125 5.69274 15.8073 1.375 10.5 1.375C5.19274 1.375 0.875 5.69274 0.875 11C0.875 16.3073 5.19274 20.625 10.5 20.625C12.4915 20.6273 14.4342 20.0083 16.0573 18.8544L17.4628 22.2559L21.8969 26.6904C22.1813 26.9748 22.5189 27.2004 22.8904 27.3544C23.262 27.5083 23.6602 27.5875 24.0624 27.5875C24.4646 27.5875 24.8628 27.5083 25.2344 27.3544C25.606 27.2005 25.9436 26.975 26.228 26.6906C26.5124 26.4062 26.738 26.0686 26.8919 25.697C27.0458 25.3255 27.125 24.9272 27.1251 24.5251C27.1251 24.1229 27.0459 23.7246 26.892 23.3531C26.7381 22.9815 26.5125 22.6439 26.2281 22.3595ZM2.625 11C2.625 6.65781 6.15781 3.125 10.5 3.125C14.8422 3.125 18.375 6.65781 18.375 11C18.375 15.3422 14.8422 18.875 10.5 18.875C6.15781 18.875 2.625 15.3422 2.625 11ZM24.9906 25.453C24.7442 25.6988 24.4105 25.8368 24.0625 25.8368C23.7145 25.8368 23.3808 25.6988 23.1344 25.453L18.9469 21.2655L17.6402 18.1026L20.8031 19.4094L24.9907 23.5969C25.2364 23.8433 25.3744 24.177 25.3744 24.525C25.3744 24.8729 25.2364 25.2067 24.9906 25.453Z" fill="#B8B8B8"/>
</svg>
