<svg width="40" height="40" viewBox="0 0 40 40" fill="none" xmlns="http://www.w3.org/2000/svg">
<path fill-rule="evenodd" clip-rule="evenodd" d="M20 39.2C25.0922 39.2 29.9758 37.1772 33.5765 33.5765C37.1772 29.9758 39.2001 25.0922 39.2001 20C39.2001 14.9078 37.1772 10.0242 33.5765 6.42355C29.9758 2.82285 25.0922 0.799999 20 0.799999C14.9079 0.799999 10.0243 2.82285 6.4236 6.42355C2.8229 10.0242 0.800049 14.9078 0.800049 20C0.800049 25.0922 2.8229 29.9758 6.4236 33.5765C10.0243 37.1772 14.9079 39.2 20 39.2ZM18.9321 13.2032C18.5706 12.9621 18.1505 12.8235 17.7165 12.8025C17.2825 12.7814 16.8509 12.8785 16.4678 13.0835C16.0847 13.2885 15.7644 13.5936 15.5412 13.9664C15.3179 14.3391 15.2 14.7655 15.2 15.2V24.8C15.2 25.2345 15.3179 25.6609 15.5412 26.0336C15.7644 26.4064 16.0847 26.7115 16.4678 26.9165C16.8509 27.1215 17.2825 27.2186 17.7165 27.1975C18.1505 27.1765 18.5706 27.0379 18.9321 26.7968L26.1321 21.9968C26.4607 21.7776 26.7303 21.4807 26.9167 21.1324C27.1031 20.784 27.2006 20.3951 27.2006 20C27.2006 19.6049 27.1031 19.216 26.9167 18.8676C26.7303 18.5193 26.4607 18.2224 26.1321 18.0032L18.9321 13.2032Z" fill="#4FC3F7"/>
</svg>
