<svg width="26" height="23" viewBox="0 0 26 23" fill="none" xmlns="http://www.w3.org/2000/svg">
<path d="M21.1667 1H4.83337C3.18371 1 2.35887 1 1.84671 1.48067C1.33454 1.96133 1.33337 2.736 1.33337 4.28417V5.08917C1.33337 6.299 1.33337 6.9045 1.63671 7.40617C1.94004 7.90783 2.49187 8.2205 3.59904 8.8435L6.99754 10.7568C7.73954 11.1745 8.11171 11.3833 8.37771 11.6143C8.93071 12.0938 9.27137 12.6585 9.42537 13.3527C9.50004 13.684 9.50004 14.0737 9.50004 14.8518V17.9668C9.50004 19.0273 9.50004 19.5582 9.79404 19.9712C10.088 20.3853 10.6107 20.5895 11.6537 20.9978C13.8459 21.8542 14.9414 22.2823 15.7207 21.7947C16.5 21.307 16.5 20.194 16.5 17.9657V14.8507C16.5 14.0737 16.5 13.684 16.5747 13.3515C16.7212 12.6715 17.0903 12.0598 17.6235 11.6132C17.8884 11.3833 18.2605 11.1745 19.0025 10.7557L22.401 8.84233C23.507 8.2205 24.0612 7.909 24.3634 7.40733C24.6667 6.90567 24.6667 6.299 24.6667 5.088V4.283C24.6667 2.736 24.6667 1.96133 24.1534 1.48067C23.6424 1 22.8175 1 21.1667 1Z" stroke="#2ECC71" stroke-width="1.75"/>
</svg>
