<svg width="28" height="28" viewBox="0 0 28 28" fill="none" xmlns="http://www.w3.org/2000/svg">
<path d="M7.87146 4.66666H11.9128C12.1345 4.66673 12.3479 4.75095 12.5099 4.9023C12.6719 5.05365 12.7704 5.26084 12.7855 5.48202C12.8006 5.7032 12.7312 5.92187 12.5913 6.09384C12.4514 6.26582 12.2514 6.37828 12.0318 6.4085L11.9128 6.41666H7.87146C7.2065 6.41656 6.56628 6.66882 6.08012 7.1225C5.59397 7.57618 5.2981 8.19745 5.25229 8.86083L5.24646 9.04166V20.125C5.24667 20.7899 5.49923 21.43 5.95312 21.916C6.40701 22.4019 7.02841 22.6975 7.69179 22.743L7.87146 22.75H18.9548C19.6201 22.7504 20.2608 22.4981 20.7472 22.0441C21.2337 21.5902 21.5296 20.9685 21.5751 20.3047L21.581 20.125V19.544C21.581 19.3223 21.6652 19.1089 21.8166 18.9469C21.9679 18.7849 22.1751 18.6864 22.3963 18.6713C22.6175 18.6562 22.8362 18.7256 23.0081 18.8655C23.1801 19.0054 23.2926 19.2054 23.3228 19.425L23.331 19.544V20.125C23.3307 21.245 22.901 22.3222 22.1303 23.1349C21.3596 23.9475 20.3065 24.4336 19.1881 24.493L18.9548 24.5H7.87146C6.75127 24.5001 5.67373 24.0705 4.86086 23.2997C4.04799 22.529 3.56174 21.4758 3.50229 20.3572L3.49646 20.1238V9.0405C3.49666 7.9207 3.92623 6.84361 4.69671 6.03102C5.46719 5.21843 6.51993 4.73222 7.63813 4.6725L7.87146 4.66666ZM16.9178 7.63466V4.375C16.9177 4.21405 16.962 4.05619 17.0458 3.91879C17.1296 3.78139 17.2497 3.66977 17.3928 3.5962C17.536 3.52264 17.6967 3.48998 17.8572 3.50182C18.0177 3.51367 18.1718 3.56955 18.3026 3.66333L18.3983 3.74266L25.3925 10.451C25.7191 10.7648 25.7483 11.2677 25.4811 11.6153L25.3925 11.7145L18.3983 18.4252C18.2822 18.5367 18.1375 18.614 17.9803 18.6486C17.823 18.6832 17.6593 18.6738 17.507 18.6213C17.3548 18.5688 17.22 18.4754 17.1175 18.3512C17.015 18.2271 16.9487 18.0771 16.926 17.9177L16.9178 17.7928V14.525L16.5445 14.5168C13.4435 14.5075 10.7928 15.7815 8.53413 18.3692C7.95663 19.0307 6.87163 18.522 7.01163 17.654C7.97646 11.6573 11.2105 8.26933 16.5666 7.66966L16.9178 7.63466Z" fill="white"/>
</svg>
