<svg width="28" height="28" viewBox="0 0 28 28" fill="none" xmlns="http://www.w3.org/2000/svg">
<path d="M14.0048 25.3805C20.2168 25.3805 25.38 20.2172 25.38 14.0052C25.38 7.78231 20.2053 2.63 13.9933 2.63C7.77089 2.63 2.63 7.78231 2.63 14.0052C2.63 20.2172 7.78184 25.3805 14.0048 25.3805Z" fill="#F7B32B"/>
<path opacity="0.8" d="M14.0048 25.3805C20.2168 25.3805 25.38 20.2172 25.38 14.0052C25.38 7.78231 20.2053 2.63 13.9933 2.63C7.77089 2.63 2.63 7.78231 2.63 14.0052C2.63 20.2172 7.78184 25.3805 14.0048 25.3805ZM9.95639 18.1545V13.6936C9.95639 12.9684 10.2352 12.6006 10.8376 12.5111V11.1617C10.8376 8.98712 12.1533 7.58199 14.0048 7.58199C15.8562 7.58199 17.1719 8.98712 17.1719 11.1617V12.5002C17.7629 12.5892 18.0417 12.957 18.0417 13.6936V18.1545C18.0417 18.991 17.6739 19.3698 16.9045 19.3698H11.105C10.3247 19.3698 9.95639 18.991 9.95639 18.1545ZM11.9977 12.4888L16.0123 12.4778V11.0394C16.0123 9.63425 15.2091 8.70828 14.0043 8.70828C12.8004 8.70828 11.9972 9.63378 11.9972 11.0394L11.9977 12.4888Z" fill="white"/>
</svg>
