<svg width="48" height="48" viewBox="0 0 48 48" fill="none" xmlns="http://www.w3.org/2000/svg">
<path fill-rule="evenodd" clip-rule="evenodd" d="M24 43.2C29.0922 43.2 33.9758 41.1772 37.5765 37.5765C41.1772 33.9758 43.2001 29.0922 43.2001 24C43.2001 18.9078 41.1772 14.0243 37.5765 10.4236C33.9758 6.82285 29.0922 4.8 24 4.8C18.9079 4.8 14.0243 6.82285 10.4236 10.4236C6.8229 14.0243 4.80005 18.9078 4.80005 24C4.80005 29.0922 6.8229 33.9758 10.4236 37.5765C14.0243 41.1772 18.9079 43.2 24 43.2Z" fill="#4FC3F7"/>
<path opacity="0.8" fill-rule="evenodd" clip-rule="evenodd" d="M24 43.2C29.0922 43.2 33.9758 41.1772 37.5765 37.5765C41.1772 33.9758 43.2001 29.0922 43.2001 24C43.2001 18.9078 41.1772 14.0243 37.5765 10.4236C33.9758 6.82285 29.0922 4.8 24 4.8C18.9079 4.8 14.0243 6.82285 10.4236 10.4236C6.8229 14.0243 4.80005 18.9078 4.80005 24C4.80005 29.0922 6.8229 33.9758 10.4236 37.5765C14.0243 41.1772 18.9079 43.2 24 43.2ZM22.9321 17.2032C22.5706 16.9621 22.1505 16.8236 21.7165 16.8025C21.2825 16.7814 20.8509 16.8785 20.4678 17.0835C20.0847 17.2885 19.7644 17.5936 19.5412 17.9664C19.3179 18.3391 19.2 18.7655 19.2 19.2V28.8C19.2 29.2345 19.3179 29.6609 19.5412 30.0336C19.7644 30.4064 20.0847 30.7115 20.4678 30.9165C20.8509 31.1215 21.2825 31.2186 21.7165 31.1975C22.1505 31.1765 22.5706 31.038 22.9321 30.7968L30.1321 25.9968C30.4607 25.7776 30.7303 25.4807 30.9167 25.1324C31.1031 24.784 31.2006 24.3951 31.2006 24C31.2006 23.6049 31.1031 23.216 30.9167 22.8676C30.7303 22.5193 30.4607 22.2224 30.1321 22.0032L22.9321 17.2032Z" fill="white"/>
</svg>
