<svg width="241" height="102" viewBox="0 0 241 102" fill="none" xmlns="http://www.w3.org/2000/svg">
<path d="M3.04407 78.5369C3.04407 78.5369 23.622 82.068 39.2076 65.8736C30.6842 78.4151 17.6556 92.9049 0 101.063C0 101.063 47.1221 86.3297 51.8709 43.104C51.8709 43.104 40.547 69.0394 3.04407 78.5369Z" fill="white"/>
<path d="M54.6714 40.0599C57.1596 40.0599 59.1766 38.0429 59.1766 35.5547C59.1766 33.0665 57.1596 31.0495 54.6714 31.0495C52.1832 31.0495 50.1662 33.0665 50.1662 35.5547C50.1662 38.0429 52.1832 40.0599 54.6714 40.0599Z" fill="white"/>
<path d="M47.0004 47.6092C47.0004 47.6092 52.9667 37.0158 43.8345 0C43.8345 0 47.1221 27.6401 42.7387 41.2775C42.7387 41.2775 31.78 46.2698 19.2385 31.1712C19.2385 31.1712 31.7801 51.0185 47.0004 47.6092Z" fill="white"/>
<path d="M72.7873 30.7719H71.012V71.012H72.7873V30.7719Z" fill="white"/>
<path d="M100.016 62.384C98.6293 62.384 97.4027 62.2347 96.336 61.936C95.2907 61.6373 94.416 61.1893 93.712 60.592C93.0293 59.9947 92.528 59.2587 92.208 58.384C91.9093 57.5093 91.8027 56.5067 91.888 55.376L94.064 54.992C93.9573 56.1867 94.128 57.1787 94.576 57.968C95.024 58.736 95.7173 59.312 96.656 59.696C97.616 60.08 98.7573 60.272 100.08 60.272C101.36 60.272 102.437 60.1227 103.312 59.824C104.187 59.504 104.848 59.056 105.296 58.48C105.765 57.904 106 57.2427 106 56.496C106 55.6427 105.733 54.9813 105.2 54.512C104.688 54.0213 104.005 53.648 103.152 53.392C102.299 53.136 101.371 52.9013 100.368 52.688C99.3867 52.4747 98.416 52.24 97.456 51.984C96.496 51.728 95.6213 51.3867 94.832 50.96C94.064 50.512 93.4453 49.936 92.976 49.232C92.5067 48.528 92.272 47.6213 92.272 46.512C92.272 45.2747 92.5813 44.208 93.2 43.312C93.84 42.416 94.7147 41.7227 95.824 41.232C96.9333 40.7413 98.224 40.496 99.696 40.496C101.168 40.496 102.491 40.7307 103.664 41.2C104.837 41.6693 105.776 42.384 106.48 43.344C107.205 44.2827 107.579 45.4667 107.6 46.896L105.296 47.376C105.296 46.5867 105.157 45.8933 104.88 45.296C104.624 44.6773 104.24 44.1653 103.728 43.76C103.237 43.3547 102.64 43.056 101.936 42.864C101.253 42.6507 100.496 42.544 99.664 42.544C98.6827 42.544 97.808 42.704 97.04 43.024C96.272 43.344 95.664 43.792 95.216 44.368C94.7893 44.9227 94.576 45.584 94.576 46.352C94.576 47.2907 94.8853 48.016 95.504 48.528C96.1227 49.04 96.9227 49.4453 97.904 49.744C98.8853 50.0213 99.9307 50.2773 101.04 50.512C101.957 50.7253 102.843 50.96 103.696 51.216C104.571 51.472 105.349 51.8133 106.032 52.24C106.736 52.6667 107.291 53.2213 107.696 53.904C108.101 54.5867 108.304 55.4613 108.304 56.528C108.304 57.7013 107.995 58.736 107.376 59.632C106.779 60.5067 105.861 61.1893 104.624 61.68C103.408 62.1493 101.872 62.384 100.016 62.384ZM121.36 62.384C119.824 62.384 118.48 62.128 117.328 61.616C116.197 61.0827 115.237 60.336 114.448 59.376C113.68 58.416 113.104 57.2747 112.72 55.952C112.336 54.6293 112.144 53.1467 112.144 51.504C112.144 49.072 112.539 47.0453 113.328 45.424C114.117 43.7813 115.205 42.5547 116.592 41.744C117.979 40.912 119.568 40.496 121.36 40.496C122.768 40.496 124.037 40.7413 125.168 41.232C126.299 41.7227 127.259 42.448 128.048 43.408C128.859 44.368 129.477 45.5413 129.904 46.928C130.352 48.2933 130.576 49.8507 130.576 51.6C130.576 53.2 130.384 54.6613 130 55.984C129.616 57.3067 129.029 58.448 128.24 59.408C127.472 60.368 126.512 61.104 125.36 61.616C124.229 62.128 122.896 62.384 121.36 62.384ZM121.328 60.272C122.8 60.272 124.037 59.9307 125.04 59.248C126.043 58.544 126.811 57.552 127.344 56.272C127.877 54.992 128.144 53.4347 128.144 51.6C128.144 49.7227 127.867 48.1227 127.312 46.8C126.779 45.456 126 44.432 124.976 43.728C123.973 43.0027 122.757 42.64 121.328 42.64C119.941 42.64 118.736 42.992 117.712 43.696C116.709 44.3787 115.931 45.3813 115.376 46.704C114.843 48.0267 114.576 49.648 114.576 51.568C114.576 52.976 114.725 54.224 115.024 55.312C115.323 56.3787 115.76 57.2853 116.336 58.032C116.912 58.7573 117.616 59.312 118.448 59.696C119.301 60.08 120.261 60.272 121.328 60.272ZM135.599 62V40.88H139.375L146.735 59.632H146.895L154.287 40.88H157.935V62H155.631L155.823 43.28H155.599L148.047 62H145.487L137.967 43.248H137.775L137.903 62H135.599ZM163.693 62V40.88H166.061V62H163.693ZM164.653 62V59.888H178.029V62H164.653ZM164.653 52.208V50.16H176.525V52.208H164.653ZM164.653 42.992V40.88H178.029V42.992H164.653ZM189.172 62.384C187.786 62.384 186.559 62.2347 185.492 61.936C184.447 61.6373 183.572 61.1893 182.868 60.592C182.186 59.9947 181.684 59.2587 181.364 58.384C181.066 57.5093 180.959 56.5067 181.044 55.376L183.22 54.992C183.114 56.1867 183.284 57.1787 183.732 57.968C184.18 58.736 184.874 59.312 185.812 59.696C186.772 60.08 187.914 60.272 189.236 60.272C190.516 60.272 191.594 60.1227 192.468 59.824C193.343 59.504 194.004 59.056 194.452 58.48C194.922 57.904 195.156 57.2427 195.156 56.496C195.156 55.6427 194.89 54.9813 194.356 54.512C193.844 54.0213 193.162 53.648 192.308 53.392C191.455 53.136 190.527 52.9013 189.524 52.688C188.543 52.4747 187.572 52.24 186.612 51.984C185.652 51.728 184.778 51.3867 183.988 50.96C183.22 50.512 182.602 49.936 182.132 49.232C181.663 48.528 181.428 47.6213 181.428 46.512C181.428 45.2747 181.738 44.208 182.356 43.312C182.996 42.416 183.871 41.7227 184.98 41.232C186.09 40.7413 187.38 40.496 188.852 40.496C190.324 40.496 191.647 40.7307 192.82 41.2C193.994 41.6693 194.932 42.384 195.636 43.344C196.362 44.2827 196.735 45.4667 196.756 46.896L194.452 47.376C194.452 46.5867 194.314 45.8933 194.036 45.296C193.78 44.6773 193.396 44.1653 192.884 43.76C192.394 43.3547 191.796 43.056 191.092 42.864C190.41 42.6507 189.652 42.544 188.82 42.544C187.839 42.544 186.964 42.704 186.196 43.024C185.428 43.344 184.82 43.792 184.372 44.368C183.946 44.9227 183.732 45.584 183.732 46.352C183.732 47.2907 184.042 48.016 184.66 48.528C185.279 49.04 186.079 49.4453 187.06 49.744C188.042 50.0213 189.087 50.2773 190.196 50.512C191.114 50.7253 191.999 50.96 192.852 51.216C193.727 51.472 194.506 51.8133 195.188 52.24C195.892 52.6667 196.447 53.2213 196.852 53.904C197.258 54.5867 197.46 55.4613 197.46 56.528C197.46 57.7013 197.151 58.736 196.532 59.632C195.935 60.5067 195.018 61.1893 193.78 61.68C192.564 62.1493 191.028 62.384 189.172 62.384ZM210.516 62.384C208.98 62.384 207.636 62.128 206.484 61.616C205.354 61.0827 204.394 60.336 203.604 59.376C202.836 58.416 202.26 57.2747 201.876 55.952C201.492 54.6293 201.3 53.1467 201.3 51.504C201.3 49.072 201.695 47.0453 202.484 45.424C203.274 43.7813 204.362 42.5547 205.748 41.744C207.135 40.912 208.724 40.496 210.516 40.496C211.924 40.496 213.194 40.7413 214.324 41.232C215.455 41.7227 216.415 42.448 217.204 43.408C218.015 44.368 218.634 45.5413 219.06 46.928C219.508 48.2933 219.732 49.8507 219.732 51.6C219.732 53.2 219.54 54.6613 219.156 55.984C218.772 57.3067 218.186 58.448 217.396 59.408C216.628 60.368 215.668 61.104 214.516 61.616C213.386 62.128 212.052 62.384 210.516 62.384ZM210.484 60.272C211.956 60.272 213.194 59.9307 214.196 59.248C215.199 58.544 215.967 57.552 216.5 56.272C217.034 54.992 217.3 53.4347 217.3 51.6C217.3 49.7227 217.023 48.1227 216.468 46.8C215.935 45.456 215.156 44.432 214.132 43.728C213.13 43.0027 211.914 42.64 210.484 42.64C209.098 42.64 207.892 42.992 206.868 43.696C205.866 44.3787 205.087 45.3813 204.532 46.704C203.999 48.0267 203.732 49.648 203.732 51.568C203.732 52.976 203.882 54.224 204.18 55.312C204.479 56.3787 204.916 57.2853 205.492 58.032C206.068 58.7573 206.772 59.312 207.604 59.696C208.458 60.08 209.418 60.272 210.484 60.272Z" fill="white"/>
</svg>
