<?xml version="1.0" encoding="UTF-8"?>
<svg version="1.1" xmlns="http://www.w3.org/2000/svg" width="512" height="512">
<path d="M0 0 C1.10301453 -0.00807175 2.20602905 -0.01614349 3.34246826 -0.02445984 C5.67914272 -0.0382698 8.01583708 -0.04900571 10.35253906 -0.05688477 C12.71067335 -0.06833672 15.06878313 -0.08867893 17.42675781 -0.1184082 C41.53401463 -0.42186805 41.53401463 -0.42186805 53.10626221 3.09489441 C56.78540872 4.15699694 58.41160895 4.34259198 62.03076172 2.89208984 C62.9023291 2.34633301 63.77389648 1.80057617 64.671875 1.23828125 C72.99924313 -1.5983322 82.7084175 -0.43827576 90.5859375 3.0703125 C92.671875 4.23828125 92.671875 4.23828125 94.65625 5.8125 C97.50807906 7.82978219 100.25548889 8.07221303 103.6484375 8.61328125 C105.671875 9.23828125 105.671875 9.23828125 107.671875 12.23828125 C107.796875 14.92578125 107.796875 14.92578125 107.671875 17.23828125 C108.55875 17.34140625 109.445625 17.44453125 110.359375 17.55078125 C113.671875 18.23828125 113.671875 18.23828125 116.234375 19.92578125 C118.57797946 21.54794692 118.57797946 21.54794692 120.984375 20.61328125 C121.87125 20.15953125 122.758125 19.70578125 123.671875 19.23828125 C132.00249097 15.15156398 141.68111131 14.86296974 150.68359375 16.9296875 C160.48987183 20.51881531 166.12368261 26.98927256 170.671875 36.23828125 C173.1672527 43.24337768 172.78132023 54.39464189 170.171875 61.23828125 C169.429375 62.72328125 169.429375 62.72328125 168.671875 64.23828125 C169.97125 64.44453125 171.270625 64.65078125 172.609375 64.86328125 C180.73402358 66.70282432 186.82504965 71.33424031 191.453125 78.19921875 C196.6450601 86.88572555 197.23585565 97.66640296 194.8984375 107.48828125 C194.34273793 110.32602131 194.34273793 110.32602131 196.3671875 112.29296875 C197.16898437 112.89367187 197.97078125 113.494375 198.796875 114.11328125 C203.24382808 117.75232515 206.14186589 121.08896858 208.671875 126.23828125 C208.99027344 126.85574219 209.30867188 127.47320312 209.63671875 128.109375 C213.52250249 137.29558264 213.15763816 150.09948342 209.984375 159.42578125 C208.61022353 162.65355431 206.98389831 165.33003703 204.859375 168.11328125 C202.36014825 170.91607692 202.36014825 170.91607692 203.015625 173.453125 C203.2321875 174.37222656 203.44875 175.29132813 203.671875 176.23828125 C204.40525379 187.43132469 204.11557202 196.85228342 196.921875 206.05078125 C191.25220122 212.12134105 184.19930723 215.83480024 175.90234375 216.57421875 C168.11132666 216.74718258 161.42636898 216.52264004 154.671875 212.23828125 C154.02734375 211.85285156 153.3828125 211.46742188 152.71875 211.0703125 C149.39830324 208.9148124 147.86170225 207.61793576 146.046875 203.98828125 C143.96578653 200.98730017 143.96578653 200.98730017 140.92578125 200.77734375 C138.65963353 200.6652375 136.39255002 200.57099249 134.125 200.4921875 C123.3432044 199.69940841 115.12909104 194.10635258 107.921875 186.42578125 C102.75605204 180.28104664 99.2706531 172.79382048 99.85546875 164.68359375 C99.89478516 163.82121094 99.93410156 162.95882812 99.97460938 162.0703125 C100.06414335 160.2718475 100.18117349 158.47453238 100.32617188 156.6796875 C100.42034402 153.99077218 100.38786735 151.8361443 99.671875 149.23828125 C97.82248732 147.2572712 95.94565868 145.94104162 93.65600586 144.49951172 C88.84944398 141.44417781 86.120016 136.06285533 84.796875 130.67578125 C84.735 129.46921875 84.735 129.46921875 84.671875 128.23828125 C84.07761719 128.2846875 83.48335938 128.33109375 82.87109375 128.37890625 C72.73481991 128.8202992 64.48824267 125.74086921 56.73828125 119.2109375 C48.92718364 111.75421861 43.8464872 103.58490439 43.3984375 92.60546875 C43.19048733 80.20105659 43.19048733 80.20105659 44.671875 77.23828125 C43.764375 77.40328125 42.856875 77.56828125 41.921875 77.73828125 C32.18713765 79.03624623 23.78860936 79.37421368 15.671875 73.23828125 C12.26855357 70.08759623 9.01844589 66.79250448 5.84838867 63.40795898 C4.92956909 62.43451538 4.92956909 62.43451538 3.9921875 61.44140625 C3.44836426 60.85004883 2.90454102 60.25869141 2.34423828 59.64941406 C-1.30134317 56.5732884 -5.75648883 56.99766882 -10.328125 57.23828125 C-14.01787659 58.01055484 -15.09780556 58.94312106 -17.43457031 61.93774414 C-20.55277677 67.65157044 -19.93356001 74.15011032 -19.9375 80.484375 C-19.95249885 81.86444524 -19.96922957 83.24449763 -19.98760986 84.62452698 C-20.03110536 88.23628614 -20.05124239 91.84780325 -20.06634521 95.45977783 C-20.08598112 99.15366829 -20.12794352 102.84729978 -20.16796875 106.54101562 C-20.24307752 113.77336757 -20.29348527 121.00561016 -20.328125 128.23828125 C-19.50755615 128.20710205 -18.6869873 128.17592285 -17.84155273 128.14379883 C-16.76333252 128.11954834 -15.6851123 128.09529785 -14.57421875 128.0703125 C-13.5061499 128.0391333 -12.43808105 128.0079541 -11.33764648 127.97583008 C-6.13599787 128.42944996 -3.67421673 131.48083513 -0.328125 135.23828125 C0.92677734 136.76195312 0.92677734 136.76195312 2.20703125 138.31640625 C10.43691935 147.85476513 18.83608007 150.89428325 30.76953125 154.41015625 C38.61304442 156.734718 45.54651501 160.28064352 52.671875 164.23828125 C53.68765625 164.77839844 54.7034375 165.31851563 55.75 165.875 C76.75282709 177.47148073 95.05947128 194.32563958 108.921875 213.80078125 C109.4176001 214.4971167 109.9133252 215.19345215 110.42407227 215.91088867 C112.96316959 219.55312402 115.16659658 223.163114 117.16796875 227.12890625 C118.82245234 230.17175161 119.37671711 231.07747109 122.50390625 232.78125 C123.48746094 232.99394531 124.47101563 233.20664063 125.484375 233.42578125 C134.4593869 235.89253299 139.57038773 240.14500605 144.5078125 248 C145.671875 250.23828125 145.671875 250.23828125 146.671875 253.98828125 C148.02086786 258.37250803 150.07363573 259.5004905 153.671875 262.23828125 C153.671875 262.89828125 153.671875 263.55828125 153.671875 264.23828125 C156.74471882 263.48656045 156.74471882 263.48656045 158.484375 261.23828125 C161.26650668 258.694618 162.92516677 258.31474468 166.671875 258.23828125 C172.08805347 260.40475264 176.24721463 265.39378987 178.82421875 270.5390625 C180.85736616 277.01327846 180.95120425 285.40384357 178.171875 291.67578125 C173.7349118 298.90523877 168.08468199 302.49791077 159.99609375 304.4921875 C156.43351402 305.63580553 154.42568262 307.74064178 151.671875 310.23828125 C147.63534787 312.48079632 143.60428506 312.58049279 139.07421875 312.796875 C136.14033274 313.33594674 134.85056435 314.21396953 132.671875 316.23828125 C131.99163341 318.40536004 131.99163341 318.40536004 131.94921875 320.8515625 C131.88718262 321.76405762 131.82514648 322.67655273 131.76123047 323.61669922 C131.68606201 325.06906982 131.68606201 325.06906982 131.609375 326.55078125 C130.99784044 335.37682973 129.8703847 343.64943667 127.671875 352.23828125 C128.73792969 352.36332031 129.80398438 352.48835938 130.90234375 352.6171875 C134.09165572 353.14268035 136.18286255 353.6880041 138.984375 355.17578125 C139.64050781 355.51480469 140.29664063 355.85382813 140.97265625 356.203125 C142.671875 357.23828125 142.671875 357.23828125 144.671875 359.23828125 C147.03363033 359.55273448 147.03363033 359.55273448 149.734375 359.61328125 C156.05644325 360.07789519 161.64742603 361.72613691 166.5859375 365.828125 C169.19695937 367.59325402 170.97695375 367.73452079 174.109375 367.92578125 C175.16769531 367.99667969 176.22601563 368.06757813 177.31640625 368.140625 C180.66151206 368.23797965 183.95390235 368.11883521 187.296875 367.98828125 C193.77323213 367.95725678 198.46729202 369.34190267 203.671875 373.23828125 C209.18193118 378.71397118 211.36096068 384.38294364 211.984375 392.11328125 C211.75086675 399.6439222 209.13513074 406.01255837 203.671875 411.23828125 C197.98601359 415.34775661 193.66218346 416.87376384 186.671875 416.23828125 C186.48625 417.08390625 186.300625 417.92953125 186.109375 418.80078125 C183.72788293 424.49565359 179.76828192 427.91198299 174.609375 431.17578125 C169.02373292 433.28648471 162.52972141 432.45764582 156.671875 432.23828125 C156.25228516 433.38103516 156.25228516 433.38103516 155.82421875 434.546875 C151.16658458 446.54290385 144.67172319 455.25964182 133.28515625 461.55859375 C123.4148042 465.88159633 110.65859062 465.98896446 100.484375 462.55078125 C97.26147105 461.18080067 94.62148098 459.56611446 91.859375 457.42578125 C88.92846155 454.89436555 88.92846155 454.89436555 85.91015625 455.58984375 C84.84152344 455.80382812 83.77289063 456.0178125 82.671875 456.23828125 C80.34048638 456.35220138 78.00601016 456.41298446 75.671875 456.42578125 C74.49625 456.43996094 73.320625 456.45414062 72.109375 456.46875 C68.671875 456.23828125 68.671875 456.23828125 65.7109375 454.953125 C62.49497571 453.86284594 62.49497571 453.86284594 59.0703125 455.94921875 C57.71960169 456.82262213 56.37897952 457.71175438 55.046875 458.61328125 C40.87709856 467.54890941 24.92589709 473.31542091 8.671875 477.23828125 C8.01123047 477.40199219 7.35058594 477.56570313 6.66992188 477.734375 C-15.49804193 482.93771859 -43.25116673 482.75752082 -65.328125 477.23828125 C-66.03839844 477.06135742 -66.74867188 476.88443359 -67.48046875 476.70214844 C-72.49697275 475.4077831 -77.41796937 473.88750278 -82.328125 472.23828125 C-82.99408691 472.0180127 -83.66004883 471.79774414 -84.34619141 471.57080078 C-109.96265178 462.96531995 -130.80959578 447.61220536 -150.328125 429.23828125 C-150.9365625 428.67882812 -151.545 428.119375 -152.171875 427.54296875 C-153.328125 426.23828125 -153.328125 426.23828125 -153.328125 424.23828125 C-154.58625 424.05265625 -155.844375 423.86703125 -157.140625 423.67578125 C-157.84832031 423.57136719 -158.55601562 423.46695312 -159.28515625 423.359375 C-161.5306592 423.09923326 -161.5306592 423.09923326 -164.328125 424.23828125 C-166.598218 424.33980094 -168.86927271 424.4205519 -171.140625 424.48828125 C-177.50257023 424.88753913 -180.00521111 425.69367947 -184.328125 430.23828125 C-190.69688726 433.48970198 -199.14218354 433.52188565 -205.9140625 431.4453125 C-208.52622442 430.1780741 -210.78449281 428.91290915 -212.625 426.62890625 C-215.22747902 424.50394631 -217.58440319 424.86247803 -220.890625 424.80078125 C-229.74599644 424.32606031 -237.1603565 422.2404015 -243.73046875 416.05859375 C-250.60861453 408.22187998 -253.83731024 399.6454236 -253.203125 389.23828125 C-252.045417 380.76172956 -248.87310609 372.92354024 -242.328125 367.23828125 C-234.21557692 361.56463212 -234.21557692 361.56463212 -230.13671875 360.859375 C-228.11823757 360.40063303 -228.11823757 360.40063303 -227.30859375 358.234375 C-227.04691406 357.39003906 -226.78523438 356.54570312 -226.515625 355.67578125 C-223.04411715 346.35192301 -217.43178796 341.49683628 -208.45703125 337.36328125 C-201.44640424 334.84260637 -194.56946254 334.79001374 -187.328125 336.23828125 C-187.49183594 335.53316406 -187.65554687 334.82804687 -187.82421875 334.1015625 C-188.34512324 331.14169437 -188.42679232 328.42766852 -188.390625 325.42578125 C-188.38160156 324.44996094 -188.37257813 323.47414063 -188.36328125 322.46875 C-188.35167969 321.73269531 -188.34007812 320.99664062 -188.328125 320.23828125 C-189.276875 320.13515625 -190.225625 320.03203125 -191.203125 319.92578125 C-194.328125 319.23828125 -194.328125 319.23828125 -196.328125 316.23828125 C-201.26561314 280.50165492 -185.5240908 240.32515468 -164.515625 212.05078125 C-155.68163985 200.45212249 -145.53125276 188.37369976 -133.328125 180.23828125 C-132.86929624 178.17883404 -132.86929624 178.17883404 -132.93612671 175.75927734 C-132.91948723 174.34591095 -132.91948723 174.34591095 -132.9025116 172.9039917 C-132.9070208 171.34856659 -132.9070208 171.34856659 -132.91162109 169.76171875 C-132.89874306 168.12749969 -132.89874306 168.12749969 -132.88560486 166.46026611 C-132.86042902 162.84453983 -132.85615564 159.22908736 -132.8515625 155.61328125 C-132.8372631 153.10985466 -132.82150803 150.60643599 -132.80435181 148.10302734 C-132.76668653 142.17685918 -132.7415963 136.25072773 -132.72322714 130.32447624 C-132.68787882 119.08106826 -132.62413902 107.83780992 -132.55836868 96.59454346 C-132.53921598 92.89294466 -132.52752924 89.19137817 -132.51693726 85.48974609 C-132.50672889 83.2314446 -132.49637128 80.97314376 -132.48583984 78.71484375 C-132.48479752 77.67789368 -132.48375519 76.6409436 -132.48268127 75.5725708 C-132.47722794 74.63032654 -132.4717746 73.68808228 -132.46615601 72.71728516 C-132.46359991 71.89579987 -132.46104382 71.07431458 -132.45841026 70.22793579 C-132.328125 68.23828125 -132.328125 68.23828125 -131.328125 66.23828125 C-130.668125 66.23828125 -130.008125 66.23828125 -129.328125 66.23828125 C-128.998125 64.58828125 -128.668125 62.93828125 -128.328125 61.23828125 C-128.89917969 61.56054688 -129.47023437 61.8828125 -130.05859375 62.21484375 C-133.77589257 63.89114718 -137.32948089 63.81720952 -141.328125 63.23828125 C-143.88613617 62.12820093 -145.97827642 60.77287624 -148.328125 59.23828125 C-148.988125 59.23828125 -149.648125 59.23828125 -150.328125 59.23828125 C-150.988125 60.55828125 -151.648125 61.87828125 -152.328125 63.23828125 C-151.73257813 63.480625 -151.13703125 63.72296875 -150.5234375 63.97265625 C-147.90644893 65.48138276 -146.84196556 66.96566804 -145.203125 69.48828125 C-144.70554687 70.2359375 -144.20796875 70.98359375 -143.6953125 71.75390625 C-139.16346212 79.9889258 -138.94994858 90.18526777 -141.015625 99.2578125 C-144.53511193 108.80442079 -150.81401382 114.0730538 -159.328125 119.23828125 C-158.585625 119.93953125 -157.843125 120.64078125 -157.078125 121.36328125 C-149.86742588 128.90173942 -147.91813354 135.94484946 -147.96240234 146.12084961 C-148.18000411 154.82591856 -150.95527376 161.41689092 -156.8046875 167.875 C-158.328125 169.23828125 -158.328125 169.23828125 -161.140625 170.48828125 C-163.55997625 172.02474649 -163.55997625 172.02474649 -163.71875 174.578125 C-163.83532964 176.50963772 -163.93773671 178.44204817 -164.02734375 180.375 C-164.51298473 184.99804983 -166.28762163 189.54530887 -169.93359375 192.5703125 C-172.01861497 195.06416141 -171.70183875 197.2252124 -171.765625 200.42578125 C-172.26385095 208.73877344 -174.12752784 213.46159934 -180.265625 219.11328125 C-186.03281318 223.77588827 -190.04691462 224.48510194 -197.328125 224.23828125 C-197.369375 225.04265625 -197.410625 225.84703125 -197.453125 226.67578125 C-198.34139579 230.29231232 -199.12397164 231.33463089 -201.390625 234.11328125 C-204.50667181 238.45217385 -204.67158868 242.12134667 -204.453125 247.30078125 C-204.2065594 253.54974558 -204.17706268 258.27781959 -208.328125 263.23828125 C-213.14620573 268.2776517 -217.48065678 271.84296193 -224.59765625 272.57421875 C-233.11389073 272.66811329 -239.00407994 272.35601005 -245.29296875 266.3671875 C-249.70242309 261.5970416 -252.33916659 258.01247996 -252.3125 251.3125 C-252.23523218 249.85021487 -252.15707619 248.38797646 -252.078125 246.92578125 C-251.84117019 239.7489809 -251.84117019 239.7489809 -255.203125 233.55078125 C-255.73679688 233.03128906 -256.27046875 232.51179687 -256.8203125 231.9765625 C-261.82003176 226.21263745 -260.93256528 217.3427715 -260.52783203 210.15917969 C-259.78762883 203.03947457 -256.30313513 197.21329138 -251.328125 192.23828125 C-250.668125 192.23828125 -250.008125 192.23828125 -249.328125 192.23828125 C-249.8025 191.16578125 -250.276875 190.09328125 -250.765625 188.98828125 C-252.22697064 185.25520738 -252.45586359 182.10733578 -252.515625 178.11328125 C-252.70660598 173.84312356 -252.70660598 173.84312356 -254.98828125 170.41796875 C-256.38662433 169.46134526 -257.81098508 168.54173568 -259.2578125 167.66015625 C-264.3652369 164.15241572 -266.73638822 158.02578035 -268.328125 152.23828125 C-268.56490802 149.58135549 -268.70943714 147.07877216 -268.703125 144.42578125 C-268.70070801 143.36738037 -268.70070801 143.36738037 -268.69824219 142.28759766 C-268.56101279 136.43651282 -267.39578905 132.16545398 -264.328125 127.23828125 C-263.668125 126.10390625 -263.008125 124.96953125 -262.328125 123.80078125 C-260.36442838 121.28479495 -259.33642538 120.17837512 -256.328125 119.23828125 C-255.008125 119.23828125 -253.688125 119.23828125 -252.328125 119.23828125 C-251.99623863 112.49313003 -251.99623863 112.49313003 -254.7421875 106.7109375 C-255.95135289 105.96253337 -257.17642194 105.23937352 -258.4140625 104.5390625 C-263.72575386 100.92928041 -266.71740354 94.26193823 -268.328125 88.23828125 C-269.33543241 77.04077098 -268.6760835 67.37465979 -261.390625 58.30078125 C-259.39864014 56.10150862 -258.29104323 55.22180047 -255.515625 53.98828125 C-253.09627375 52.45181601 -253.09627375 52.45181601 -252.9375 49.8984375 C-252.82058556 47.96137783 -252.71150388 46.02383296 -252.609375 44.0859375 C-251.8803219 36.70427488 -247.84078856 32.31195779 -242.42578125 27.5859375 C-240.05351967 26.06185883 -238.10251771 25.61945868 -235.328125 25.23828125 C-235.22628906 24.49707031 -235.12445313 23.75585938 -235.01953125 22.9921875 C-233.58601332 17.2824127 -228.71971533 12.73849544 -223.765625 9.73828125 C-217.10006146 6.86319292 -209.04083681 6.96144762 -202.25 9.296875 C-200.2999205 10.1754536 -198.35583275 11.06745266 -196.41796875 11.97265625 C-191.04746691 14.17245725 -185.14324857 15.65935137 -179.328125 15.23828125 C-176.51664859 12.98420137 -176.51664859 12.98420137 -174.328125 10.23828125 C-169.846269 6.21610279 -166.03503961 4.6026736 -160.078125 3.80078125 C-154.23650265 4.48230386 -148.79180976 7.09405267 -144.33984375 10.96875 C-142.37233181 12.48553087 -142.37233181 12.48553087 -139.83984375 12.078125 C-137.32364474 11.23678319 -135.37799962 10.21540648 -133.140625 8.80078125 C-125.06399189 4.19509791 -116.39088301 3.15162443 -107.328125 5.23828125 C-98.44379864 8.45578791 -91.58002682 12.95558764 -87.17553711 21.46508789 C-84.4975477 27.76650664 -83.72575377 33.11150775 -83.890625 39.92578125 C-83.9009375 40.87533691 -83.91125 41.82489258 -83.921875 42.80322266 C-84.10712201 50.87100256 -85.28635221 58.43579239 -87.328125 66.23828125 C-86.668125 66.23828125 -86.008125 66.23828125 -85.328125 66.23828125 C-83.98762973 68.91927178 -84.2083198 70.97139331 -84.21459961 73.97314453 C-84.21467514 75.17423859 -84.21475067 76.37533264 -84.21482849 77.61282349 C-84.21998978 78.91492767 -84.22515106 80.21703186 -84.23046875 81.55859375 C-84.23233362 82.90094958 -84.2337572 84.24330609 -84.23475647 85.58566284 C-84.23857622 89.120238 -84.24840188 92.65477212 -84.25946045 96.18933105 C-84.26968622 99.79548589 -84.27425659 103.40164735 -84.27929688 107.0078125 C-84.29002463 114.08465381 -84.30761705 121.16146054 -84.328125 128.23828125 C-79.048125 128.23828125 -73.768125 128.23828125 -68.328125 128.23828125 C-68.33336182 126.45736084 -68.33859863 124.67644043 -68.34399414 122.84155273 C-68.36015988 116.93833366 -68.37162824 111.03511534 -68.37993717 105.13188076 C-68.3851419 101.55494887 -68.3921955 97.97804107 -68.40356445 94.40112305 C-68.41447933 90.94519376 -68.42041997 87.48928756 -68.42300224 84.03334236 C-68.42573213 82.08198917 -68.43353039 80.13064518 -68.44142151 78.17930603 C-68.44178439 72.41058272 -68.30109512 66.92280596 -67.328125 61.23828125 C-67.35743834 58.69601525 -67.4214311 56.15397076 -67.515625 53.61328125 C-67.70953751 39.78619746 -62.53706416 26.83670577 -53.265625 16.48828125 C-42.80390743 7.02181558 -30.93855527 3.51875228 -17.328125 1.23828125 C-16.48862305 1.06393555 -15.64912109 0.88958984 -14.78417969 0.70996094 C-9.85623641 0.03739903 -4.96871679 0.03495572 0 0 Z " fill="#323232" transform="translate(284.328125,15.76171875)"/>
<path d="M0 0 C6.82780739 2.75485579 13.53557204 5.53816508 19.9375 9.1875 C20.61006836 9.56986816 21.28263672 9.95223633 21.97558594 10.34619141 C41.85358833 21.92839072 66.16585303 41.88485595 74 64 C73.31292969 64.51949219 72.62585938 65.03898437 71.91796875 65.57421875 C70.56638672 66.62029297 70.56638672 66.62029297 69.1875 67.6875 C67.84751953 68.71423828 67.84751953 68.71423828 66.48046875 69.76171875 C63.8819084 71.86002128 63.8819084 71.86002128 62.5 74.734375 C61 77 61 77 58.58203125 77.56640625 C57.66808594 77.56511719 56.75414062 77.56382812 55.8125 77.5625 C50.41860232 77.81254824 46.467542 78.94436986 42 82 C41.56042969 82.52980469 41.12085938 83.05960937 40.66796875 83.60546875 C38.17411984 85.69048997 36.01306885 85.37371375 32.8125 85.4375 C24.49950781 85.93572595 19.77668191 87.79940284 14.125 93.9375 C9.7882468 99.32139635 8.56105388 103.40950477 8.6640625 110.30078125 C9.13931198 114.11935552 10.49951786 117.30799989 12.125 120.7734375 C13 123 13 123 13 127 C11.59814453 128.7800293 11.59814453 128.7800293 9.6328125 130.57421875 C8.91609375 131.23752197 8.199375 131.9008252 7.4609375 132.58422852 C6.30464844 133.6253479 6.30464844 133.6253479 5.125 134.6875 C4.3515625 135.40284912 3.578125 136.11819824 2.78125 136.85522461 C-0.53010502 139.90666872 -3.86350594 142.91856986 -7.3203125 145.8046875 C-12.39837964 149.99101529 -12.39837964 149.99101529 -15.3125 155.75 C-14.55654276 163.61195527 -7.61955837 168.82145985 -2.33154297 174.14892578 C-0.75432917 175.74561737 0.8002655 177.36236945 2.35546875 178.98046875 C3.36585974 180.00391669 4.37753729 181.02609641 5.390625 182.046875 C6.7523584 183.43664551 6.7523584 183.43664551 8.14160156 184.85449219 C11.52926234 187.39726319 13.81087177 187.79308358 18 188 C20.32158065 187.65340705 20.32158065 187.65340705 22 187 C23.05126872 183.18362954 23.90132917 179.64805079 21.9296875 176.04296875 C20.05779661 173.89526785 18.07028039 171.95864763 16 170 C14.94974427 168.94737273 13.9031146 167.89111997 12.859375 166.83203125 C9.92908577 163.86435812 6.97090057 160.92699564 4 158 C5.47946859 154.45560466 7.42240727 152.49749421 10.3125 150 C11.63314453 148.84177734 11.63314453 148.84177734 12.98046875 147.66015625 C13.4604834 147.24008301 13.94049805 146.82000977 14.43505859 146.38720703 C17.37321922 143.78274078 20.2453303 141.10624982 23.125 138.4375 C23.70548096 137.90060547 24.28596191 137.36371094 24.8840332 136.81054688 C26.25658487 135.54097269 27.62837761 134.2705781 29 133 C31.52829612 134.21773226 33.71773465 135.48337231 36.0625 137.0625 C41.48153644 140.63675807 46.68087261 140.63191274 53 140 C56.48046528 138.94293561 59.73067185 137.58856726 63 136 C63.680625 136.721875 64.36125 137.44375 65.0625 138.1875 C71.53095926 144.61941429 77.89428535 148.27793455 87.25 148.3125 C93.26033811 148.23659447 98.3982721 147.12435731 104 145 C104.53293098 157.27715072 103.06233143 169.09735331 100 181 C100.99 181.0825 101.98 181.165 103 181.25 C108.27230926 181.99091515 113.22835095 184.22835095 117 188 C119.36175533 188.31445323 119.36175533 188.31445323 122.0625 188.375 C128.38456825 188.83961394 133.97555103 190.48785566 138.9140625 194.58984375 C141.52508437 196.35497277 143.30507875 196.49623954 146.4375 196.6875 C147.49582031 196.75839844 148.55414063 196.82929688 149.64453125 196.90234375 C152.98963706 196.9996984 156.28202735 196.88055396 159.625 196.75 C166.10135713 196.71897553 170.79541702 198.10362142 176 202 C181.51005618 207.47568993 183.68908568 213.14466239 184.3125 220.875 C184.07899175 228.40564095 181.46325574 234.77427712 176 240 C170.31413859 244.10947536 165.99030846 245.63548259 159 245 C158.814375 245.845625 158.62875 246.69125 158.4375 247.5625 C156.05600793 253.25737234 152.09640692 256.67370174 146.9375 259.9375 C141.35185792 262.04820346 134.85784641 261.21936457 129 261 C128.58041016 262.14275391 128.58041016 262.14275391 128.15234375 263.30859375 C123.49470958 275.3046226 116.99984819 284.02136057 105.61328125 290.3203125 C95.7429292 294.64331508 82.98671562 294.75068321 72.8125 291.3125 C69.58959605 289.94251942 66.94960598 288.32783321 64.1875 286.1875 C61.25658655 283.6560843 61.25658655 283.6560843 58.23828125 284.3515625 C57.16964844 284.56554687 56.10101563 284.77953125 55 285 C52.66861138 285.11392013 50.33413516 285.17470321 48 285.1875 C46.824375 285.20167969 45.64875 285.21585937 44.4375 285.23046875 C41 285 41 285 38.0390625 283.71484375 C34.82310071 282.62456469 34.82310071 282.62456469 31.3984375 284.7109375 C30.04772669 285.58434088 28.70710452 286.47347313 27.375 287.375 C13.20522356 296.31062816 -2.74597791 302.07713966 -19 306 C-19.66064453 306.16371094 -20.32128906 306.32742188 -21.00195312 306.49609375 C-43.16991693 311.69943734 -70.92304173 311.51923957 -93 306 C-93.71027344 305.82307617 -94.42054688 305.64615234 -95.15234375 305.46386719 C-100.16884775 304.16950185 -105.08984437 302.64922153 -110 301 C-110.66596191 300.77973145 -111.33192383 300.55946289 -112.01806641 300.33251953 C-137.63452678 291.7270387 -158.48147078 276.37392411 -178 258 C-178.6084375 257.44054687 -179.216875 256.88109375 -179.84375 256.3046875 C-181 255 -181 255 -181 253 C-182.258125 252.814375 -183.51625 252.62875 -184.8125 252.4375 C-185.52019531 252.33308594 -186.22789062 252.22867188 -186.95703125 252.12109375 C-189.2025342 251.86095201 -189.2025342 251.86095201 -192 253 C-194.270093 253.10151969 -196.54114771 253.18227065 -198.8125 253.25 C-205.17444523 253.64925788 -207.67708611 254.45539822 -212 259 C-218.36876226 262.25142073 -226.81405854 262.2836044 -233.5859375 260.20703125 C-236.19809942 258.93979285 -238.45636781 257.6746279 -240.296875 255.390625 C-242.89935402 253.26566506 -245.25627819 253.62419678 -248.5625 253.5625 C-257.41787144 253.08777906 -264.8322315 251.00212025 -271.40234375 244.8203125 C-278.28048953 236.98359873 -281.50918524 228.40714235 -280.875 218 C-279.717292 209.52344831 -276.54498109 201.68525899 -270 196 C-261.88745192 190.32635087 -261.88745192 190.32635087 -257.80859375 189.62109375 C-255.79011257 189.16235178 -255.79011257 189.16235178 -254.98046875 186.99609375 C-254.71878906 186.15175781 -254.45710938 185.30742187 -254.1875 184.4375 C-250.71599215 175.11364176 -245.10366296 170.25855503 -236.12890625 166.125 C-229.11827924 163.60432512 -222.24133754 163.55173249 -215 165 C-215.16371094 164.29488281 -215.32742187 163.58976563 -215.49609375 162.86328125 C-216.01699824 159.90341312 -216.09866732 157.18938727 -216.0625 154.1875 C-216.05347656 153.21167969 -216.04445313 152.23585938 -216.03515625 151.23046875 C-216.02355469 150.49441406 -216.01195312 149.75835937 -216 149 C-214.576875 148.6596875 -214.576875 148.6596875 -213.125 148.3125 C-209.36901799 145.53307331 -209.38904184 144.65778988 -208.6875 140.1875 C-208.15930182 135.54653541 -207.87834413 130.91261 -207.625 126.25 C-207.12670524 117.92001594 -205.09425832 110.04584824 -203 102 C-196.58930713 107.27101414 -190.81409488 113.09128152 -185 119 C-185.433125 120.12792969 -185.86625 121.25585938 -186.3125 122.41796875 C-190.50828319 134.01741569 -194.65331487 149.06399106 -190.18554688 161.21508789 C-189.02418893 163.39442579 -189.02418893 163.39442579 -185.625 163.875 C-181.4355034 164.02914163 -181.4355034 164.02914163 -178 162 C-176.95147697 158.85443091 -176.90898322 156.18099249 -176.86132812 152.89208984 C-176.67918506 143.73575803 -175.9438732 127.9438732 -169 121 C-168.45553332 117.66514156 -168.22172695 115.1377694 -170.19555664 112.25219727 C-175.6019615 106.32648353 -181.24057505 100.64563618 -186.9375 95 C-187.9175531 94.02497614 -188.8973724 93.0497172 -189.87695312 92.07421875 C-192.24902313 89.71383382 -194.6234086 87.35583095 -197 85 C-195.10632912 78.6362544 -192.64502328 72.95946691 -189.375 67.1875 C-188.93406006 66.40487793 -188.49312012 65.62225586 -188.03881836 64.81591797 C-181.03082179 52.60746827 -171.72051544 39.114203 -160 31 C-159.3035138 31.81232118 -158.60702761 32.62464235 -157.88943577 33.46157932 C-154.48993787 36.44809865 -153.20926392 36.62293193 -148.76902771 36.61473083 C-147.51422607 36.62449448 -146.25942444 36.63425812 -144.96659851 36.64431763 C-143.58376564 36.62981309 -142.2009379 36.61481236 -140.81811523 36.59936523 C-139.35590193 36.60122987 -137.89369003 36.60526774 -136.43148804 36.61131287 C-132.46649287 36.62128334 -128.50221315 36.60012538 -124.53732181 36.57283282 C-120.38720509 36.54899244 -116.23710231 36.55194769 -112.08692932 36.55152893 C-105.11878353 36.54690183 -98.1509111 36.52326567 -91.18286133 36.48706055 C-83.12631649 36.44531122 -75.07001773 36.42774468 -67.01337093 36.4244408 C-58.43543705 36.42084134 -49.85759172 36.40196773 -41.2796948 36.37732053 C-38.80789164 36.37109198 -36.33609522 36.36745563 -33.86428642 36.36428642 C-29.98103416 36.35838542 -26.09795768 36.34207125 -22.2147789 36.31768227 C-20.78935543 36.31024246 -19.36390983 36.30617034 -17.93846703 36.30570221 C-15.99361288 36.30444425 -14.04878148 36.28964974 -12.10398865 36.27415466 C-11.01539268 36.26950416 -9.9267967 36.26485365 -8.80521297 36.26006222 C-5.97779489 35.99794144 -4.32231985 35.6168718 -2 34 C-0.83597273 30.50791819 -0.78881492 27.60852228 -0.68359375 23.92578125 C-0.6524221 22.90003242 -0.6524221 22.90003242 -0.62062073 21.8535614 C-0.55533846 19.6733079 -0.49633983 17.49293595 -0.4375 15.3125 C-0.39429447 13.83267014 -0.35067953 12.35285217 -0.30664062 10.87304688 C-0.19967917 7.24882378 -0.09835177 3.62446811 0 0 Z " fill="#323332" transform="translate(312,187)"/>
<path d="M0 0 C2.77281782 0.02922892 5.54374032 0.02048602 8.31665039 0.00756836 C19.99305677 0.0214369 30.99209016 0.80352017 42.14599609 4.5390625 C45.73652778 5.72943076 48.16764344 5.914548 51.94360352 5.46655273 C53.47236509 4.68723733 54.97175772 3.84866066 56.44360352 2.96655273 C60.5248845 0.54264474 63.11387839 -0.32376592 67.94360352 0.46655273 C71.44949824 1.80646797 74.85256129 3.17230781 77.30688477 6.08374023 C79.74996039 8.14781845 81.73943052 7.82953697 84.88110352 7.77905273 C85.92137695 7.77518555 86.96165039 7.77131836 88.03344727 7.76733398 C90.88920422 7.47217521 92.56019938 7.02809338 94.94360352 5.46655273 C96.21164918 3.43295793 96.21164918 3.43295793 96.94360352 1.46655273 C101.94272275 1.94265933 104.92193035 3.49817492 108.94360352 6.46655273 C108.61360352 7.45655273 108.28360352 8.44655273 107.94360352 9.46655273 C107.47481342 13.27835419 107.12546106 16.38660469 109.50610352 19.52905273 C113.03190197 20.88512906 115.28890764 20.3337687 118.94360352 19.46655273 C120.64516602 18.69311523 120.64516602 18.69311523 122.38110352 17.90405273 C126.82387324 16.11135618 129.18209166 15.93749586 133.94360352 16.46655273 C138.89880872 19.03944775 142.43477314 22.44889199 144.94360352 27.46655273 C145.35816677 32.27548654 145.28717272 35.28081598 142.94360352 39.52905273 C140.83534856 43.39920647 140.31586179 45.99389296 140.94360352 50.46655273 C142.57397396 55.35766407 144.5018115 60.58539035 148.94360352 63.46655273 C151.19366942 63.81073108 153.42758836 63.97442684 155.69750977 64.13842773 C160.39183342 64.82420719 163.22939874 67.6558338 166.25610352 71.09155273 C169.40971048 75.52996253 169.45713289 79.12404542 168.94360352 84.46655273 C167.69923454 87.607103 166.46669262 89.86596895 164.25610352 92.40405273 C162.29034264 95.49310553 162.55397651 97.89497184 162.94360352 101.46655273 C165.0878523 104.22539512 167.52951259 105.29310058 170.69360352 106.65405273 C176.79764432 109.60790874 181.12092776 113.7294558 184.10766602 119.85327148 C186.03353376 125.87385804 186.02029582 132.97962587 183.38110352 138.77905273 C181.71459332 141.68045897 179.69834334 143.7576692 177.25610352 146.02905273 C174.67678128 148.48052064 173.94673015 149.4573374 172.75610352 152.96655273 C172.95664659 156.71002341 174.00249958 158.48398762 176.00610352 161.57983398 C177.7558622 165.10122334 177.50855865 168.65136191 176.94360352 172.46655273 C175.11933446 177.73666335 172.37108666 180.30406478 167.94360352 183.46655273 C166.00610352 184.27905273 166.00610352 184.27905273 163.94360352 184.46655273 C162.85047852 184.56967773 161.75735352 184.67280273 160.63110352 184.77905273 C156.27994753 184.4103107 153.22646054 183.29389371 149.94360352 180.46655273 C148.47873729 178.53451295 147.25972025 176.58574909 146.08422852 174.46655273 C145.70782227 173.80655273 145.33141602 173.14655273 144.94360352 172.46655273 C144.59168945 171.72405273 144.23977539 170.98155273 143.87719727 170.21655273 C141.10808 167.71036175 138.94041963 168.17214473 135.31665039 168.31030273 C133.62907751 168.41328201 131.94157495 168.51742103 130.25415039 168.62280273 C122.90039067 168.90095913 118.03995239 167.16971445 112.48266602 162.31811523 C106.44252479 155.2918285 104.53615167 150.36285425 104.67407227 141.07202148 C105.01879648 137.73968745 106.37834623 135.40141014 107.94360352 132.46655273 C108.37213984 129.60964391 108.2318613 127.39717355 107.94360352 124.46655273 C105.97398108 121.93418103 104.15749523 121.01081175 101.13110352 120.09155273 C96.18590376 118.34297382 92.37361767 115.9690775 89.69360352 111.27905273 C88.76032087 107.77924282 88.15641122 104.25240459 87.60375977 100.67358398 C87.09085488 98.10380305 87.09085488 98.10380305 83.94360352 96.46655273 C81.18880161 96.4261682 78.50356715 96.47676929 75.75610352 96.59155273 C67.67119785 96.72603333 62.79057028 96.10632201 56.76782227 90.40795898 C50.26942005 83.56328311 48.73077661 78.45581122 48.67797852 69.15014648 C48.96378476 66.26266279 49.83479094 64.13120903 50.94360352 61.46655273 C51.00760826 57.94629204 50.85357452 55.56620783 48.55688477 52.79077148 C42.44910985 47.25946071 36.53958689 45.10666182 28.35766602 45.26733398 C25.71252527 45.41679466 25.71252527 45.41679466 22.31860352 46.40405273 C17.72024736 46.48920748 16.26439825 44.74348627 13.04516602 41.64233398 C11.59798135 40.14404057 10.15553801 38.64115781 8.71704102 37.13452148 C1.63444494 29.79636782 -4.78007206 25.38738628 -15.32788086 25.18334961 C-16.12516602 25.17368164 -16.92245117 25.16401367 -17.74389648 25.15405273 C-18.91082031 25.11054687 -18.91082031 25.11054687 -20.10131836 25.06616211 C-27.37046321 24.98734736 -32.24798668 27.10813134 -37.78686523 31.75952148 C-40.43485372 34.91796558 -42.40881658 38.16759621 -44.36889648 41.77905273 C-44.72790039 42.42422852 -45.0869043 43.0694043 -45.45678711 43.73413086 C-46.33085123 45.30744628 -47.19470431 46.88642738 -48.05639648 48.46655273 C-52.01639648 48.46655273 -55.97639648 48.46655273 -60.05639648 48.46655273 C-62.81970882 40.17661573 -62.22955841 29.68048162 -58.49389648 21.84155273 C-55.63589406 16.96024485 -52.52569019 12.94474783 -48.05639648 9.46655273 C-47.48147461 9.00764648 -46.90655273 8.54874023 -46.31420898 8.07592773 C-33.53343281 -0.44458971 -14.74948316 -0.16917252 0 0 Z " fill="#929899" transform="translate(295.056396484375,31.533447265625)"/>
<path d="M0 0 C5.15653586 2.76196132 9.48681322 5.8325207 13.875 9.6875 C14.48722412 10.22221924 15.09944824 10.75693848 15.73022461 11.30786133 C17.4960841 12.86186425 19.25025181 14.4278992 21 16 C21.80824219 16.721875 22.61648438 17.44375 23.44921875 18.1875 C30.91505741 25.25313659 37.00823263 33.67932379 43 42 C43.66257812 42.91265625 44.32515625 43.8253125 45.0078125 44.765625 C46 47 46 47 45.43359375 49.12890625 C43.82834763 51.22403675 42.25003792 52.4669205 40.0625 53.9375 C36.7167335 56.28187368 36.7167335 56.28187368 34.6875 59.8125 C33 62 33 62 30.6640625 62.390625 C28.73124229 62.50712375 26.79753193 62.6095515 24.86328125 62.69921875 C20.24023142 63.18485973 15.69297238 64.95949663 12.66796875 68.60546875 C10.17411984 70.69048997 8.01306885 70.37371375 4.8125 70.4375 C-3.50049219 70.93572595 -8.22331809 72.79940284 -13.875 78.9375 C-18.2117532 84.32139635 -19.43894612 88.40950477 -19.3359375 95.30078125 C-18.86068802 99.11935552 -17.50048214 102.30799989 -15.875 105.7734375 C-15 108 -15 108 -15 112 C-16.40185547 113.7800293 -16.40185547 113.7800293 -18.3671875 115.57421875 C-19.08390625 116.23752197 -19.800625 116.9008252 -20.5390625 117.58422852 C-21.30992187 118.27830811 -22.08078125 118.9723877 -22.875 119.6875 C-23.6484375 120.40284912 -24.421875 121.11819824 -25.21875 121.85522461 C-28.53010502 124.90666872 -31.86350594 127.91856986 -35.3203125 130.8046875 C-40.39837964 134.99101529 -40.39837964 134.99101529 -43.3125 140.75 C-42.55654276 148.61195527 -35.61955837 153.82145985 -30.33154297 159.14892578 C-28.75432917 160.74561737 -27.1997345 162.36236945 -25.64453125 163.98046875 C-24.63414026 165.00391669 -23.62246271 166.02609641 -22.609375 167.046875 C-21.70155273 167.97338867 -20.79373047 168.89990234 -19.85839844 169.85449219 C-16.4720384 172.39628686 -14.18803624 172.79761343 -10 173 C-8.65667272 172.70955086 -7.31774196 172.39044206 -6 172 C-5.34 172.33 -4.68 172.66 -4 173 C-4.73048301 177.68803656 -6.36636885 181.90885555 -8.0625 186.3125 C-8.34416016 187.05306641 -8.62582031 187.79363281 -8.91601562 188.55664062 C-9.60718575 190.37242655 -10.30311689 192.18639899 -11 194 C-13.80350264 193.47345382 -16.35902545 192.87544015 -19.0625 191.9375 C-26.76113866 189.74028504 -34.78078453 190.05037024 -41.90625 193.7421875 C-50.1227713 198.67823201 -55.03503827 203.64101348 -58.375 212.75 C-60.16571952 216.33143905 -61.64361618 217.17262963 -65.15625 218.9140625 C-68.48758963 220.87616508 -70.93346076 223.76263512 -73 227 C-73.22389404 227.96333252 -73.44778809 228.92666504 -73.6784668 229.91918945 C-75.460986 234.07466883 -77.27871453 234.56368945 -81.40625 236.26953125 C-82.71811927 236.8427901 -84.02870629 237.41899038 -85.33813477 237.99780273 C-86.0198172 238.29290741 -86.70149963 238.58801208 -87.40383911 238.89205933 C-99.14904129 244.04946965 -108.16512861 248.69394946 -113.37890625 261.02734375 C-113.62785645 261.67429199 -113.87680664 262.32124023 -114.13330078 262.98779297 C-115.67370063 266.56412411 -117.85254448 269.76291962 -120 273 C-126.40140935 272.53444296 -131.26769829 270.85288164 -137 268 C-134.26695118 263.68700688 -131.33555021 260.03890087 -127.8125 256.3125 C-124.22793879 252.47940921 -120.7887649 248.59466044 -117.5 244.5 C-113.70157244 239.77260918 -109.68856943 235.30242807 -105.54101562 230.8828125 C-101.94409761 227.07340536 -101.94409761 227.07340536 -100.6875 222.125 C-100.72684802 219.01804013 -100.72684802 219.01804013 -102.44824219 217.06152344 C-106.02760622 214.16981372 -109.90591518 212.63153353 -114.140625 210.890625 C-115.02280701 210.51895203 -115.90498901 210.14727905 -116.81390381 209.76434326 C-119.62217055 208.58366612 -122.43589899 207.4166934 -125.25 206.25 C-127.15923079 205.45011711 -129.06808963 204.6493458 -130.9765625 203.84765625 C-135.64679413 201.88811633 -140.32196982 199.94084446 -145 198 C-145 197.34 -145 196.68 -145 196 C-144.26289795 195.59386475 -143.5257959 195.18772949 -142.76635742 194.76928711 C-129.38614828 187.39554862 -116.00817655 180.01767345 -102.64785767 172.60794067 C-100.8974557 171.63745031 -99.14636401 170.66820429 -97.39526367 169.69897461 C-96.33412354 169.10995361 -95.2729834 168.52093262 -94.1796875 167.9140625 C-92.78339111 167.1398999 -92.78339111 167.1398999 -91.35888672 166.35009766 C-89.5305464 165.30365573 -87.75281798 164.16854532 -86 163 C-84.93551399 158.9906885 -84.93551399 158.9906885 -85 155 C-87.73594682 151.80070437 -90.26156816 150.19886157 -94.14819336 148.65332031 C-95.17283188 148.23898743 -96.1974704 147.82465454 -97.25315857 147.39776611 C-98.35426468 146.96228455 -99.45537079 146.52680298 -100.58984375 146.078125 C-102.92418921 145.1258847 -105.25816233 144.17273121 -107.59179688 143.21875 C-111.26562904 141.72947142 -114.94212923 140.24815897 -118.62573242 138.78320312 C-122.18584719 137.36230417 -125.73187852 135.91012294 -129.27734375 134.453125 C-130.37642563 134.02574036 -131.47550751 133.59835571 -132.6078949 133.15802002 C-139.48298506 130.30212576 -142.87904302 127.76151449 -146 121 C-146.68046697 119.74258446 -147.36449485 118.48708878 -148.05224609 117.23364258 C-148.71389023 115.95630095 -149.3708425 114.67651969 -150.0234375 113.39453125 C-150.54908798 112.36388802 -150.54908798 112.36388802 -151.08535767 111.31242371 C-151.81517271 109.87584353 -152.54272647 108.43811245 -153.26806641 106.99926758 C-154.38094046 104.80076451 -155.51262818 102.61258152 -156.64453125 100.42382812 C-157.35534884 99.01882663 -158.06502574 97.61324732 -158.7734375 96.20703125 C-159.11289398 95.55797318 -159.45235046 94.9089151 -159.80209351 94.2401886 C-161.15776075 91.50244793 -162.01427243 89.43336999 -161.9128418 86.35351562 C-160.82943972 83.56025647 -159.446309 81.51409996 -157.62109375 79.13671875 C-156.94755859 78.25048828 -156.27402344 77.36425781 -155.58007812 76.45117188 C-154.87302734 75.53916016 -154.16597656 74.62714844 -153.4375 73.6875 C-152.37112305 72.29047852 -152.37112305 72.29047852 -151.28320312 70.86523438 C-149.5299203 68.57066961 -147.76871662 66.28267553 -146 64 C-136.13302981 68.59030141 -126.33991086 73.28400742 -116.67578125 78.2890625 C-114.95129674 79.17602406 -113.22668702 80.06274223 -111.50195312 80.94921875 C-108.87911551 82.29790855 -106.26018035 83.65250535 -103.6496582 85.02490234 C-101.06338018 86.38164615 -98.46505288 87.71232804 -95.86328125 89.0390625 C-95.0892244 89.45346588 -94.31516754 89.86786926 -93.51765442 90.29483032 C-88.18143472 92.97732249 -84.8275768 93.605392 -79 92 C-76.63285086 90.19337148 -76.63285086 90.19337148 -74.96484375 87.66015625 C-74.30033203 86.76103516 -73.63582031 85.86191406 -72.95117188 84.93554688 C-72.28666016 83.98744141 -71.62214844 83.03933594 -70.9375 82.0625 C-70.26912109 81.14919922 -69.60074219 80.23589844 -68.91210938 79.29492188 C-68.24888672 78.38419922 -67.58566406 77.47347656 -66.90234375 76.53515625 C-65.89445801 75.1591626 -65.89445801 75.1591626 -64.86621094 73.75537109 C-62.95863374 71.08288415 -62.95863374 71.08288415 -61.68847656 68.27978516 C-59.20444757 63.52421212 -56.72551171 61.04455721 -51.66674805 59.28344727 C-46.13679638 57.64299444 -40.51456078 56.4450831 -34.875 55.25 C-32.0098091 54.60556307 -29.14733856 53.94986188 -26.284729 53.29406738 C-24.38553334 52.85939246 -22.48558789 52.42798028 -20.5848999 51.99987793 C-13.74232756 50.44671447 -6.95684892 48.73439901 -0.1953125 46.859375 C1.14927536 46.49830658 1.14927536 46.49830658 2.52102661 46.12994385 C3.75561111 45.77896637 3.75561111 45.77896637 5.01513672 45.42089844 C5.73885468 45.21865662 6.46257263 45.01641479 7.20822144 44.80804443 C9.36608129 44.02553161 9.36608129 44.02553161 11 41 C11.33957563 36.92509248 11.31332486 35.46998729 9 32 C5.94570927 30.78715124 5.94570927 30.78715124 3 30 C2.48722171 26.87696198 1.99223175 23.75133678 1.5 20.625 C1.35691406 19.75488281 1.21382812 18.88476562 1.06640625 17.98828125 C0.12624029 11.94435724 -0.17771303 6.11299899 0 0 Z " fill="#56B6E9" transform="translate(340,202)"/>
<path d="M0 0 C3.7811641 0.32481366 6.51813051 2.53360766 9.625 4.5625 C14.28959803 7.27788194 17.85351557 9.13698609 23.30078125 8.77734375 C27.55890244 7.55105415 31.14500583 5.1902576 34.88037109 2.87158203 C39.75427051 -0.08217484 43.41406724 -1.35031846 49 0 C54.67476113 1.96434039 58.31400331 5.62800662 61 11 C61.8630941 22.34756511 60.22624486 32.16903511 57 43 C54.36 43 51.72 43 49 43 C49.04640625 42.34773438 49.0928125 41.69546875 49.140625 41.0234375 C49.32417615 36.57887744 49.30462522 33.6443995 47.375 29.5625 C44.31004103 26.25557058 41.63309552 24.28437432 37.046875 23.7890625 C33.76721219 23.72647352 31.0684512 23.98220269 27.875 24.8125 C25 25 25 25 21.8125 22.625 C20.884375 21.75875 19.95625 20.8925 19 20 C16.3146844 19.1048948 14.47198737 18.77887351 11.6875 18.6875 C10.94886719 18.65011719 10.21023437 18.61273438 9.44921875 18.57421875 C4.37178133 19.45689926 1.14327569 22.51743588 -1.7734375 26.57421875 C-2.65383681 27.93686664 -3.52086392 29.30823796 -4.375 30.6875 C-4.82488281 31.35716797 -5.27476563 32.02683594 -5.73828125 32.71679688 C-8.94483669 37.8190211 -9.7912987 42.01181366 -9 48 C-8.67 48.99 -8.34 49.98 -8 51 C-6.34302621 51.69040574 -4.6744239 52.3530635 -3 53 C1.15143907 55.76762605 3.25314312 58.31106837 5 63 C5.757572 68.84412683 4.48833343 73.32268531 1 78 C-3.48110225 82.00568057 -8.23993726 83.60570532 -14.1171875 84.4453125 C-16.39496794 84.89762571 -16.39496794 84.89762571 -18 88 C-19.7585828 93.30660072 -20.86035771 98.62563327 -19 104 C-16.53683194 106.05645892 -13.81591833 107.48291735 -11 109 C-7.31792039 111.61836772 -4.77477648 113.79658202 -3 118 C-2.23342956 123.67052105 -2.71424658 128.18089498 -6 133 C-10.04247784 136.95060334 -13.83720969 138.97537635 -19 141 C-20.41934142 142.19190201 -20.41934142 142.19190201 -20.125 145.625 C-20.10967488 148.48058056 -19.8429065 150.84259243 -19.3125 153.6875 C-19 157 -19 157 -20.125 159.75 C-22.19683855 162.23620626 -24.16683074 163.47444732 -27 165 C-27.66 165.66 -28.32 166.32 -29 167 C-28.58984222 171.65624995 -28.58984222 171.65624995 -27 176 C-26.45964854 180.05263598 -26.65800605 181.53730231 -29.125 184.875 C-32.46269769 187.34199395 -33.94736402 187.54035146 -38 187 C-38.66 186.67 -39.32 186.34 -40 186 C-44.56153006 185.51354082 -44.56153006 185.51354082 -48.66796875 187.12109375 C-50.55095282 189.77715046 -50.57037173 192.0916133 -50.875 195.3125 C-51.67605663 201.27077242 -52.56643072 203.97885577 -57 208 C-57.928125 208.61875 -58.85625 209.2375 -59.8125 209.875 C-62.26202788 212.25454137 -62.37387217 212.74470076 -62.5 216 C-62.28751981 219.5988832 -61.24807695 221.18990381 -59 224 C-58.5 226.9375 -58.5 226.9375 -59 230 C-61.45594125 233.32274404 -62.9256644 234.77618008 -67 235.625 C-71.0743356 234.77618008 -72.54405875 233.32274404 -75 230 C-75.5 226.9375 -75.5 226.9375 -75 224 C-74.2575 223.071875 -74.2575 223.071875 -73.5 222.125 C-71.65046513 219.5048256 -71.28023527 217.27441795 -71.375 214.08203125 C-72.4405115 210.53254607 -75.18474409 208.866094 -78.01953125 206.6484375 C-81.79059246 203.50960549 -82.85524608 200.32691098 -83.375 195.5625 C-82.77343595 189.84764148 -81.30213437 186.24551983 -77.125 182.25 C-74 180 -74 180 -71.1875 178.625 C-68.70346431 177.08752831 -68.70346431 177.08752831 -67.8125 173.8125 C-68.04455154 169.09411875 -69.55050314 167.29011263 -72.5546875 163.796875 C-75.6202314 159.98565825 -75.26568953 155.65385205 -75 151 C-74.731875 149.783125 -74.46375 148.56625 -74.1875 147.3125 C-73.63831922 143.88616363 -73.63831922 143.88616363 -76 141.3125 C-78.95968493 138.88925893 -78.95968493 138.88925893 -82.5 137.1875 C-86.82235171 134.8324331 -89.15140103 131.51879749 -91 127 C-92.32966846 120.23768613 -89.65791645 115.48687468 -86 110 C-85.41630557 106.58461856 -85.41630557 106.58461856 -86 103 C-86.825 102.2575 -87.65 101.515 -88.5 100.75 C-91.94696699 96.95833631 -91.40458878 94.17924874 -91.17578125 89.23046875 C-91.11777344 88.49441406 -91.05976562 87.75835937 -91 87 C-88.98177083 86.57682292 -86.96354167 86.15364583 -84.9453125 85.73046875 C-82.62953451 85.07691162 -82.62953451 85.07691162 -81 82 C-80.4161804 79.0850745 -80.4161804 79.0850745 -81 76 C-83.22877725 73.35426499 -83.22877725 73.35426499 -86 71 C-90.39291314 65.99696003 -91.38101727 62.73278633 -91.28125 56.0234375 C-90.66260942 51.57266225 -87.82987665 48.78501845 -84.6875 45.8125 C-81.55375621 43.69904489 -78.50133402 42.41400028 -75 41 C-73.58816215 39.81545428 -73.58816215 39.81545428 -73.875 36.4375 C-73.8803665 33.4429926 -74.2274589 30.74327731 -74.8125 27.8125 C-75 24 -75 24 -73.125 21.1875 C-70.19216657 19.1345166 -68.72286598 18.61117391 -65.375 17.8125 C-62.99627304 17.24201622 -62.99627304 17.24201622 -61 16 C-59.77711898 13.45485188 -59.21399324 11.15216632 -58.73046875 8.375 C-58 6 -58 6 -56.30078125 4.1875 C-53.28586469 2.63141404 -51.36078719 2.63228028 -48 3 C-45.4296875 4.0234375 -45.4296875 4.0234375 -42.875 5.375 C-33.76697736 9.73154741 -21.93147129 11.91914617 -11.93359375 9.5 C-7.71849085 7.89771466 -4.97010438 5.30954488 -2 2 C-1.34 1.34 -0.68 0.68 0 0 Z " fill="#929899" transform="translate(123,37)"/>
<path d="M0 0 C0.76691162 0.32323242 1.53382324 0.64646484 2.32397461 0.97949219 C3.36046143 1.41422852 4.39694824 1.84896484 5.46484375 2.296875 C7.11009033 2.98813477 7.11009033 2.98813477 8.78857422 3.69335938 C11.36564161 4.74189706 13.93543025 5.68077534 16.56640625 6.578125 C21.04341395 8.32655178 24.99972758 10.127903 28 14 C31.53721449 23.77183584 31.00487852 34.74385594 31 45 C22.50478716 47.71919688 14.00275567 50.05638636 5.3125 52.05859375 C2.96204508 52.61441248 0.6117901 53.17107731 -1.73828125 53.72851562 C-5.38795018 54.59023616 -9.03858447 55.44638979 -12.69287109 56.28833008 C-16.25763221 57.11215535 -19.81643896 57.95844304 -23.375 58.80859375 C-24.46772217 59.05459824 -25.56044434 59.30060272 -26.6862793 59.55406189 C-32.49961795 60.96340574 -36.20784514 62.08783234 -40 67 C-40.65629395 67.80775879 -41.31258789 68.61551758 -41.98876953 69.44775391 C-42.9263208 70.69951416 -42.9263208 70.69951416 -43.8828125 71.9765625 C-44.57503906 72.894375 -45.26726562 73.8121875 -45.98046875 74.7578125 C-46.68816406 75.70398438 -47.39585937 76.65015625 -48.125 77.625 C-49.54218836 79.51458448 -50.9613767 81.40267107 -52.3828125 83.2890625 C-53.31697998 84.53743896 -53.31697998 84.53743896 -54.27001953 85.81103516 C-55.75664496 87.69207998 -57.29166856 89.32687722 -59 91 C-59.68380737 90.65143448 -60.36761475 90.30286896 -61.07214355 89.94374084 C-67.53866316 86.65020209 -74.01096945 83.36845593 -80.4899826 80.09957218 C-83.82017406 78.41886528 -87.14799938 76.73379827 -90.47070312 75.03833008 C-93.68141912 73.40021529 -96.89797043 71.77412761 -100.11878967 70.15597343 C-101.34241392 69.53864693 -102.56392957 68.91712125 -103.78318787 68.2912159 C-112.94481829 63.5142708 -112.94481829 63.5142708 -123 62 C-125.2938588 63.64714783 -126.35774775 64.78750444 -128 67 C-128.58362305 67.73395996 -129.16724609 68.46791992 -129.76855469 69.22412109 C-131.8389812 71.8533886 -133.86013828 74.51545442 -135.875 77.1875 C-136.55691406 78.08275391 -137.23882812 78.97800781 -137.94140625 79.90039062 C-139.30444588 81.6983048 -140.65709504 83.50414548 -141.99902344 85.31787109 C-143.33595334 87.10990524 -144.70434635 88.878879 -146.10253906 90.62353516 C-146.7519043 91.46577637 -147.40126953 92.30801758 -148.0703125 93.17578125 C-148.65828613 93.91352783 -149.24625977 94.65127441 -149.85205078 95.41137695 C-151.89575265 100.01992032 -150.75533144 103.99786945 -149.04992676 108.51832581 C-147.79248394 111.40592545 -146.45347072 114.23886686 -145.07421875 117.0703125 C-144.5713887 118.11017303 -144.06855865 119.15003357 -143.55049133 120.22140503 C-142.4836957 122.41148696 -141.40999535 124.59821745 -140.32983398 126.78173828 C-138.69701292 130.10563477 -137.11719398 133.45156314 -135.53710938 136.80078125 C-134.49016456 138.93385806 -133.44013225 141.06542281 -132.38671875 143.1953125 C-131.92682053 144.18918976 -131.4669223 145.18306702 -130.99308777 146.20706177 C-126.98838594 154.06508743 -122.05203319 156.79792277 -114 160 C-112.59640244 160.62274919 -111.19359135 161.24727776 -109.79199219 161.87451172 C-108.54538541 162.39713527 -107.29701377 162.91556992 -106.046875 163.4296875 C-105.37577698 163.7097464 -104.70467896 163.9898053 -104.01324463 164.27835083 C-101.92712375 165.14787792 -99.83864992 166.01156834 -97.75 166.875 C-96.31103538 167.47356773 -94.87223226 168.0725239 -93.43359375 168.671875 C-89.95756815 170.11905191 -86.47942274 171.56101108 -83 173 C-83 173.66 -83 174.32 -83 175 C-83.60658447 175.32572998 -84.21316895 175.65145996 -84.83813477 175.98706055 C-97.32289172 182.69953468 -109.75345047 189.49247178 -122.07055664 196.50854492 C-123.82618683 197.50806678 -125.58467052 198.50259584 -127.34619141 199.49169922 C-129.21168546 200.55195886 -131.06180137 201.63951229 -132.89990234 202.74658203 C-134.33197021 203.58552002 -134.33197021 203.58552002 -135.79296875 204.44140625 C-136.64785889 204.95517822 -137.50274902 205.4689502 -138.38354492 205.99829102 C-141.66663668 207.25522164 -143.62072929 206.79474798 -147 206 C-148.85192914 205.88955208 -150.70732718 205.82569469 -152.5625 205.8125 C-153.47128906 205.79832031 -154.38007813 205.78414062 -155.31640625 205.76953125 C-158.04269184 205.87126984 -158.04269184 205.87126984 -160.5625 207.03515625 C-164.02935016 208.4074511 -166.27215456 207.92016973 -169.8125 207.0234375 C-173.10307426 205.48391883 -174.39606403 203.08181503 -176.3359375 200.1015625 C-179.84987134 195.66377751 -185.38034379 192.88465828 -190.68359375 191.09375 C-193.55258943 189.73908088 -193.93686233 188.80885106 -195 185.875 C-196.85743502 181.17812538 -199.23543561 177.22364003 -202 173 C-196.06 173 -190.12 173 -184 173 C-184 170.36 -184 167.72 -184 165 C-183.030625 164.566875 -182.06125 164.13375 -181.0625 163.6875 C-177.72268235 162.2985139 -177.72268235 162.2985139 -177 159 C-176.94374169 156.96428251 -176.89083315 154.92837081 -176.86132812 152.89208984 C-176.67918506 143.73575803 -175.9438732 127.9438732 -169 121 C-168.45553332 117.66514156 -168.22172695 115.1377694 -170.19555664 112.25219727 C-175.6019615 106.32648353 -181.24057505 100.64563618 -186.9375 95 C-187.9175531 94.02497614 -188.8973724 93.0497172 -189.87695312 92.07421875 C-192.24902313 89.71383382 -194.6234086 87.35583095 -197 85 C-195.10632912 78.6362544 -192.64502328 72.95946691 -189.375 67.1875 C-188.93406006 66.40487793 -188.49312012 65.62225586 -188.03881836 64.81591797 C-181.03082179 52.60746827 -171.72051544 39.114203 -160 31 C-159.3035138 31.81232118 -158.60702761 32.62464235 -157.88943577 33.46157932 C-154.48993787 36.44809865 -153.20926392 36.62293193 -148.76902771 36.61473083 C-147.51422607 36.62449448 -146.25942444 36.63425812 -144.96659851 36.64431763 C-143.58376564 36.62981309 -142.2009379 36.61481236 -140.81811523 36.59936523 C-139.35590193 36.60122987 -137.89369003 36.60526774 -136.43148804 36.61131287 C-132.46649287 36.62128334 -128.50221315 36.60012538 -124.53732181 36.57283282 C-120.38720509 36.54899244 -116.23710231 36.55194769 -112.08692932 36.55152893 C-105.11878353 36.54690183 -98.1509111 36.52326567 -91.18286133 36.48706055 C-83.12631649 36.44531122 -75.07001773 36.42774468 -67.01337093 36.4244408 C-58.43543705 36.42084134 -49.85759172 36.40196773 -41.2796948 36.37732053 C-38.80789164 36.37109198 -36.33609522 36.36745563 -33.86428642 36.36428642 C-29.98103416 36.35838542 -26.09795768 36.34207125 -22.2147789 36.31768227 C-20.78935543 36.31024246 -19.36390983 36.30617034 -17.93846703 36.30570221 C-15.99361288 36.30444425 -14.04878148 36.28964974 -12.10398865 36.27415466 C-11.01539268 36.26950416 -9.9267967 36.26485365 -8.80521297 36.26006222 C-5.97779489 35.99794144 -4.32231985 35.6168718 -2 34 C-0.83597273 30.50791819 -0.78881492 27.60852228 -0.68359375 23.92578125 C-0.6524221 22.90003242 -0.6524221 22.90003242 -0.62062073 21.8535614 C-0.55533846 19.6733079 -0.49633983 17.49293595 -0.4375 15.3125 C-0.39429447 13.83267014 -0.35067953 12.35285217 -0.30664062 10.87304688 C-0.19967917 7.24882378 -0.09835177 3.62446811 0 0 Z " fill="#C2F036" transform="translate(312,187)"/>
<path d="M0 0 C3.22194811 1.54410343 5.65146502 2.94834002 8.1953125 5.4921875 C12.12453654 7.9926028 15.51146725 7.34838232 20.0703125 7.203125 C23.78037484 7.25353346 25.92480529 8.10573118 28.9453125 10.2421875 C29.6465625 11.1290625 30.3478125 12.0159375 31.0703125 12.9296875 C35.09708652 16.16861443 38.28280427 15.59255786 43.30078125 15.3203125 C45.9453125 15.2421875 45.9453125 15.2421875 47.9453125 16.2421875 C52.09034911 16.49005767 52.09034911 16.49005767 55.9453125 15.2421875 C59.99794848 14.70183604 61.48261481 14.90019355 64.8203125 17.3671875 C66.9453125 20.2421875 66.9453125 20.2421875 67.5703125 23.2421875 C66.72149258 27.3165231 65.26805654 28.78624625 61.9453125 31.2421875 C58.74178951 31.61907256 56.83392959 31.68649605 53.9453125 30.2421875 C50.56470133 29.87472976 48.62885301 29.8244683 45.6953125 31.6171875 C43.83473619 34.40805196 43.52681372 36.04307431 43.0078125 39.3046875 C42.20799044 43.97950956 42.20799044 43.97950956 39.7578125 46.4296875 C36.00708616 47.51323067 33.69444817 47.33284515 29.9453125 46.2421875 C27.6328125 43.7421875 27.6328125 43.7421875 25.9453125 41.2421875 C22.80660062 39.67283156 20.40675428 39.89017647 16.9453125 40.2421875 C13.78490595 41.72848802 13.78490595 41.72848802 11.9453125 45.2421875 C11.4758748 48.76731688 11.31223919 52.24824513 11.1640625 55.80078125 C10.69606334 63.16341087 7.98575752 68.12807438 2.953125 73.4765625 C-2.75622634 78.49723722 -8.91404647 79.95209059 -16.41796875 79.6171875 C-23.8359605 78.56218423 -27.95794304 74.77965677 -32.51171875 69.046875 C-34.11592786 67.00495383 -34.11592786 67.00495383 -37.0546875 65.2421875 C-40.4650851 65.02903765 -42.80000549 65.1572935 -46.0546875 66.2421875 C-46.75406282 67.55865869 -47.42197883 68.89240901 -48.0546875 70.2421875 C-50.86384224 71.64676487 -52.94279284 71.49113907 -56.0546875 71.2421875 C-58.75121025 69.70346541 -59.85817111 68.76481945 -60.9609375 65.83203125 C-61.357326 64.0613221 -61.75315782 62.29048825 -62.1484375 60.51953125 C-62.85448408 58.13163285 -62.85448408 58.13163285 -64.875 56.98828125 C-67.06494272 56.2386772 -69.1498262 55.75916365 -71.4296875 55.3671875 C-75.71342546 54.49782006 -78.41851897 52.66629986 -82.0546875 50.2421875 C-86.03379225 49.57900337 -87.48517678 49.84094131 -90.8046875 52.1796875 C-96.47286193 55.7767982 -102.44112253 55.58088558 -108.9296875 54.5546875 C-112.40859504 54.03596016 -112.40859504 54.03596016 -115.4296875 55.9296875 C-117.06240167 58.17675991 -117.06240167 58.17675991 -118.3046875 60.4296875 C-120.70226653 62.91289436 -122.7423882 63.09238534 -126.1171875 63.328125 C-128.0546875 63.2421875 -128.0546875 63.2421875 -130.4921875 62.3046875 C-132.86939108 59.16677878 -133.48986484 56.15114883 -133.0546875 52.2421875 C-129.82765124 47.60332288 -126.44045329 46.46160617 -121.0546875 45.2421875 C-120.0646875 44.7471875 -120.0646875 44.7471875 -119.0546875 44.2421875 C-118.57367279 42.38265504 -118.16966988 40.50292979 -117.8046875 38.6171875 C-116.4655453 32.90713956 -114.63474647 28.98238235 -110.0546875 25.2421875 C-105.80354085 22.70354729 -101.89658882 22.4429634 -97.0546875 23.2421875 C-94.62820171 24.38758457 -92.40040467 25.72210804 -90.10546875 27.109375 C-87.10978777 28.76413211 -85.41102596 28.94142468 -82.0546875 28.2421875 C-80.66372533 27.45732732 -79.29030352 26.64105183 -77.9296875 25.8046875 C-74.09678906 23.45341367 -71.58976 23.05403179 -67.1171875 23.1171875 C-63.01817338 22.96633546 -61.50388436 22.63819 -58.3828125 19.88671875 C-56.70657192 17.91635521 -55.05141329 15.92785952 -53.41796875 13.921875 C-49.43343043 9.40386956 -45.32164867 7.55650155 -39.375 6.984375 C-35.61645298 6.90811463 -32.63765037 7.04786654 -29.0546875 8.2421875 C-23.64716052 9.00558688 -23.64716052 9.00558688 -18.89453125 6.75 C-17.53489249 5.52505442 -16.20543745 4.26546121 -14.9140625 2.96875 C-10.55780859 -1.07634291 -5.71460905 -2.1076695 0 0 Z " fill="#919798" transform="translate(413.0546875,384.7578125)"/>
<path d="M0 0 C1.96353208 0.01153299 3.92707531 0.02130568 5.890625 0.02929688 C7.75261625 0.04268395 9.61459732 0.05759647 11.4765625 0.07421875 C12.34407135 0.08160568 13.2115802 0.08899261 14.1053772 0.09660339 C20.13769937 0.19384969 20.13769937 0.19384969 22.375 1.3125 C22.61328125 3.46484375 22.61328125 3.46484375 22.6875 6.25 C23.1274093 12.50648781 25.30169047 16.94138895 28.375 22.3125 C28.70628906 23.04210937 29.03757812 23.77171875 29.37890625 24.5234375 C30.81679066 27.10599067 32.63821109 27.42304361 35.375 28.3125 C36.035 28.6425 36.695 28.9725 37.375 29.3125 C41.04829964 29.44607453 43.87352959 29.4796568 47.375 28.3125 C53.14833084 27.74648717 57.72412368 28.84839901 62.375 32.3125 C63.73046875 34.140625 63.73046875 34.140625 64.375 36.3125 C63.5234375 38.70703125 63.5234375 38.70703125 62.375 41.3125 C61.27758325 50.33428651 62.76344725 57.90498487 67.8125 65.46484375 C72.79354491 71.70312356 79.78237363 76.78162454 87.375 79.3125 C89.76990986 79.38220052 92.16667691 79.39698003 94.5625 79.375 C95.83480469 79.36597656 97.10710937 79.35695313 98.41796875 79.34765625 C99.39378906 79.33605469 100.36960937 79.32445313 101.375 79.3125 C101.47296875 79.88097656 101.5709375 80.44945313 101.671875 81.03515625 C103.30697879 89.47849392 106.05306037 95.24346487 113.375 100.3125 C116.01478222 101.49897251 118.61699319 102.40901501 121.375 103.3125 C120.74172134 105.89696155 120.04988951 108.44082466 119.3125 111 C117.19882603 119.74512437 118.17904588 127.2928135 122.375 135.3125 C127.89212078 143.06957182 134.34285605 148.30178535 143.375 151.3125 C145.81304 151.15392829 148.25048087 150.98605626 150.6875 150.8125 C157.53741646 150.57760869 157.53741646 150.57760869 160.4140625 153.1015625 C161.8125 155.4375 161.8125 155.4375 163.03515625 157.91015625 C165.21181104 161.81290463 168.68713796 163.92568574 172.375 166.3125 C172.705 165.3225 173.035 164.3325 173.375 163.3125 C173.72053378 169.07139634 173.74202695 173.37419381 170.375 178.3125 C167.50430395 181.27969004 164.61618099 183.92693809 160.375 184.3125 C159.281875 184.415625 158.18875 184.51875 157.0625 184.625 C152.71134402 184.25625797 149.65785702 183.13984097 146.375 180.3125 C144.91013377 178.38046022 143.69111673 176.43169636 142.515625 174.3125 C142.13921875 173.6525 141.7628125 172.9925 141.375 172.3125 C141.02308594 171.57 140.67117188 170.8275 140.30859375 170.0625 C137.53947648 167.55630902 135.37181611 168.018092 131.74804688 168.15625 C130.060474 168.25922928 128.37297143 168.36336829 126.68554688 168.46875 C119.33178716 168.7469064 114.47134888 167.01566172 108.9140625 162.1640625 C102.87392128 155.13777577 100.96754816 150.20880151 101.10546875 140.91796875 C101.45019296 137.58563472 102.80974272 135.24735741 104.375 132.3125 C104.80353632 129.45559118 104.66325779 127.24312082 104.375 124.3125 C102.40537756 121.78012829 100.58889171 120.85675902 97.5625 119.9375 C92.61730025 118.18892108 88.80501415 115.81502477 86.125 111.125 C85.19171736 107.62519009 84.58780771 104.09835185 84.03515625 100.51953125 C83.52225136 97.94975031 83.52225136 97.94975031 80.375 96.3125 C77.62019809 96.27211547 74.93496363 96.32271655 72.1875 96.4375 C64.10259434 96.57198059 59.22196676 95.95226927 53.19921875 90.25390625 C46.70081653 83.40923038 45.1621731 78.30175848 45.109375 68.99609375 C45.39518125 66.10861006 46.26618743 63.9771563 47.375 61.3125 C47.43900474 57.7922393 47.284971 55.4121551 44.98828125 52.63671875 C38.88050633 47.10540798 32.97098338 44.95260909 24.7890625 45.11328125 C22.14392175 45.26274193 22.14392175 45.26274193 18.75 46.25 C14.15164385 46.33515474 12.69579474 44.58943354 9.4765625 41.48828125 C8.02937784 39.98998783 6.58693449 38.48710508 5.1484375 36.98046875 C-1.93415858 29.64231508 -8.34867557 25.23333355 -18.89648438 25.02929688 C-19.69376953 25.01962891 -20.49105469 25.00996094 -21.3125 25 C-22.47942383 24.95649414 -22.47942383 24.95649414 -23.66992188 24.91210938 C-30.93906673 24.83329463 -35.81659019 26.9540786 -41.35546875 31.60546875 C-44.00345723 34.76391284 -45.97742009 38.01354347 -47.9375 41.625 C-48.29650391 42.27017578 -48.65550781 42.91535156 -49.02539062 43.58007812 C-49.89945475 45.15339355 -50.76330783 46.73237465 -51.625 48.3125 C-55.585 48.3125 -59.545 48.3125 -63.625 48.3125 C-66.38831234 40.02256299 -65.79816193 29.52642889 -62.0625 21.6875 C-59.20449758 16.80619212 -56.0942937 12.7906951 -51.625 9.3125 C-51.05007812 8.85359375 -50.47515625 8.3946875 -49.8828125 7.921875 C-36.03617801 -1.30921466 -15.87317218 -0.24572735 0 0 Z " fill="#646A75" transform="translate(298.625,31.6875)"/>
<path d="M0 0 C1.010625 0.66 2.02125 1.32 3.0625 2 C3.63097656 2.37125 4.19945312 2.7425 4.78515625 3.125 C6.81448013 6.25707544 5.69824436 9.5324952 5 13 C4.47953069 15.35424717 3.95867319 17.70840855 3.4375 20.0625 C-3.26630595 55.17150907 4.62481502 93.13812753 22 124 C22.34643555 124.63196289 22.69287109 125.26392578 23.04980469 125.91503906 C28.37700816 135.58003859 34.68661684 143.7669035 42 152 C42.90488122 153.07882236 43.80600197 154.16081131 44.703125 155.24609375 C46.87931925 157.93939861 46.87931925 157.93939861 49 160 C44.99166256 162.31830892 40.97165994 164.61432831 36.93945312 166.89086914 C35.57049468 167.66778867 34.20487184 168.45061723 32.84277344 169.23950195 C30.88029648 170.37473041 28.90666858 171.48792583 26.9296875 172.59765625 C26.32631561 172.952798 25.72294373 173.30793976 25.10128784 173.67384338 C20.96709746 175.95709601 18.53376466 176.19528357 14 175 C12.14807086 174.88955208 10.29267282 174.82569469 8.4375 174.8125 C7.52871094 174.79832031 6.61992187 174.78414062 5.68359375 174.76953125 C2.95730816 174.87126984 2.95730816 174.87126984 0.4375 176.03515625 C-3.02935016 177.4074511 -5.27215456 176.92016973 -8.8125 176.0234375 C-12.10307426 174.48391883 -13.39606403 172.08181503 -15.3359375 169.1015625 C-18.84987134 164.66377751 -24.38034379 161.88465828 -29.68359375 160.09375 C-32.55258943 158.73908088 -32.93686233 157.80885106 -34 154.875 C-35.85743502 150.17812538 -38.23543561 146.22364003 -41 142 C-35.06 142 -29.12 142 -23 142 C-23 139.36 -23 136.72 -23 134 C-22.030625 133.566875 -21.06125 133.13375 -20.0625 132.6875 C-16.72268235 131.2985139 -16.72268235 131.2985139 -16 128 C-15.94374169 125.96428251 -15.89083315 123.92837081 -15.86132812 121.89208984 C-15.67918506 112.73575803 -14.9438732 96.9438732 -8 90 C-7.45553332 86.66514156 -7.22172695 84.1377694 -9.19555664 81.25219727 C-14.6019615 75.32648353 -20.24057505 69.64563618 -25.9375 64 C-26.9175531 63.02497614 -27.8973724 62.0497172 -28.87695312 61.07421875 C-31.24902313 58.71383382 -33.6234086 56.35583095 -36 54 C-34.10632912 47.6362544 -31.64502328 41.95946691 -28.375 36.1875 C-27.93406006 35.40487793 -27.49312012 34.62225586 -27.03881836 33.81591797 C-19.76635558 21.14674853 -10.39174389 10.21969515 0 0 Z " fill="#A0D41C" transform="translate(151,218)"/>
<path d="M0 0 C24.12322055 -1.08293785 24.12322055 -1.08293785 34.58398438 -1.31835938 C41.6654564 -1.47849772 48.73732147 -1.66556236 55.8112793 -2.03686523 C99.67655066 -4.2772237 99.67655066 -4.2772237 114.21916199 8.75395203 C115.41263786 9.92085133 116.5939275 11.10036561 117.76171875 12.29296875 C118.31943277 12.84594446 118.8771468 13.39892017 119.45176125 13.96865273 C129.61054591 24.51089747 128 32.1863503 128 48 C85.76 48 43.52 48 0 48 C0 32.16 0 16.32 0 0 Z " fill="#FBBB04" transform="translate(168,160)"/>
<path d="M0 0 C0.66 2.97 1.32 5.94 2 9 C0.824375 9.495 -0.35125 9.99 -1.5625 10.5 C-7.21281535 13.32013963 -11.39254353 17.72078881 -14.171875 23.390625 C-16.09863657 29.46174166 -16.06870026 36.54987319 -13.375 42.375 C-11.15247235 46.1964684 -8.25704863 49.0390467 -5 52 C-5.495 53.175625 -5.495 53.175625 -6 54.375 C-7.67498501 60.44682066 -7.8054948 66.16937297 -5.5 72.0625 C-5 76 -5 76 -6.578125 78.3203125 C-7.99802295 79.86789911 -9.46645903 81.37264526 -10.984375 82.82421875 C-15.07725035 87.24230319 -15.39197547 91.6615312 -15.24609375 97.4453125 C-14.55226743 104.64789045 -11.32041679 110.15768518 -6 115 C-3.71908602 116.55267036 -1.47727726 117.76136137 1 119 C0.95359375 119.82242188 0.9071875 120.64484375 0.859375 121.4921875 C0.60689299 129.30109524 1.48245083 135.02909052 5 142 C5.37382813 142.75152344 5.74765625 143.50304687 6.1328125 144.27734375 C6.41898438 144.84582031 6.70515625 145.41429687 7 146 C6.48050781 146.35191406 5.96101563 146.70382813 5.42578125 147.06640625 C-0.30245517 151.12170116 -4.71664906 155.14994718 -7 162 C-7.82075201 169.33294828 -6.55289577 175.52398598 -3 182 C-2.46890625 182.48082031 -1.9378125 182.96164063 -1.390625 183.45703125 C1.13468479 186.25899014 0.45727717 189.6245471 0.34375 193.21484375 C-0.25824888 198.09240282 -1.99484398 201.37698292 -5.82421875 204.4765625 C-6.45972656 204.95867187 -7.09523437 205.44078125 -7.75 205.9375 C-9.81872888 207.59337097 -10.84510629 208.43823758 -11.5546875 211.01171875 C-11.70161155 215.42760272 -10.66150671 217.67311661 -8 221 C-7.5 223.9375 -7.5 223.9375 -8 227 C-10.45594125 230.32274404 -11.9256644 231.77618008 -16 232.625 C-20.0743356 231.77618008 -21.54405875 230.32274404 -24 227 C-24.5 223.9375 -24.5 223.9375 -24 221 C-23.2575 220.071875 -23.2575 220.071875 -22.5 219.125 C-20.65046513 216.5048256 -20.28023527 214.27441795 -20.375 211.08203125 C-21.4405115 207.53254607 -24.18474409 205.866094 -27.01953125 203.6484375 C-30.79059246 200.50960549 -31.85524608 197.32691098 -32.375 192.5625 C-31.77343595 186.84764148 -30.30213437 183.24551983 -26.125 179.25 C-23 177 -23 177 -20.1875 175.625 C-17.70346431 174.08752831 -17.70346431 174.08752831 -16.8125 170.8125 C-17.04455154 166.09411875 -18.55050314 164.29011263 -21.5546875 160.796875 C-24.6202314 156.98565825 -24.26568953 152.65385205 -24 148 C-23.731875 146.783125 -23.46375 145.56625 -23.1875 144.3125 C-22.63831922 140.88616363 -22.63831922 140.88616363 -25 138.3125 C-27.95968493 135.88925893 -27.95968493 135.88925893 -31.5 134.1875 C-35.82235171 131.8324331 -38.15140103 128.51879749 -40 124 C-41.32966846 117.23768613 -38.65791645 112.48687468 -35 107 C-34.41630557 103.58461856 -34.41630557 103.58461856 -35 100 C-35.825 99.2575 -36.65 98.515 -37.5 97.75 C-40.94696699 93.95833631 -40.40458878 91.17924874 -40.17578125 86.23046875 C-40.11777344 85.49441406 -40.05976562 84.75835937 -40 84 C-37.98177083 83.57682292 -35.96354167 83.15364583 -33.9453125 82.73046875 C-31.62953451 82.07691162 -31.62953451 82.07691162 -30 79 C-29.4161804 76.0850745 -29.4161804 76.0850745 -30 73 C-32.22877725 70.35426499 -32.22877725 70.35426499 -35 68 C-39.39291314 62.99696003 -40.38101727 59.73278633 -40.28125 53.0234375 C-39.66260942 48.57266225 -36.82987665 45.78501845 -33.6875 42.8125 C-30.55375621 40.69904489 -27.50133402 39.41400028 -24 38 C-22.58816215 36.81545428 -22.58816215 36.81545428 -22.875 33.4375 C-22.8803665 30.4429926 -23.2274589 27.74327731 -23.8125 24.8125 C-24 21 -24 21 -22.125 18.1875 C-19.19216657 16.1345166 -17.72286598 15.61117391 -14.375 14.8125 C-11.99627304 14.24201622 -11.99627304 14.24201622 -10 13 C-8.77711898 10.45485188 -8.21399324 8.15216632 -7.73046875 5.375 C-6.46706321 1.26724296 -4.18206142 0 0 0 Z " fill="#646A75" transform="translate(72,40)"/>
<path d="M0 0 C2.52829612 1.21773226 4.71773465 2.48337231 7.0625 4.0625 C12.48153644 7.63675807 17.68087261 7.63191274 24 7 C27.48046528 5.94293561 30.73067185 4.58856726 34 3 C35.0209375 4.0828125 35.0209375 4.0828125 36.0625 5.1875 C42.53095926 11.61941429 48.89428535 15.27793455 58.25 15.3125 C64.26033811 15.23659447 69.3982721 14.12435731 75 12 C75.53293098 24.27715072 74.06233143 36.09735331 71 48 C70.31035156 48.02578125 69.62070312 48.0515625 68.91015625 48.078125 C60.92249396 48.56023356 54.63131059 50.17851293 48.25 55.13671875 C44.26765708 57.41986487 41.23231719 57.29882412 36.8125 57 C25.63287361 56.64192512 16.70840747 59.80770593 8 67 C7.38125 67.9075 6.7625 68.815 6.125 69.75 C3.09154366 72.96189495 0.03262404 73.00143423 -4.24609375 73.54296875 C-7.06347063 74.01053342 -9.39431051 74.85084837 -12 76 C-11.38169051 70.97525707 -9.87023224 66.75279506 -7.9375 62.125 C-7.65583984 61.43664062 -7.37417969 60.74828125 -7.08398438 60.0390625 C-6.39484734 58.35710091 -5.69819202 56.67822303 -5 55 C-5.66 55 -6.32 55 -7 55 C-6.84660156 54.3709375 -6.69320313 53.741875 -6.53515625 53.09375 C-5.57166941 47.89545759 -5.57166941 47.89545759 -7.0703125 42.9765625 C-8.93657834 40.83982335 -10.92315696 38.9343146 -13 37 C-14.05112753 35.94955062 -15.09769076 34.89452201 -16.140625 33.8359375 C-19.07009092 30.86605617 -22.02839132 27.92769328 -25 25 C-23.52053141 21.45560466 -21.57759273 19.49749421 -18.6875 17 C-17.80707031 16.22785156 -16.92664063 15.45570313 -16.01953125 14.66015625 C-15.5395166 14.24008301 -15.05950195 13.82000977 -14.56494141 13.38720703 C-11.62678078 10.78274078 -8.7546697 8.10624982 -5.875 5.4375 C-5.29451904 4.90060547 -4.71403809 4.36371094 -4.1159668 3.81054688 C-2.74341513 2.54097269 -1.37162239 1.2705781 0 0 Z " fill="#C2F036" transform="translate(341,320)"/>
<path d="M0 0 C4.40561162 2.20280581 7.45481942 4.78728732 10 9 C10.85565154 12.10277525 11.56468937 15.19852846 12.19140625 18.35546875 C12.79221903 21.31900263 12.79221903 21.31900263 16 23 C17.4262889 23.34230933 18.86627848 23.63021639 20.3125 23.875 C24.67617747 24.81410858 27.56255962 26.020885 31 29 C31.91773971 30.50771523 32.81178296 32.02999517 33.6875 33.5625 C36.18252329 37.61691285 38.07665709 38.74048997 42.6875 39.875 C43.61949219 40.03742188 44.55148438 40.19984375 45.51171875 40.3671875 C48.29640902 41.07538189 49.07847801 41.96384176 51 44 C55.34125236 44.57337295 57.31361351 44.48193094 60.9375 41.9375 C64.06778821 39.95711358 64.71307974 39.7020114 68.1875 40 C72 41 72 41 74.0625 42.5625 C75.46523464 46.20961005 75.26515813 49.31386026 74 53 C71.875 55.0625 71.875 55.0625 69 56 C65.375 55.875 65.375 55.875 62 55 C61.525625 54.484375 61.05125 53.96875 60.5625 53.4375 C58.20286794 51.2666385 55.95107988 51.59226355 52.84375 51.69921875 C50.40379476 52.0972623 49.68511537 53.24467149 48 55 C41.04270109 56.57100298 41.04270109 56.57100298 37.375 54.5625 C36.199375 53.7890625 36.199375 53.7890625 35 53 C31.31065329 52.52901957 29.48671661 52.74041781 26.1875 54.5 C20.8776902 56.99873402 15.84730908 56.36340506 10.1875 55.25 C6.95899032 54.64361896 6.95899032 54.64361896 4.75 56.6875 C2.98641155 58.91518357 2.98641155 58.91518357 1.75 61.1875 C-0.63687616 63.65962173 -2.63988426 63.96296686 -6.0078125 64.234375 C-9.47440751 63.82654029 -10.90754331 61.61557086 -13 59 C-15.84792205 55.55733479 -15.84792205 55.55733479 -20.125 54.6875 C-22.93939173 54.82471926 -22.93939173 54.82471926 -25 56 C-29.65048294 56.56735892 -33.09730577 56.4598631 -37.3125 54.3125 C-41.44673697 50.7551333 -44.58789927 47.54676857 -45.23828125 41.94921875 C-45.46172897 35.13994335 -43.61558833 31.86079973 -39 26.8125 C-35.06019821 24.43220308 -31.1424777 23.74926832 -26.64453125 22.90625 C-23.91795734 22.25626954 -23.91795734 22.25626954 -22.68359375 20.17578125 C-22.00102044 18.00324793 -21.5858104 15.93822924 -21.25 13.6875 C-20.20505916 8.66183217 -17.865894 5.33872663 -14 2 C-9.55962893 -0.7431218 -5.07061393 -0.64987299 0 0 Z " fill="#919798" transform="translate(93,368)"/>
<path d="M0 0 C5.2987629 2.90511325 7.82856998 7.1971914 10.8125 12.3125 C11.97497951 13.70179654 11.97497951 13.70179654 15.1875 13.4375 C18.76572972 13.48550461 18.76572972 13.48550461 21.8125 12.3125 C22.1425 10.6625 22.4725 9.0125 22.8125 7.3125 C26.14977786 8.48505709 28.58687487 9.50118404 30.8125 12.3125 C30.8125 12.9725 30.8125 13.6325 30.8125 14.3125 C31.8025 14.3125 32.7925 14.3125 33.8125 14.3125 C33.91046875 14.93898438 34.0084375 15.56546875 34.109375 16.2109375 C34.25890625 17.02820313 34.4084375 17.84546875 34.5625 18.6875 C34.77132812 19.90566406 34.77132812 19.90566406 34.984375 21.1484375 C36.04947895 23.93177518 37.19121067 24.09750396 39.8125 25.3125 C40.84941772 28.97627593 41.04528379 31.43956078 40.0625 35.125 C36.87916801 38.2199061 33.77892543 38.06925311 29.48046875 38.6484375 C25.29734727 39.6896244 24.13200469 41.79583159 21.8125 45.3125 C19.22147798 46.60801101 17.62733764 46.17221953 14.75 45.9375 C8.81058672 45.83603828 5.99125114 47.76749667 1.6875 51.68359375 C-1.93823429 54.83345041 -5.58000613 54.61966626 -10.1875 54.3125 C-18.11001178 51.76118265 -20.78007734 46.99962404 -25.1875 40.3125 C-26.91597467 38.58402533 -29.1448335 39.01860507 -31.5 38.9375 C-36.11542875 38.87843273 -36.11542875 38.87843273 -39.6875 41.6875 C-40.1825 42.55375 -40.6775 43.42 -41.1875 44.3125 C-44.70574511 46.65799674 -46.04525694 46.89241403 -50.1875 46.3125 C-52.9375 43.9375 -52.9375 43.9375 -55.1875 41.3125 C-57.57843152 38.92156848 -58.29763946 39.05397076 -61.5625 38.875 C-64.27001583 38.605119 -66.16623879 38.32153602 -68.6875 37.25 C-71.05274823 34.1948877 -71.61911665 31.13751651 -71.1875 27.3125 C-69.125 24.3125 -69.125 24.3125 -66.1875 22.3125 C-62.04525694 21.73258597 -60.70574511 21.96700326 -57.1875 24.3125 C-53.72290765 24.54489871 -53.72290765 24.54489871 -50.1875 23.3125 C-48.62883376 21.64547728 -47.4907712 19.96484826 -46.328125 18.00390625 C-45.1875 16.3125 -45.1875 16.3125 -42.1875 14.3125 C-36.84204545 13.98522727 -36.84204545 13.98522727 -34.1875 15.3125 C-30.14340901 15.70637276 -30.14340901 15.70637276 -26.1875 15.3125 C-24.26978372 13.25911338 -24.26978372 13.25911338 -23.1875 10.3125 C-18.36569616 0.75423398 -10.8980356 -5.04237468 0 0 Z " fill="#919798" transform="translate(407.1875,265.6875)"/>
<path d="M0 0 C11.26492318 -0.63265668 22.52547471 -1.10867118 33.8046999 -1.39892864 C39.04661326 -1.53845536 44.27618665 -1.72652372 49.51098633 -2.03686523 C87.41600969 -4.22611383 87.41600969 -4.22611383 100.93736172 7.71615505 C106.95461467 13.45538437 112.83822503 19.76834175 117 27 C117 28.65 117 30.3 117 32 C105.12 32 93.24 32 81 32 C81.99 30.35 82.98 28.7 84 27 C84.41291057 22.87089433 84.33909307 21.5086396 82 18 C77.56092566 16.52030855 73.2132164 16.73441375 68.5625 16.6875 C67.60794922 16.65849609 66.65339844 16.62949219 65.66992188 16.59960938 C60.17279486 16.47398834 60.17279486 16.47398834 55.3671875 18.8359375 C53.49510482 21.79917694 53.50713171 23.549922 54 27 C54.95929637 28.69042251 55.95470816 30.36135948 57 32 C41.25512528 32.18451025 41.25512528 32.18451025 34 31 C34.495 30.195625 34.495 30.195625 35 29.375 C36.25443192 26.3957242 36.27292239 24.20683803 36 21 C34.27773504 17.75150023 34.27773504 17.75150023 31 17 C29.44269369 16.93246599 27.88291749 16.91478627 26.32421875 16.9296875 C25.41349609 16.919375 24.50277344 16.9090625 23.56445312 16.8984375 C21.65825037 16.88290835 19.75170986 16.89043571 17.84570312 16.921875 C11.13251423 16.78940898 11.13251423 16.78940898 8.13525391 14.70019531 C5.272171 11.58059602 3.51104084 8.11488206 1.83862305 4.24951172 C1.49067184 3.45036346 1.14272064 2.65121521 0.78422546 1.82785034 C0.52543106 1.22465973 0.26663666 0.62146912 0 0 Z " fill="#F8E009" transform="translate(179,160)"/>
<path d="M0 0 C2.75254898 1.0524452 5.33196973 2.17657965 7.9375 3.5625 C11.02287228 5.01073597 13.63234459 5.59908864 17 6 C17.12375 6.58007812 17.2475 7.16015625 17.375 7.7578125 C18.88221287 13.46638123 20.84894014 16.69953292 25.82421875 19.96484375 C29.35914852 21.6466326 32.198487 21.89880734 36 21 C38.14794276 20.08281276 40.13392814 19.06906755 42.140625 17.875 C44 17 44 17 48 17 C49.68997323 18.64302953 51.35216394 20.31471312 53 22 C60.84090347 27.60975207 67.3131507 29.86917113 77 29 C80.7382485 28.20059704 84.36544846 27.1810535 88 26 C88 32.28557326 85.60415874 35.49738095 81.30078125 39.9765625 C75.42190237 45.14678196 69.40237867 46.72158454 61.63671875 46.375 C54.218727 45.31999673 50.09674446 41.53746927 45.54296875 35.8046875 C43.93875964 33.76276633 43.93875964 33.76276633 41 32 C37.5896024 31.78685015 35.25468201 31.915106 32 33 C31.30062468 34.31647119 30.63270867 35.65022151 30 37 C27.19084526 38.40457737 25.11189466 38.24895157 22 38 C19.30347725 36.46127791 18.19651639 35.52263195 17.09375 32.58984375 C16.6973615 30.8191346 16.30152968 29.04830075 15.90625 27.27734375 C15.20020342 24.88944535 15.20020342 24.88944535 13.1796875 23.74609375 C10.98974478 22.9964897 8.9048613 22.51697615 6.625 22.125 C2.34126204 21.25563256 -0.36383147 19.42411236 -4 17 C-7.97910475 16.33681587 -9.43048928 16.59875381 -12.75 18.9375 C-18.41817443 22.5346107 -24.38643503 22.33869808 -30.875 21.3125 C-34.35390754 20.79377266 -34.35390754 20.79377266 -37.375 22.6875 C-39.00771417 24.93457241 -39.00771417 24.93457241 -40.25 27.1875 C-42.64757903 29.67070686 -44.6877007 29.85019784 -48.0625 30.0859375 C-50 30 -50 30 -52.4375 29.0625 C-54.81722437 25.92126384 -55.42789081 22.91214458 -55 19 C-52.44028707 15.2017163 -50.00503118 13.80145377 -45.6875 12.6875 C-43.8621875 12.3471875 -43.8621875 12.3471875 -42 12 C-42 12.66 -42 13.32 -42 14 C-35.18579165 13.0977234 -30.85643845 11.98096251 -26 7 C-25.67 6.34 -25.34 5.68 -25 5 C-24.02160156 5.04640625 -23.04320312 5.0928125 -22.03515625 5.140625 C-14.25818155 5.35474033 -7.78369921 5.28716016 -1 1 C-0.67 0.67 -0.34 0.34 0 0 Z " fill="#646A75" transform="translate(335,418)"/>
<path d="M0 0 C0.66 0.33 1.32 0.66 2 1 C2 1.66 2 2.32 2 3 C4.06988285 4.60887755 6.1248459 6.06498675 8.3125 7.5 C9.31434326 8.15887207 9.31434326 8.15887207 10.33642578 8.83105469 C26.50633384 19.25487704 43.84073303 27.95884651 63 31 C62.278125 31.680625 61.55625 32.36125 60.8125 33.0625 C55.4593821 38.27014541 55.4593821 38.27014541 52.83081055 44.91699219 C52 47 52 47 49.29125977 48.5612793 C48.10330811 49.06054932 46.91535645 49.55981934 45.69140625 50.07421875 C44.37607666 50.65354737 43.06224143 51.23627819 41.74975586 51.82202148 C41.06396454 52.12534393 40.37817322 52.42866638 39.67160034 52.74118042 C26.90190633 58.47073782 18.11056296 63.3605354 12.86669922 76.98779297 C11.32629937 80.56412411 9.14745552 83.76291962 7 87 C0.59859065 86.53444296 -4.26769829 84.85288164 -10 82 C-7.26695118 77.68700688 -4.33555021 74.03890087 -0.8125 70.3125 C2.77206121 66.47940921 6.2112351 62.59466044 9.5 58.5 C13.29842756 53.77260918 17.31143057 49.30242807 21.45898438 44.8828125 C25.05590239 41.07340536 25.05590239 41.07340536 26.3125 36.125 C26.27315198 33.01804013 26.27315198 33.01804013 24.55175781 31.06152344 C20.97239378 28.16981372 17.09408482 26.63153353 12.859375 24.890625 C11.53610199 24.33311554 11.53610199 24.33311554 10.18609619 23.76434326 C7.37782945 22.58366612 4.56410101 21.4166934 1.75 20.25 C-0.15923079 19.45011711 -2.06808963 18.6493458 -3.9765625 17.84765625 C-8.64679413 15.88811633 -13.32196982 13.94084446 -18 12 C-18 11.34 -18 10.68 -18 10 C-15.04894616 8.2995208 -12.08809878 6.61688907 -9.125 4.9375 C-8.28324219 4.45216797 -7.44148437 3.96683594 -6.57421875 3.46679688 C-5.76855469 3.01240234 -4.96289062 2.55800781 -4.1328125 2.08984375 C-3.38918457 1.66566162 -2.64555664 1.24147949 -1.87939453 0.80444336 C-1.25919434 0.53897705 -0.63899414 0.27351074 0 0 Z " fill="#478FD0" transform="translate(213,388)"/>
<path d="M0 0 C5.82485779 3.51996782 10.54466582 8.98962934 12.5625 15.5 C13.36764105 23.33608208 13.68710392 31.11922577 8.5625 37.5 C3.75801361 42.54521222 -0.59927055 46.10562995 -7.70703125 46.8359375 C-16.22326573 46.92983204 -22.11345494 46.6177288 -28.40234375 40.62890625 C-34.7841668 33.72505269 -35.91792252 28.29832071 -35.7421875 18.9453125 C-35.04689797 11.08319245 -31.38995981 6.95041296 -25.53515625 1.9453125 C-18.47077988 -2.92213491 -7.84396301 -3.47595223 0 0 Z " fill="#323232" transform="translate(51.4375,305.5)"/>
<path d="M0 0 C0.495 0.99 0.495 0.99 1 2 C1.66 2.226875 2.32 2.45375 3 2.6875 C5 4 5 4 5.9375 7.3125 C6 11 6 11 5.25 13.8125 C2.06666801 16.9074061 -1.03357457 16.75675311 -5.33203125 17.3359375 C-9.51515273 18.3771244 -10.68049531 20.48333159 -13 24 C-15.59102202 25.29551101 -17.18516236 24.85971953 -20.0625 24.625 C-26.00191328 24.52353828 -28.82124886 26.45499667 -33.125 30.37109375 C-36.75073429 33.52095041 -40.39250613 33.30716626 -45 33 C-52.92251178 30.44868265 -55.59257734 25.68712404 -60 19 C-61.72847467 17.27152533 -63.9573335 17.70610507 -66.3125 17.625 C-70.92792875 17.56593273 -70.92792875 17.56593273 -74.5 20.375 C-74.995 21.24125 -75.49 22.1075 -76 23 C-79.51824511 25.34549674 -80.85775694 25.57991403 -85 25 C-87.75 22.625 -87.75 22.625 -90 20 C-92.39093152 17.60906848 -93.11013946 17.74147076 -96.375 17.5625 C-99.08251583 17.292619 -100.97873879 17.00903602 -103.5 15.9375 C-105.86524823 12.8823877 -106.43161665 9.82501651 -106 6 C-103.9375 3 -103.9375 3 -101 1 C-97.8125 0.5625 -97.8125 0.5625 -95 1 C-93.67671429 2.32328571 -92.38384565 3.67776978 -91.125 5.0625 C-87.50316035 8.36476556 -83.88946103 8.34344546 -79.03125 8.2890625 C-75.66951782 7.81066215 -73.55798142 6.13165119 -71 4 C-70.34 3.01 -69.68 2.02 -69 1 C-66.375 0.8125 -66.375 0.8125 -64 1 C-63.484375 2.03125 -62.96875 3.0625 -62.4375 4.125 C-59.11398189 9.93526393 -54.37882668 13.93348662 -48 16 C-40.60822635 16.87681729 -34.131552 16.47029407 -28 12 C-27.38125 11.2575 -26.7625 10.515 -26.125 9.75 C-23.02753133 7.19914345 -20.36165728 7.88832512 -16.47265625 8.04296875 C-13.00268576 7.9826691 -10.84081908 6.94007157 -8 5 C-7.484375 4.29875 -6.96875 3.5975 -6.4375 2.875 C-5 1 -5 1 -2.3125 0.25 C-1.549375 0.1675 -0.78625 0.085 0 0 Z " fill="#646A75" transform="translate(442,287)"/>
<path d="M0 0 C6.13310432 0.98132536 11.62286749 3.652305 17.28515625 6.0925293 C19.25429487 6.93934699 21.22839131 7.77374893 23.203125 8.60742188 C24.4534426 9.14248762 25.7034539 9.67826982 26.953125 10.21484375 C28.08911133 10.70073975 29.22509766 11.18663574 30.39550781 11.68725586 C33 13 33 13 34 15 C28.73274434 21.63727418 23.25989507 27.95311966 17.47070312 34.13232422 C12.72785513 39.22462916 8.32653925 44.54812353 4 50 C-8.41295516 47.71023157 -21.11033312 36.4540397 -30 28 C-30.33 27.34 -30.66 26.68 -31 26 C-29.85724609 26.06960938 -29.85724609 26.06960938 -28.69140625 26.140625 C-19.97929509 26.44516821 -14.04101833 25.23281467 -7.1875 19.75 C-2.25318557 13.54686186 -0.36545756 7.89388336 0 0 Z " fill="#9FD21C" transform="translate(184,413)"/>
<path d="M0 0 C6.41069287 5.27101414 12.18590512 11.09128152 18 17 C17.3503125 18.69189453 17.3503125 18.69189453 16.6875 20.41796875 C12.54843641 31.86061159 8.16617312 47.24482317 12.86132812 59.19165039 C14.43916704 61.69745074 16.24211288 62.12908828 19 63 C19 65.64 19 68.28 19 71 C-1.64945295 71.9452954 -1.64945295 71.9452954 -9 66 C-9.99 65.34 -10.98 64.68 -12 64 C-13.54702025 58.51511003 -13.09054041 52.6537456 -13 47 C-11.576875 46.6596875 -11.576875 46.6596875 -10.125 46.3125 C-6.36901799 43.53307331 -6.38904184 42.65778988 -5.6875 38.1875 C-5.15930182 33.54653541 -4.87834413 28.91261 -4.625 24.25 C-4.12670524 15.92001594 -2.09425832 8.04584824 0 0 Z " fill="#4790D1" transform="translate(109,289)"/>
<path d="M0 0 C2.875 2.125 2.875 2.125 5 5 C5.7925815 11.39349073 3.03627999 14.5144052 -0.73046875 19.3828125 C-7.07276067 26.69664311 -16.39572137 32.23222955 -26 34 C-33.53001515 34.52417776 -41.22755842 34.76414722 -48 31 C-50.86834586 27.96292792 -51.00960602 26.55714908 -50.9375 22.375 C-50 19 -50 19 -48.5 17 C-45.21478755 15.68591502 -42.88206462 16.15644877 -39.4296875 16.66015625 C-31.59089906 17.75657843 -24.78402863 17.2821818 -18.12109375 12.7109375 C-13.90589333 9.30600239 -11.05190835 5.44706646 -8 1 C-5.11138291 -0.44430855 -3.20352299 -0.37688506 0 0 Z " fill="#323536" transform="translate(291,296)"/>
<path d="M0 0 C2.64174244 0.4731479 3.82517051 0.8524019 6 2.5 C7.40273464 6.14711005 7.20265813 9.25136026 5.9375 12.9375 C3.8125 15 3.8125 15 0.9375 15.9375 C-2.6875 15.8125 -2.6875 15.8125 -6.0625 14.9375 C-6.536875 14.421875 -7.01125 13.90625 -7.5 13.375 C-9.85963206 11.2041385 -12.11142012 11.52976355 -15.21875 11.63671875 C-17.65870524 12.0347623 -18.37738463 13.18217149 -20.0625 14.9375 C-27.01979891 16.50850298 -27.01979891 16.50850298 -30.6875 14.5 C-31.863125 13.7265625 -31.863125 13.7265625 -33.0625 12.9375 C-36.75184671 12.46651957 -38.57578339 12.67791781 -41.875 14.4375 C-47.1848098 16.93623402 -52.21519092 16.30090506 -57.875 15.1875 C-61.10350968 14.58111896 -61.10350968 14.58111896 -63.3125 16.625 C-65.07608845 18.85268357 -65.07608845 18.85268357 -66.3125 21.125 C-68.69937616 23.59712173 -70.70238426 23.90046686 -74.0703125 24.171875 C-77.53690751 23.76404029 -78.97004331 21.55307086 -81.0625 18.9375 C-83.91042205 15.49483479 -83.91042205 15.49483479 -88.1875 14.625 C-91.00189173 14.76221926 -91.00189173 14.76221926 -93.0625 15.9375 C-97.71298294 16.50485892 -101.15980577 16.3973631 -105.375 14.25 C-109.80025207 10.44222496 -112.08957298 7.70763151 -113.0625 1.9375 C-112.52625 2.2984375 -111.99 2.659375 -111.4375 3.03125 C-104.98782002 6.85013946 -99.98011877 7.40939246 -92.68554688 6.6640625 C-90.69921875 6.52734375 -90.69921875 6.52734375 -87.0625 6.9375 C-84.33203125 9.81640625 -84.33203125 9.81640625 -82.0625 12.9375 C-77.79134907 15.81263273 -73.0289423 15.58086219 -68.0625 14.9375 C-64.73455233 13.24327209 -62.69606647 12.09270286 -60.890625 8.80078125 C-59.0625 6.9375 -59.0625 6.9375 -55.48046875 6.65234375 C-54.06940992 6.70676841 -52.65902548 6.78174627 -51.25 6.875 C-45.61981436 7.22267045 -42.11615336 6.53959386 -37.0625 3.9375 C-34.859375 4.3359375 -34.859375 4.3359375 -32.8125 5.3125 C-24.75331268 8.44437849 -15.86672861 6.14134122 -8.0625 2.9375 C-7.05509766 2.14279297 -7.05509766 2.14279297 -6.02734375 1.33203125 C-3.70633847 -0.31528264 -2.77526692 -0.37966079 0 0 Z " fill="#636974" transform="translate(161.0625,408.0625)"/>
<path d="M0 0 C2.875 1.875 2.875 1.875 5 5 C6.68097759 13.1271612 3.80534316 21.26909586 -0.3203125 28.2265625 C-6.17730495 36.51596711 -14.84471283 43.65981343 -24 48 C-28.1854047 48.42993637 -29.4333177 48.41885214 -32.875 45.875 C-35 43 -35 43 -35.625 40 C-34.19612802 33.1414145 -26.75320064 29.47426461 -21.42578125 25.57421875 C-19 24 -19 24 -17 24 C-13.73311375 17.71752644 -11.67086362 12.25328929 -10.72265625 5.234375 C-9.07011872 0.12490762 -4.89959711 -0.79993422 0 0 Z " fill="#323536" transform="translate(283,360)"/>
<path d="M0 0 C0 8.91 0 17.82 0 27 C-3.155625 27.020625 -6.31125 27.04125 -9.5625 27.0625 C-10.5429126 27.071604 -11.5233252 27.08070801 -12.53344727 27.09008789 C-17.46950402 27.10560221 -22.13563625 26.84742688 -27 26 C-25.50382214 19.0570623 -22.87205844 11.76094602 -16.92236328 7.51855469 C-3.9939861 0 -3.9939861 0 0 0 Z " fill="#9FD21C" transform="translate(264,453)"/>
<path d="M0 0 C0.93714844 -0.00257813 1.87429687 -0.00515625 2.83984375 -0.0078125 C7.80437377 0.06260637 11.52949427 0.18039685 15.5 3.5 C16.90457737 6.30915474 16.74895157 8.38810534 16.5 11.5 C14.72015595 14.6359157 13.97691793 15.34102736 10.5 16.5 C7.04690178 16.8042547 3.58992872 16.8234943 0.125 16.875 C-0.82117188 16.91238281 -1.76734375 16.94976562 -2.7421875 16.98828125 C-7.46883931 17.04802825 -9.74297641 17.06587514 -13.625 14.1640625 C-15.5 11.5 -15.5 11.5 -16.125 8.5 C-14.28929376 -0.31138993 -7.47902301 -0.22632532 0 0 Z " fill="#353531" transform="translate(247.5,175.5)"/>
<path d="M0 0 C0.93714844 -0.00257813 1.87429687 -0.00515625 2.83984375 -0.0078125 C7.80437377 0.06260637 11.52949427 0.18039685 15.5 3.5 C16.90457737 6.30915474 16.74895157 8.38810534 16.5 11.5 C14.72015595 14.6359157 13.97691793 15.34102736 10.5 16.5 C7.04690178 16.8042547 3.58992872 16.8234943 0.125 16.875 C-0.82117188 16.91238281 -1.76734375 16.94976562 -2.7421875 16.98828125 C-7.46883931 17.04802825 -9.74297641 17.06587514 -13.625 14.1640625 C-15.5 11.5 -15.5 11.5 -16.125 8.5 C-14.28929376 -0.31138993 -7.47902301 -0.22632532 0 0 Z " fill="#353431" transform="translate(199.5,175.5)"/>
<path d="M0 0 C0 0.66 0 1.32 0 2 C-29.60272894 18 -29.60272894 18 -37 18 C-36.45388522 12.81190963 -34.84540159 4.84540159 -31 1 C-29.14852238 0.84003233 -27.29331319 0.72255213 -25.4375 0.625 C-21.50865812 0.34536713 -18.25005408 -0.07643321 -14.625 -1.625 C-9.05379814 -3.7382145 -5.28099301 -2.32984986 0 0 Z " fill="#9ED21D" transform="translate(337,455)"/>
<path d="M0 0 C1.61440186 3.22880373 0.10075013 5.60429101 -1 8.9375 C-2.44646708 12.9637694 -3.45474993 15.59106245 -7 18.25 C-8.75390625 18.69140625 -8.75390625 18.69140625 -11 19 C-12.65322266 19.29197266 -12.65322266 19.29197266 -14.33984375 19.58984375 C-17.55002882 20.12313182 -20.7746576 20.56773762 -24 21 C-24 16.05 -24 11.1 -24 6 C-20.7825 6.12375 -20.7825 6.12375 -17.5 6.25 C-11.07343048 6.26300925 -7.35058248 5.49845778 -2 2 C-1.34 1.34 -0.68 0.68 0 0 Z " fill="#478FCF" transform="translate(304,457)"/>
<path d="M0 0 C5.28 0 10.56 0 16 0 C16 5.28 16 10.56 16 16 C10.72 16 5.44 16 0 16 C0 10.72 0 5.44 0 0 Z " fill="#4891D3" transform="translate(232,128)"/>
<path d="M0 0 C5.28 0 10.56 0 16 0 C16 5.28 16 10.56 16 16 C10.72 16 5.44 16 0 16 C0 10.72 0 5.44 0 0 Z " fill="#4891D3" transform="translate(168,128)"/>
<path d="M0 0 C5.28 0 10.56 0 16 0 C16 5.28 16 10.56 16 16 C10.72 16 5.44 16 0 16 C0 10.72 0 5.44 0 0 Z " fill="#57B7EB" transform="translate(232,96)"/>
<path d="M0 0 C5.28 0 10.56 0 16 0 C16 5.28 16 10.56 16 16 C10.72 16 5.44 16 0 16 C0 10.72 0 5.44 0 0 Z " fill="#57B7EB" transform="translate(168,96)"/>
<path d="M0 0 C1.80859375 0.6328125 1.80859375 0.6328125 3.87109375 2.1953125 C5.27134563 5.83596738 4.95545804 8.93299689 3.80859375 12.6328125 C1.55786169 15.30034679 0.26413836 15.57586942 -3.19140625 16.0078125 C-6.64695086 15.57586942 -7.94067419 15.30034679 -10.19140625 12.6328125 C-11.16195756 9.89869843 -11.50554648 7.52178072 -11.19140625 4.6328125 C-8.11917185 -0.22329993 -5.38026882 -1.11877045 0 0 Z " fill="#8F9596" transform="translate(43.19140625,320.3671875)"/>
<path d="M0 0 C2.64 0 5.28 0 8 0 C8 5.28 8 10.56 8 16 C5.36 16 2.72 16 0 16 C0 10.72 0 5.44 0 0 Z " fill="#4891D3" transform="translate(232,96)"/>
<path d="M0 0 C2.64 0 5.28 0 8 0 C8 5.28 8 10.56 8 16 C5.36 16 2.72 16 0 16 C0 10.72 0 5.44 0 0 Z " fill="#4891D3" transform="translate(168,96)"/>
<path d="M0 0 C0.69222656 0.08765625 1.38445312 0.1753125 2.09765625 0.265625 C3.9375 0.75 3.9375 0.75 5.9375 2.75 C5.9375 4.07 5.9375 5.39 5.9375 6.75 C2.76337823 8.33706088 -0.59888667 8.03477127 -4.0625 7.75 C-7.0625 6.75 -7.0625 6.75 -9.0625 5.75 C-7.112277 1.24948539 -5.00696905 -0.71127037 0 0 Z " fill="#8E9495" transform="translate(161.0625,408.25)"/>
<path d="M0 0 C0.556875 0.7425 1.11375 1.485 1.6875 2.25 C3.93727787 4.92541152 6.2309174 6.88675275 9 9 C9.66 9.66 10.32 10.32 11 11 C7.87538839 11.2130417 5.58554547 11.25320885 2.6875 10 C0.07417362 6.90272429 0.26214413 3.99769792 0 0 Z " fill="#616771" transform="translate(32,325)"/>
<path d="M0 0 C1.98 0 3.96 0 6 0 C6 1.98 6 3.96 6 6 C3.97945196 4.35830472 1.97956942 2.69088222 0 1 C0 0.67 0 0.34 0 0 Z " fill="#55B4E9" transform="translate(242,128)"/>
<path d="M0 0 C1.98 0 3.96 0 6 0 C6 1.98 6 3.96 6 6 C3.97945196 4.35830472 1.97956942 2.69088222 0 1 C0 0.67 0 0.34 0 0 Z " fill="#55B4E9" transform="translate(178,128)"/>
</svg>
