<?xml version="1.0" encoding="UTF-8"?>
<svg version="1.1" xmlns="http://www.w3.org/2000/svg" width="512" height="512">
<path d="M0 0 C1.13195801 0.00684814 2.26391602 0.01369629 3.43017578 0.02075195 C17.36975079 0.28542743 29.72419928 3.34810983 42.3125 9.4375 C43.23417969 9.87835938 44.15585937 10.31921875 45.10546875 10.7734375 C53.03515651 14.82216383 60.01584372 20.14084372 66.3125 26.4375 C67.31477698 29.62656311 67.33577661 31.34618406 66.5 34.625 C66.25443677 39.61811903 68.04113907 41.95086831 70.76953125 46.0078125 C72.3125 48.4375 72.3125 48.4375 73.328125 51.1796875 C73.65296875 51.92476562 73.9778125 52.66984375 74.3125 53.4375 C76.30821323 54.11689174 78.30844773 54.78311559 80.3125 55.4375 C84.31960904 60.00766885 83.77230055 65.25572666 83.6875 71 C83.67009766 72.48717529 83.67009766 72.48717529 83.65234375 74.00439453 C83.31228554 89.24450338 78.16684792 105.47764781 67.2890625 116.703125 C61.88676552 121.44348045 56.20078977 125.67460465 49.6875 128.75 C48.016875 129.5853125 48.016875 129.5853125 46.3125 130.4375 C44.92585206 134.59744382 44.41746826 138.36602917 46.20703125 142.5078125 C46.75423828 143.58675781 46.75423828 143.58675781 47.3125 144.6875 C50.10448454 150.57168248 50.63643469 156.43782361 48.5703125 162.6796875 C41.01855078 177.7280886 24.9331694 194.2109347 9.4921875 200.60546875 C-5.63464823 204.56371938 -20.45065713 199.92787563 -33.90234375 193.13085938 C-34.59457031 192.78474609 -35.28679687 192.43863281 -36 192.08203125 C-36.61488281 191.76596924 -37.22976563 191.44990723 -37.86328125 191.12426758 C-39.98654845 190.20261263 -39.98654845 190.20261263 -43.6875 190.4375 C-45.1756598 191.96997927 -45.1756598 191.96997927 -46.30859375 194.09375 C-46.76943359 194.86976563 -47.23027344 195.64578125 -47.70507812 196.4453125 C-48.40793945 197.67894531 -48.40793945 197.67894531 -49.125 198.9375 C-50.06086046 200.53144818 -50.99705629 202.1251995 -51.93359375 203.71875 C-52.38460449 204.50636719 -52.83561523 205.29398438 -53.30029297 206.10546875 C-55.05087895 209.0483757 -56.99139424 211.84732539 -58.98461914 214.63085938 C-59.93171829 216.47968325 -59.93171829 216.47968325 -58.93188477 218.53393555 C-54.84857548 224.78026918 -48.48073581 229.67038566 -42.8515625 234.4921875 C-40.19774809 236.8777463 -37.69251181 239.3982784 -35.1875 241.9375 C-32.19572886 244.96979631 -29.19597962 247.93904328 -25.9375 250.6875 C-12.68720663 262.15092808 0.15431768 273.68195643 1.61328125 292.26953125 C1.63640019 300.12226517 1.27110669 307.06263162 -1.6875 314.4375 C-2.079375 315.46875 -2.47125 316.5 -2.875 317.5625 C-3.143125 318.18125 -3.41125 318.8 -3.6875 319.4375 C-2.90246094 319.51742188 -2.11742187 319.59734375 -1.30859375 319.6796875 C3.52274584 320.69077691 7.75575481 322.55619985 12.25 324.5625 C13.11818359 324.92859375 13.98636719 325.2946875 14.88085938 325.671875 C22.047722 328.85714728 27.09823117 332.86609866 31.25 339.5625 C33.24677339 344.85881965 32.53806269 350.8819746 32.3125 356.4375 C32.87453125 356.65792969 33.4365625 356.87835938 34.015625 357.10546875 C49.17603894 365.89747751 58.37859019 389.52725028 62.625 405.4375 C67.42694235 424.24004218 67.14075633 444.8912936 61.3125 463.4375 C60.961875 464.56671875 60.61125 465.6959375 60.25 466.859375 C54.60276843 482.93829822 43.31444444 504.43652778 27.3125 512.4375 C24.88055691 512.54155552 22.47684735 512.58529869 20.0443573 512.58467102 C19.28663554 512.58834771 18.52891378 512.5920244 17.74823076 512.5958125 C15.19567247 512.60687253 12.64315486 512.61069708 10.09057617 512.61450195 C8.26590342 512.62076481 6.44123195 512.62741145 4.61656189 512.63441467 C-0.35043469 512.65183994 -5.31742164 512.66238041 -10.28444123 512.6706202 C-13.38576758 512.67576671 -16.48709092 512.68184257 -19.58841515 512.68813133 C-29.28629524 512.70718694 -38.9841677 512.72141777 -48.68206292 512.7297433 C-59.88691242 512.73952065 -71.09156463 512.76585165 -82.29634458 512.80624419 C-90.95032097 512.83637373 -99.6042407 512.85120913 -108.25826854 512.85452431 C-113.43011416 512.85687826 -118.6017491 512.8658834 -123.77353859 512.89098549 C-128.63842206 512.91421618 -133.50295538 512.91851965 -138.36787987 512.90822411 C-140.15411924 512.90772743 -141.94037555 512.91408663 -143.7265625 512.92778015 C-146.16426608 512.9454238 -148.60070279 512.93843092 -151.03840637 512.92524719 C-152.10008828 512.94170106 -152.10008828 512.94170106 -153.1832183 512.95848733 C-157.93836946 512.89634696 -160.37109541 511.83184305 -163.6875 508.4375 C-164.796875 505.703125 -164.796875 505.703125 -165.4375 502.6875 C-165.65921875 501.70265625 -165.8809375 500.7178125 -166.109375 499.703125 C-169.75616796 479.10367289 -168.50510894 457.71058533 -161.26171875 438.0390625 C-160.48762736 435.50845254 -160.48762736 435.50845254 -161.28515625 433.33203125 C-163.06985236 430.92095155 -165.05943156 429.33280127 -167.4375 427.5 C-172.05588188 423.83068351 -176.40007653 419.98705956 -180.6875 415.9375 C-185.57026522 411.33795629 -190.57901094 407.02351721 -195.8203125 402.83203125 C-199.97246066 399.36436528 -203.90078574 395.66967117 -207.83007812 391.953125 C-210.30570382 389.61741356 -212.74372675 387.39375031 -215.43359375 385.30078125 C-221.39720542 380.37072446 -223.63289261 373.00639836 -224.578125 365.5390625 C-224.99305328 353.77288185 -219.28830033 345.75448516 -211.6875 337.4375 C-209.09765625 335.03125 -209.09765625 335.03125 -206.6875 333.4375 C-205.470625 333.6025 -204.25375 333.7675 -203 333.9375 C-200.89609017 334.19760267 -200.89609017 334.19760267 -198.6875 333.4375 C-196.61677265 331.5592628 -194.8976292 329.81403032 -193.125 327.6875 C-192.6710083 327.14931641 -192.2170166 326.61113281 -191.74926758 326.05664062 C-189.3115189 323.11238412 -189.3115189 323.11238412 -188.91015625 319.484375 C-189.16667969 318.80890625 -189.42320312 318.1334375 -189.6875 317.4375 C-190.16893317 314.01809002 -190.34240292 311.54715762 -188.54833984 308.50732422 C-186.90039609 306.3839013 -185.16844084 304.37702354 -183.375 302.375 C-182.09226433 300.88539264 -180.81103632 299.39448579 -179.53125 297.90234375 C-178.56445312 296.78835205 -178.56445312 296.78835205 -177.578125 295.65185547 C-174.73966907 292.3273726 -172.05222715 288.89220587 -169.375 285.4375 C-164.78205226 279.53205226 -164.78205226 279.53205226 -163.6875 278.4375 C-160.98371476 264.78692716 -160.2541467 251.41714194 -160.30273438 237.5390625 C-160.29861576 235.53590081 -160.29314735 233.53274153 -160.28645325 231.52958679 C-160.27484454 227.26119183 -160.2722015 222.99292574 -160.27680969 218.72451782 C-160.28368938 211.96496122 -160.26763547 205.20557072 -160.24841309 198.44604492 C-160.20757686 182.89128644 -160.1960176 167.33653369 -160.18488312 151.78173065 C-160.17435421 137.48941368 -160.15752115 123.19717799 -160.11678743 108.90491104 C-160.09850914 102.19445013 -160.09450995 95.48418336 -160.10172272 88.77370358 C-160.10325022 84.59616835 -160.09242657 80.41872944 -160.07834435 76.24122047 C-160.07436107 74.31440406 -160.07543337 72.38756905 -160.08211708 70.46076012 C-160.13735943 53.20245383 -158.39294265 38.45515687 -146.1875 25.1875 C-135.32706258 14.88484939 -122.28464568 10.91196656 -107.58203125 11.1171875 C-100.10900641 11.73181943 -93.04210008 13.78609392 -86.6875 17.8125 C-85.6975 18.34875 -84.7075 18.885 -83.6875 19.4375 C-81.30320398 18.70608573 -81.30320398 18.70608573 -78.6875 17.4375 C-69.40801971 13.90245989 -60.51642603 10.54284043 -50.4921875 10.3125 C-41.87625289 10.09915305 -35.37027147 9.75772706 -27.8515625 5.0078125 C-19.05102349 0.64013758 -9.68360519 -0.09091563 0 0 Z M-148.6875 354.4375 C-150.1177165 355.88494802 -151.48471162 357.3955522 -152.8125 358.9375 C-153.53695312 359.7728125 -154.26140625 360.608125 -155.0078125 361.46875 C-155.56210938 362.1184375 -156.11640625 362.768125 -156.6875 363.4375 C-153.5624029 370.75155704 -146.41756055 376.46848993 -139.6875 380.4375 C-139.42438372 375.08516086 -140.26821898 370.7447542 -142.0625 365.75 C-142.28421875 365.09966797 -142.5059375 364.44933594 -142.734375 363.77929688 C-143.85416912 360.5483615 -145.05752617 357.44609656 -146.6875 354.4375 C-147.3475 354.4375 -148.0075 354.4375 -148.6875 354.4375 Z " fill="#020101" transform="translate(309.6875,-0.4375)"/>
<path d="M0 0 C5.45793484 1.53504417 8.94115177 5.24735701 13 9 C14.02952764 9.93796151 15.05950541 10.8754291 16.08984375 11.8125 C21.85735032 17.07818842 27.48523988 22.43701871 32.96875 28 C34.85712476 29.85932284 36.79642753 31.59388084 38.8125 33.3125 C42.38898815 36.37500183 45.69389799 39.65280287 49 43 C52.85121289 46.89896506 56.7642174 50.60824307 60.94140625 54.16015625 C64.07076041 56.95697942 66.98541629 59.96475348 69.93164062 62.95117188 C72.55820725 65.5995962 75.22711095 68.13953118 78.0625 70.5625 C96.33218158 86.27065921 96.33218158 86.27065921 97.2734375 98.57421875 C97.56489949 106.93420155 97.39142913 113.18905535 92 120 C91.48050781 120.69480469 90.96101562 121.38960938 90.42578125 122.10546875 C87.53687532 125.69471552 84.67777107 128.34424022 80.75 130.75 C74.97265395 134.36575399 70.78012394 139.38570714 66.34765625 144.47167969 C63.59446263 147.59396086 60.71746469 150.60741829 57.875 153.6484375 C53.6026523 159.00667358 52.38999264 163.5247425 52.58203125 170.24609375 C53.44671087 175.94328193 56.49994892 179.60709543 60.625 183.4375 C64.09460109 185.7201323 66.80991808 186.15661032 70.875 186.1875 C71.71804688 186.20167969 72.56109375 186.21585938 73.4296875 186.23046875 C76.04788223 186.1233184 76.04788223 186.1233184 78.484375 184.98046875 C85.39892535 182.28551201 93.74573238 185.10988868 100.5625 187.0625 C110.21520322 189.74161763 117.763933 190.62416706 126.76171875 185.64453125 C130.33722904 183.01749838 132.70495725 179.75976516 135 176 C146.17230513 180.95467445 152.46850135 195.78729613 156.8125 206.5625 C157.56972582 208.69859311 158.30004629 210.84446073 159 213 C159.3196875 213.95519531 159.639375 214.91039062 159.96875 215.89453125 C166.15408451 237.74365267 161.71990175 260.89169651 151.0390625 280.4765625 C148.84693548 284.33082911 146.55700307 288.07081097 143.84115601 291.58236027 C141.98636096 293.94467975 141.98636096 293.94467975 140.4984436 296.3783865 C137.62181778 300.41925975 135.43355863 302.66613601 130.51190186 303.81234932 C126.08064178 304.22675966 121.65488681 304.11447422 117.2109375 304.02172852 C115.50534704 304.01918736 113.79974674 304.02061972 112.09416199 304.02571106 C107.48027644 304.02828647 102.86850984 303.97549251 98.25511551 303.91254544 C93.42791835 303.85616471 88.60066898 303.85098762 83.77319336 303.84031677 C74.63921483 303.81237806 65.50620936 303.73857068 56.37265873 303.64817137 C45.97135789 303.54746609 35.57000982 303.49806346 25.16834259 303.45291245 C3.77835259 303.35891745 -17.61076233 303.20068283 -39 303 C-39.95606631 296.5366494 -40.18360489 290.33680755 -40.1875 283.8125 C-40.19974609 282.75224609 -40.21199219 281.69199219 -40.22460938 280.59960938 C-40.24256542 270.77765253 -38.98087363 261.36845998 -36 252 C-30.91060422 252 -29.34567249 254.06974462 -25.9375 257.4375 C-24.77972585 258.54546331 -23.61953281 259.65090407 -22.45703125 260.75390625 C-21.87775879 261.30449707 -21.29848633 261.85508789 -20.70166016 262.42236328 C-17.41868109 265.4660664 -13.92469012 268.23524791 -10.4296875 271.03125 C-8.30406989 272.75361539 -6.27588911 274.53819387 -4.25 276.375 C3.25676568 282.7038891 10.47220549 282.63429131 20 282 C24.78660488 281.46594913 29.50997982 280.58436133 34.23364258 279.65625 C36.32529563 279.24749948 38.42060849 278.86479977 40.51757812 278.484375 C50.48802509 276.61724735 59.73982114 274.42902023 67 267 C72.35878009 258.39503582 73.29011952 249.6138055 71.3515625 239.67578125 C68.30877209 228.68792698 62.7389211 219.51437064 52.75 213.6875 C42.73877609 211.18469402 34.79328593 214.61739491 25.625 218.5625 C23.14330545 219.61933004 20.65605075 220.65863037 18.1640625 221.69140625 C17.07561035 222.15748291 15.9871582 222.62355957 14.86572266 223.10375977 C11.91454186 224.0267266 10.78436172 224.22933054 8 223 C5.85905784 221.23908958 3.86825703 219.47731936 1.875 217.5625 C1.30966553 217.02189941 0.74433105 216.48129883 0.16186523 215.92431641 C-0.99610514 214.81536151 -2.15211264 213.70435338 -3.30615234 212.59130859 C-4.87862996 211.11402277 -6.49087544 209.71701409 -8.14453125 208.33203125 C-14.90238731 202.38700823 -14.90238731 202.38700823 -15.16796875 198.61328125 C-14.625 196.1875 -14.625 196.1875 -13.8125 193.68359375 C-9.49233592 179.41459029 -16.28595986 164.63353518 -22.53320312 152.0402832 C-22.88060547 151.31284912 -23.22800781 150.58541504 -23.5859375 149.8359375 C-24.06619385 148.86986572 -24.06619385 148.86986572 -24.55615234 147.88427734 C-25 146 -25 146 -24.17919922 143.8840332 C-22.82911719 141.72697668 -21.35750838 139.78693964 -19.75 137.8125 C-19.03585938 136.93335938 -18.32171875 136.05421875 -17.5859375 135.1484375 C-16.72452936 134.09848959 -15.86249875 133.0490522 -15 132 C-14.24831543 131.08395996 -14.24831543 131.08395996 -13.48144531 130.14941406 C-9.94345703 125.83980941 -6.39636487 121.5377652 -2.84667969 117.23779297 C-1.05538333 115.06711311 0.73440184 112.89519956 2.5234375 110.72265625 C3.09827881 110.02479004 3.67312012 109.32692383 4.26538086 108.60791016 C5.42100542 107.20359454 6.57546744 105.79832144 7.72875977 104.39208984 C10.72913448 100.73729505 13.75219964 97.10541974 16.81640625 93.50390625 C25.92915628 82.73706932 33.46849724 73.54349209 33.2734375 58.875 C32.52268162 50.98133821 28.04098427 44.00694192 22 39 C14.47767372 34.51490821 6.69235864 32.44618459 -2 34 C-10.83833125 36.92412452 -16.41188027 41.73775349 -22 49 C-23.49992975 50.8542235 -24.99992876 52.70839097 -26.5 54.5625 C-27.66916389 56.0396936 -28.83677484 57.51812539 -30 59 C-31.36580288 54.90259135 -29.90311268 52.3668163 -28.3125 48.5625 C-28.0021582 47.81677734 -27.69181641 47.07105469 -27.37207031 46.30273438 C-21.04631421 31.72153489 -11.77725408 18.45832702 -3.08203125 5.2109375 C-1.08248104 2.25778161 -1.08248104 2.25778161 0 0 Z " fill="#FD75A7" transform="translate(198,194)"/>
<path d="M0 0 C5.80209244 4.61849869 5.80209244 4.61849869 7.98828125 6.8046875 C11.5472511 6.96286394 14.56572541 6.7401366 17.98828125 5.8046875 C19.14582823 7.67247871 20.28884386 9.54927999 21.42578125 11.4296875 C22.38291016 12.99589844 22.38291016 12.99589844 23.359375 14.59375 C25.04088376 17.90837878 26.03320359 20.08112454 25.98828125 23.8046875 C25.18648437 24.56652344 24.3846875 25.32835937 23.55859375 26.11328125 C20.7944666 29.00763323 20.62975379 29.30444665 20.60546875 33.02734375 C20.67183791 34.64154844 20.75870567 36.25500712 20.86328125 37.8671875 C21.30649851 52.33644181 17.98454559 64.49062572 8.11328125 75.4921875 C-5.69319566 88.39522045 -24.04972013 91.47575373 -42.3125 91.04296875 C-48.94700796 90.77594521 -55.46618063 89.90050255 -62.01171875 88.8046875 C-62.181875 88.15242188 -62.35203125 87.50015625 -62.52734375 86.828125 C-64.033273 81.39716739 -65.69280479 77.34053657 -69.01171875 72.8046875 C-69.34171875 71.8146875 -69.67171875 70.8246875 -70.01171875 69.8046875 C-71.84352 68.68783554 -71.84352 68.68783554 -74.01171875 67.8046875 C-74.66269531 67.45148438 -75.31367188 67.09828125 -75.984375 66.734375 C-82.71488504 63.337669 -89.08321574 62.45910267 -96.4296875 64.46484375 C-106.50857608 68.4721127 -112.44828202 75.85598588 -117.26171875 85.2421875 C-118.37213058 89.03609458 -118.68635386 92.87462207 -119.01171875 96.8046875 C-127.54662061 95.51696546 -134.62787716 89.31177662 -140.01171875 82.8046875 C-147.76571416 72.14978557 -149.66014453 61.78982931 -149.01171875 48.8046875 C-148.99238281 48.03511719 -148.97304687 47.26554687 -148.953125 46.47265625 C-148.24131366 34.84640429 -142.74505803 24.06867778 -136.01171875 14.8046875 C-135.40714844 13.97195312 -134.80257812 13.13921875 -134.1796875 12.28125 C-125.1141073 1.92525388 -111.47692182 -3.81307135 -98.01171875 -5.1953125 C-96.41443495 -5.25041486 -94.81666429 -5.29225426 -93.21875 -5.32421875 C-81.02457209 -5.42623978 -81.02457209 -5.42623978 -70.265625 -10.6953125 C-50.37624854 -23.93191659 -17.04618056 -12.42536119 0 0 Z " fill="#798B97" transform="translate(357.01171875,30.1953125)"/>
<path d="M0 0 C5.15403411 4.14563614 5.95539959 8.83409709 7.12890625 15.1953125 C8.1486597 18.47864422 9.34751192 19.85344946 12 22 C19.92291004 24.95167237 28.38441774 25.15595187 36.75390625 25.09765625 C37.54022934 25.0962413 38.32655243 25.09482635 39.13670349 25.09336853 C41.61201015 25.08783672 44.08722137 25.07529775 46.5625 25.0625 C48.25585806 25.05747616 49.94921755 25.05291481 51.64257812 25.04882812 C55.7617547 25.03788978 59.88086125 25.02067362 64 25 C64.11899658 25.74258057 64.23799316 26.48516113 64.3605957 27.25024414 C64.60942505 28.72158813 64.60942505 28.72158813 64.86328125 30.22265625 C65.02352783 31.19211182 65.18377441 32.16156738 65.34887695 33.16040039 C65.97947182 35.91047498 66.84180422 37.97313856 68.1875 40.4375 C70 44 70 44 69.890625 45.83984375 C68.6021804 48.96488701 66.63393965 51.48735132 64.5625 54.125 C64.11729004 54.69541016 63.67208008 55.26582031 63.21337891 55.85351562 C56.35400049 64.4850006 48.74971006 73.41676331 38 77 C23.52260071 78.51478792 11.91436039 71.69232627 -0.28930664 64.8762207 C-4.2782736 62.83306352 -7.57698899 62.55020227 -12 63 C-18.09872292 67.03164876 -21.31054384 72.7206537 -25.0625 78.875 C-26.25993348 80.81100118 -27.45911653 82.74592146 -28.66015625 84.6796875 C-29.22492676 85.59073242 -29.78969727 86.50177734 -30.37158203 87.44042969 C-32.46095012 90.72452789 -34.69160231 93.86686288 -37 97 C-40.87691107 95.42584818 -43.19665677 92.93840506 -46.0625 89.9375 C-55.54016393 80.12886235 -55.54016393 80.12886235 -67 73 C-65.67640536 69.42700907 -64.08962659 66.35411983 -62.0234375 63.15625 C-61.43836426 62.24504395 -60.85329102 61.33383789 -60.25048828 60.39501953 C-59.63157715 59.43966309 -59.01266602 58.48430664 -58.375 57.5 C-57.10863368 55.52912196 -55.84300594 53.55776916 -54.578125 51.5859375 C-53.96517578 50.63170898 -53.35222656 49.67748047 -52.72070312 48.69433594 C-49.40806657 43.50729607 -46.19556959 38.25978845 -43 33 C-41.93007812 33.15984375 -40.86015625 33.3196875 -39.7578125 33.484375 C-32.25814001 34.56174134 -32.25814001 34.56174134 -25.0625 32.625 C-22.90297594 31.16078274 -22.90297594 31.16078274 -22 29 C-21.80028447 25.73428131 -21.65518105 22.47554832 -21.5703125 19.20507812 C-21.30951422 13.38601654 -20.2562954 8.52262871 -16.24609375 4.0390625 C-15.64925781 3.57242188 -15.05242187 3.10578125 -14.4375 2.625 C-13.83808594 2.14289063 -13.23867188 1.66078125 -12.62109375 1.1640625 C-8.51961201 -1.78109788 -4.74478027 -1.28281754 0 0 Z " fill="#FCCCBD" transform="translate(274,109)"/>
<path d="M0 0 C4.54993852 2.39919966 8.06775546 5.14627567 10 10 C11.0265523 14.24925338 10.71462838 17.67283302 8.6328125 21.5390625 C3.84986178 28.26694754 -1.72145494 34.44396553 -7.1328125 40.671875 C-10.10890806 44.10687404 -12.94654307 47.63850074 -15.765625 51.203125 C-18.68190247 54.85357023 -21.65199013 58.45820133 -24.625 62.0625 C-25.22554199 62.79057861 -25.82608398 63.51865723 -26.44482422 64.26879883 C-27.68081465 65.76674592 -28.91698186 67.26454717 -30.15332031 68.76220703 C-33.10507173 72.33911786 -36.05243996 75.91963514 -39 79.5 C-42.56797005 83.83396925 -46.13714743 88.16692166 -49.7109375 92.49609375 C-53.14670788 96.65908099 -56.57599195 100.82733425 -60 105 C-60.44698242 105.54366211 -60.89396484 106.08732422 -61.35449219 106.64746094 C-62.49063953 108.03228129 -63.6206077 109.42216507 -64.75 110.8125 C-65.34296875 111.54082031 -65.9359375 112.26914062 -66.546875 113.01953125 C-69.75654664 117.39400308 -70.56782924 120.51098403 -70 126 C-66.83915103 131.65841099 -62.34310127 135.92028475 -57.75 140.4375 C-57.02425781 141.16259766 -56.29851562 141.88769531 -55.55078125 142.63476562 C-51.43456559 146.71796351 -47.21118883 150.61307124 -42.82128906 154.39916992 C-40.26712899 156.64416022 -37.88805383 159.01627876 -35.5 161.4375 C-34.6440625 162.30246094 -33.788125 163.16742188 -32.90625 164.05859375 C-32.2771875 164.69925781 -31.648125 165.33992187 -31 166 C-32.43781436 170.05404357 -34.38872784 173.30826358 -36.875 176.8125 C-37.55304688 177.78832031 -38.23109375 178.76414062 -38.9296875 179.76953125 C-39.61289063 180.50558594 -40.29609375 181.24164063 -41 182 C-46.26758437 182 -48.02948736 179.55702667 -51.5625 176.0625 C-52.82174754 174.85289085 -54.08348732 173.6458711 -55.34765625 172.44140625 C-56.27989014 171.55219482 -56.27989014 171.55219482 -57.23095703 170.64501953 C-59.56269746 168.47675194 -62.00809166 166.48093753 -64.5 164.5 C-69.50141437 160.49886851 -74.143046 156.19302406 -78.79980469 151.8034668 C-82.34049914 148.48491641 -85.9540299 145.34176992 -89.75 142.3125 C-105.37864846 129.79103091 -105.37864846 129.79103091 -106.30859375 124.1171875 C-106.70392621 117.24079863 -104.41585098 114.04668683 -100 109 C-96.23818622 104.42406812 -96.23818622 104.42406812 -94.5625 98.8125 C-94.9852125 96.09506248 -95.72290268 94.39519859 -97 92 C-95.21830015 89.63645909 -93.40579267 87.31472874 -91.5625 85 C-91.06556641 84.33226562 -90.56863281 83.66453125 -90.05664062 82.9765625 C-86.12614242 78.13142006 -86.12614242 78.13142006 -82.75732422 77.73828125 C-81.19882439 77.8287602 -79.64122986 77.93666859 -78.08520508 78.06274414 C-75.69630642 78.19581591 -75.69630642 78.19581591 -73.2578125 75.87109375 C-72.14019531 74.44990234 -72.14019531 74.44990234 -71 73 C-70.17242187 72.06285156 -69.34484375 71.12570312 -68.4921875 70.16015625 C-67.6167263 69.13020189 -66.74446345 68.09752252 -65.875 67.0625 C-65.39909424 66.49821289 -64.92318848 65.93392578 -64.43286133 65.35253906 C-60.63420182 60.8194012 -56.97338808 56.18781407 -53.34179688 51.52050781 C-47.88914873 44.53358138 -42.22127594 37.724584 -36.5703125 30.89794922 C-34.49944503 28.39500711 -32.43516429 25.88675828 -30.375 23.375 C-29.68664062 22.53710938 -28.99828125 21.69921875 -28.2890625 20.8359375 C-26.48982376 18.6068465 -24.71915407 16.36274876 -22.9609375 14.1015625 C-22.42936035 13.42303223 -21.8977832 12.74450195 -21.35009766 12.04541016 C-20.3089798 10.71454574 -19.27442018 9.37851594 -18.24755859 8.03662109 C-13.23817968 1.65139123 -8.33579753 -1.73085497 0 0 Z " fill="#FC74A6" transform="translate(207,242)"/>
<path d="M0 0 C0.68642578 -0.020625 1.37285156 -0.04125 2.08007812 -0.0625 C7.16475127 -0.10098381 10.63393883 0.98810033 15.1875 3.25 C13.80895034 6.28280924 12.16880927 8.54628421 10 11.0625 C-3.60274166 28.35700871 -5.34736928 48.97902855 -3.8125 70.25 C-3.33618168 73.03759627 -2.6494106 75.53381722 -1.8125 78.25 C-1.55210937 79.11367187 -1.29171875 79.97734375 -1.0234375 80.8671875 C2.64834631 90.78443536 9.64705 98.05316544 17.1875 105.25 C18.1888773 106.2486208 19.18906426 107.24843818 20.1875 108.25 C19.82624023 108.8169458 19.46498047 109.3838916 19.09277344 109.96801758 C11.25498006 122.2705805 3.43706281 134.58527901 -4.34472656 146.92333984 C-5.83065516 149.27877889 -7.31749482 151.63364014 -8.8046875 153.98828125 C-9.30154053 154.77501221 -9.79839355 155.56174316 -10.31030273 156.37231445 C-11.30413899 157.94536358 -12.29843524 159.5181222 -13.29321289 161.09057617 C-15.91739859 165.24032072 -18.53050387 169.39655425 -21.12890625 173.5625 C-21.67224609 174.43068359 -22.21558594 175.29886719 -22.77539062 176.19335938 C-23.81771279 177.85929309 -24.85693373 179.52717242 -25.89257812 181.19726562 C-26.36244141 181.94685547 -26.83230469 182.69644531 -27.31640625 183.46875 C-27.93237671 184.4577832 -27.93237671 184.4577832 -28.56079102 185.46679688 C-29.83085517 187.27614904 -31.23463778 188.70900317 -32.8125 190.25 C-32.95289697 168.81363329 -33.05858202 147.3773428 -33.12337303 125.94060898 C-33.15426137 115.98629095 -33.19634547 106.03225922 -33.26513672 96.078125 C-33.32509294 87.3982588 -33.36368563 78.71860003 -33.37703097 70.0385325 C-33.38482739 65.44585493 -33.40304478 60.85377059 -33.44688034 56.26128387 C-33.48787843 51.93061423 -33.50011478 47.60077708 -33.49114609 43.26993179 C-33.49278467 41.68816972 -33.5045574 40.10637722 -33.52773285 38.52478409 C-33.69228005 26.7067358 -31.60843464 17.31350454 -23.4375 8.25 C-16.48609523 1.93054112 -9.19640063 0.06793278 0 0 Z " fill="#586B75" transform="translate(198.8125,26.75)"/>
<path d="M0 0 C0.99 0.86625 1.98 1.7325 3 2.625 C3.64453125 3.16640625 4.2890625 3.7078125 4.953125 4.265625 C6.28168575 5.39135205 7.58598872 6.54659452 8.859375 7.734375 C13.4547982 11.72213894 16.78033222 12.58339007 22.79882812 12.43603516 C29.02208487 11.58835848 34.64607236 8.96902771 40.375 6.5 C42.83662244 5.45719846 45.30363797 4.42979448 47.7734375 3.40625 C49.38871338 2.71499023 49.38871338 2.71499023 51.03662109 2.00976562 C53.9439983 1.01908247 55.96099483 0.69244772 59 1 C64.43418315 4.86146662 67.34314248 11.75420565 69 18 C69.72207944 23.00297896 69.52067423 26.75490946 67.5625 31.4375 C61.65871464 37.34128536 51.60033016 38.09917569 43.6875 39.6875 C42.63626953 39.91244141 41.58503906 40.13738281 40.50195312 40.36914062 C23.05012092 43.89812206 23.05012092 43.89812206 16.92407227 41.02709961 C15.08794764 39.67929254 13.53340051 38.24887724 11.9375 36.625 C11.3587915 36.08351318 10.78008301 35.54202637 10.18383789 34.98413086 C9.00455725 33.8777353 7.83627689 32.75948965 6.6796875 31.62939453 C5.09956054 30.09657951 3.48715518 28.61677962 1.84375 27.15234375 C-2.56815059 23.22077105 -6.84325286 19.20120433 -11 15 C-9.3553057 12.68668225 -7.70930345 10.37431549 -6.0625 8.0625 C-5.59392578 7.40314453 -5.12535156 6.74378906 -4.64257812 6.06445312 C-1.11328125 1.11328125 -1.11328125 1.11328125 0 0 Z " fill="#FDCCBD" transform="translate(187,420)"/>
<path d="M0 0 C5.33484142 -0.66685518 9.00191835 -0.48919541 13.4375 2.75 C16.73935627 5.39148502 18.47943582 7.84520564 19.4765625 11.97265625 C20.25471511 22.92822587 10.1192163 31.15838995 3.42041016 38.88427734 C2.90784668 39.47418457 2.3952832 40.0640918 1.8671875 40.671875 C-1.10890806 44.10687404 -3.94654307 47.63850074 -6.765625 51.203125 C-9.68190247 54.85357023 -12.65199013 58.45820133 -15.625 62.0625 C-16.22554199 62.79057861 -16.82608398 63.51865723 -17.44482422 64.26879883 C-18.68081465 65.76674592 -19.91698186 67.26454717 -21.15332031 68.76220703 C-24.10507173 72.33911786 -27.05243996 75.91963514 -30 79.5 C-33.56797005 83.83396925 -37.13714743 88.16692166 -40.7109375 92.49609375 C-44.14670788 96.65908099 -47.57599195 100.82733425 -51 105 C-51.44698242 105.54366211 -51.89396484 106.08732422 -52.35449219 106.64746094 C-53.49063953 108.03228129 -54.6206077 109.42216507 -55.75 110.8125 C-56.34296875 111.54082031 -56.9359375 112.26914062 -57.546875 113.01953125 C-60.75654664 117.39400308 -61.56782924 120.51098403 -61 126 C-57.83915103 131.65841099 -53.34310127 135.92028475 -48.75 140.4375 C-48.02425781 141.16259766 -47.29851562 141.88769531 -46.55078125 142.63476562 C-42.43456559 146.71796351 -38.21118883 150.61307124 -33.82128906 154.39916992 C-31.26712899 156.64416022 -28.88805383 159.01627876 -26.5 161.4375 C-25.6440625 162.30246094 -24.788125 163.16742188 -23.90625 164.05859375 C-23.2771875 164.69925781 -22.648125 165.33992187 -22 166 C-23.07401108 168.91517292 -23.77810176 170.77810176 -26 173 C-26.43570313 172.48050781 -26.87140625 171.96101562 -27.3203125 171.42578125 C-30.18869453 168.06691831 -32.97170973 164.87943475 -36.4375 162.125 C-37.283125 161.42375 -38.12875 160.7225 -39 160 C-39 159.34 -39 158.68 -39 158 C-39.59161423 157.73108444 -40.18322845 157.46216888 -40.79277039 157.18510437 C-43.00633644 155.99659784 -44.51320988 154.77566058 -46.31567383 153.03833008 C-46.93924271 152.44043167 -47.56281158 151.84253326 -48.20527649 151.22651672 C-49.1961451 150.25780891 -49.1961451 150.25780891 -50.20703125 149.26953125 C-50.89182053 148.60088547 -51.5766098 147.93223969 -52.28215027 147.24333191 C-53.72484783 145.82825239 -55.16450526 144.41006765 -56.60131836 142.98901367 C-58.80493169 140.81994965 -61.03369724 138.67901662 -63.26367188 136.53710938 C-64.66310617 135.15792003 -66.0609483 133.77711289 -67.45703125 132.39453125 C-68.12773148 131.7588472 -68.7984317 131.12316315 -69.48945618 130.46821594 C-73.98643888 125.92794252 -73.98643888 125.92794252 -74.05493164 121.24121094 C-73.15097325 118.46385577 -72.60668834 116.83992662 -70.6640625 114.74609375 C-70.18267822 114.20927979 -69.70129395 113.67246582 -69.20532227 113.11938477 C-68.42306274 112.28685181 -68.42306274 112.28685181 -67.625 111.4375 C-66.51954044 110.20805751 -65.41673675 108.97622254 -64.31640625 107.7421875 C-63.75840332 107.12053711 -63.20040039 106.49888672 -62.62548828 105.85839844 C-60.14489335 103.0223683 -57.8551653 100.05088816 -55.5625 97.0625 C-51.11072946 91.30353438 -46.4167375 85.79609789 -41.62304688 80.32006836 C-38.03604651 76.2162877 -34.57431479 72.04250094 -31.19921875 67.76171875 C-28.29883919 64.11950143 -25.33763854 60.52913942 -22.375 56.9375 C-21.78017822 56.2151416 -21.18535645 55.4927832 -20.57250977 54.74853516 C-17.45853258 50.96956164 -14.33445747 47.19950346 -11.1953125 43.44140625 C-10.2664624 42.32487671 -10.2664624 42.32487671 -9.31884766 41.18579102 C-8.14765585 39.77831715 -6.9731071 38.37362647 -5.79443359 36.97241211 C3.00036668 26.87187668 3.00036668 26.87187668 5.5625 14.25 C5.54316406 12.99703125 5.52382812 11.7440625 5.50390625 10.453125 C4.83424038 5.86409683 3.24263185 3.24263185 0 0 Z " fill="#F95491" transform="translate(198,242)"/>
<path d="M0 0 C1.31291016 0.58104492 1.31291016 0.58104492 2.65234375 1.17382812 C11.26289903 5.15045862 11.26289903 5.15045862 13.625 9.8125 C13.67288012 15.68123435 11.37458319 19.50912123 8.1875 24.1875 C7.77951172 24.81527344 7.37152344 25.44304687 6.95117188 26.08984375 C3.92370359 30.6631482 3.92370359 30.6631482 1.625 31.8125 C-4.37079733 32.24686565 -9.36469854 30.91174035 -15.0625 29.3125 C-24.59466902 26.78576438 -32.99065694 25.01518705 -42.375 28.8125 C-46.88782051 28.29967949 -46.88782051 28.29967949 -48.375 26.8125 C-48.74975665 23.7579766 -48.77574849 22.33399349 -46.87109375 19.85546875 C-46.19175781 19.24316406 -45.51242187 18.63085938 -44.8125 18 C-42.00570752 15.37079017 -39.36746517 12.74244173 -36.875 9.8125 C-34.3995399 6.9527219 -31.87523674 4.16106021 -29.25 1.4375 C-28.62867188 0.79039062 -28.00734375 0.14328125 -27.3671875 -0.5234375 C-19.00994848 -7.5041901 -8.83194943 -4.21555226 0 0 Z " fill="#FCCBBC" transform="translate(313.375,337.1875)"/>
<path d="M0 0 C11.17230513 4.95467445 17.46850135 19.78729613 21.8125 30.5625 C22.56972582 32.69859311 23.30004629 34.84446073 24 37 C24.3196875 37.95519531 24.639375 38.91039062 24.96875 39.89453125 C31.15408451 61.74365267 26.71990175 84.89169651 16.0390625 104.4765625 C13.33343803 109.23367646 10.37277649 113.68910025 7 118 C6.38511719 118.85980469 5.77023437 119.71960938 5.13671875 120.60546875 C0.41331822 126.71086623 0.41331822 126.71086623 -3.73046875 127.55859375 C-6.22133738 127.56210696 -8.54513594 127.40746719 -11 127 C-10.48953125 126.35998047 -10.48953125 126.35998047 -9.96875 125.70703125 C8.82172984 101.46931124 16.16899597 75.80474879 12.5390625 45.40234375 C10.55172753 32.30228441 5.4216768 20.53900707 -1.77734375 9.48828125 C-3 7 -3 7 -2.81640625 4.85546875 C-2 3 -2 3 0 0 Z " fill="#FA5591" transform="translate(333,370)"/>
<path d="M0 0 C5.45793484 1.53504417 8.94115177 5.24735701 13 9 C14.02952764 9.93796151 15.05950541 10.8754291 16.08984375 11.8125 C21.85735032 17.07818842 27.48523988 22.43701871 32.96875 28 C34.85712476 29.85932284 36.79642753 31.59388084 38.8125 33.3125 C42.38898815 36.37500183 45.69389799 39.65280287 49 43 C52.85121289 46.89896506 56.7642174 50.60824307 60.94140625 54.16015625 C64.07076041 56.95697942 66.98541629 59.96475348 69.93164062 62.95117188 C72.55820725 65.5995962 75.22711095 68.13953118 78.0625 70.5625 C96.33218158 86.27065921 96.33218158 86.27065921 97.2734375 98.57421875 C97.56489949 106.93420155 97.39142913 113.18905535 92 120 C91.48050781 120.69480469 90.96101563 121.38960938 90.42578125 122.10546875 C86.86508661 126.52936209 83.08251189 129.39200719 78.26953125 132.34375 C74.86600808 134.82756037 72.46077392 138.00347017 69.921875 141.33984375 C68.97054687 142.16162109 68.97054687 142.16162109 68 143 C65.265625 142.75390625 65.265625 142.75390625 63 142 C63.30674803 138.69522407 63.75041217 137.26180871 66.07421875 134.82421875 C66.93660156 134.11910156 67.79898438 133.41398438 68.6875 132.6875 C76.14418738 126.27474886 82.39566915 118.99188512 84 109 C84.85676794 96.71029588 83.423156 87.33812618 75.44921875 77.6171875 C70.19537443 72.00303169 64.45943569 66.87554115 58.80126953 61.67529297 C56.64506451 59.66988787 54.5614577 57.60244096 52.5 55.5 C50.1485271 53.10754282 47.73629824 50.86853577 45.1875 48.6875 C41.79804373 45.7774953 38.63548893 42.67839675 35.5 39.5 C32.44663047 36.40507389 29.37676245 33.38065663 26.0625 30.5625 C22.52317826 27.54644554 19.26529989 24.3053183 16 21 C10.66232711 15.60294529 5.33785189 10.2252346 -1 6 C-1.99 6.495 -1.99 6.495 -3 7 C-1.125 2.25 -1.125 2.25 0 0 Z " fill="#F95491" transform="translate(198,194)"/>
<path d="M0 0 C11.1903173 3.45090623 21.69760209 9.69760209 30 18 C33.55896985 18.15817644 36.57744416 17.9354491 40 17 C41.15754698 18.86779121 42.30056261 20.74459249 43.4375 22.625 C44.07558594 23.66914062 44.71367187 24.71328125 45.37109375 25.7890625 C47.05260251 29.10369128 48.04492234 31.27643704 48 35 C47.19820313 35.76183594 46.39640625 36.52367187 45.5703125 37.30859375 C42.80618535 40.20294573 42.64147254 40.49975915 42.6171875 44.22265625 C42.68355666 45.83686094 42.77042442 47.45031962 42.875 49.0625 C43.31821726 63.53175431 39.99626434 75.68593822 30.125 86.6875 C24.15841826 92.34705352 16.59672079 95.99644103 9 99 C8.34 98.67 7.68 98.34 7 98 C7.70125 97.44054687 8.4025 96.88109375 9.125 96.3046875 C20.25275443 86.90052547 27.30579058 75.79941761 29 61 C30.23118939 45.03712625 28.03226225 30.38087694 17.99609375 17.41015625 C13.20495666 11.84763751 7.86970126 7.22614543 2.08984375 2.71484375 C1.40019531 2.14894531 0.71054687 1.58304688 0 1 C0 0.67 0 0.34 0 0 Z " fill="#586B74" transform="translate(335,19)"/>
<path d="M0 0 C1.31291016 0.58104492 1.31291016 0.58104492 2.65234375 1.17382812 C7.36413204 3.34988302 10.91082306 5.18332044 13.625 9.8125 C13.88671628 16.48626525 10.16019273 21.4394395 6.625 26.8125 C5.47829616 25.95950232 4.33271066 25.10500133 3.1875 24.25 C2.44628906 23.69957031 1.70507812 23.14914062 0.94140625 22.58203125 C-0.51586504 21.46880377 -1.95005133 20.32399105 -3.34765625 19.13671875 C-8.10417725 15.1500393 -13.12794707 12.14442831 -18.625 9.3125 C-19.31078125 8.94979004 -19.9965625 8.58708008 -20.703125 8.21337891 C-23.59918655 6.77312564 -25.85861177 5.80148176 -29.12109375 5.87109375 C-31.7772494 6.98051058 -33.23522292 8.26960315 -35.1875 10.375 C-35.79207031 11.01566406 -36.39664062 11.65632813 -37.01953125 12.31640625 C-37.46683594 12.81011719 -37.91414063 13.30382812 -38.375 13.8125 C-38.375 10.33499669 -38.04013713 10.09459483 -35.70703125 7.74609375 C-35.14306641 7.17826172 -34.57910156 6.61042969 -33.99804688 6.02539062 C-33.40056641 5.43951172 -32.80308594 4.85363281 -32.1875 4.25 C-31.60935547 3.66025391 -31.03121094 3.07050781 -30.43554688 2.46289062 C-21.03669577 -6.87223945 -11.34987099 -5.41737413 0 0 Z " fill="#FAAE9C" transform="translate(313.375,337.1875)"/>
<path d="M0 0 C0.99 0.86625 1.98 1.7325 3 2.625 C3.64453125 3.16640625 4.2890625 3.7078125 4.953125 4.265625 C6.28168575 5.39135205 7.58598872 6.54659452 8.859375 7.734375 C13.4547982 11.72213894 16.78033222 12.58339007 22.79882812 12.43603516 C29.02208487 11.58835848 34.64607236 8.96902771 40.375 6.5 C42.83662244 5.45719846 45.30363797 4.42979448 47.7734375 3.40625 C49.38871338 2.71499023 49.38871338 2.71499023 51.03662109 2.00976562 C53.9439983 1.01908247 55.96099483 0.69244772 59 1 C64.40820118 4.84300413 67.39681365 11.76231516 69 18 C69.28490135 21.36826922 69.25799888 24.63168126 69 28 C68.67 28 68.34 28 68 28 C67.93683594 27.443125 67.87367188 26.88625 67.80859375 26.3125 C66.73041022 19.59371421 63.96862075 15.59363051 59 11 C54.14600788 8.57300394 48.56274888 9.53185988 43.54443359 11.03515625 C39.72669474 12.454112 35.95283275 13.9488173 32.1875 15.5 C30.24013705 16.29130479 28.2910486 17.07740834 26.33772278 17.85388184 C24.57774167 18.55499971 22.82417606 19.27215989 21.07104492 19.99023438 C18.10752191 20.96464658 16.08275787 21.35974432 13 21 C10.53515625 19.20703125 10.53515625 19.20703125 8.0625 16.8125 C7.20011719 15.99523437 6.33773437 15.17796875 5.44921875 14.3359375 C4.64097656 13.56507813 3.83273438 12.79421875 3 12 C1.02720231 10.29568957 -0.97977894 8.64807508 -3 7 C-3.99 7.495 -3.99 7.495 -5 8 C-3.62845496 5.04590299 -2.01136276 2.55991624 0 0 Z " fill="#F5AA99" transform="translate(187,420)"/>
<path d="M0 0 C2.375 2.0625 2.375 2.0625 5 5 C6.41164581 6.40091086 7.8286184 7.79646819 9.25 9.1875 C13.908695 13.76738249 13.908695 13.76738249 14.25 18.375 C14 22 14 22 12.875 24.375 C10.25065402 26.64943318 8.45152438 26.93096951 5 27 C0.92139592 24.9640576 -2.00684563 22.23358508 -5.1875 19 C-6.04730469 18.13375 -6.90710938 17.2675 -7.79296875 16.375 C-10.61843258 13.33450087 -11.93129548 11.75574974 -12.3125 7.5625 C-11.98804753 3.86374183 -11.63208648 2.5346018 -9 0 C-5.37580435 -1.20806522 -3.66716248 -1.0268055 0 0 Z " fill="#000000" transform="translate(402,458)"/>
<path d="M0 0 C2.4375 1.5 2.4375 1.5 4 4 C4.88170896 10.56074775 4.88170896 10.56074775 2.80737305 13.94677734 C1.16358972 15.88276062 -0.55740696 17.66400468 -2.375 19.4375 C-2.97828125 20.06076172 -3.5815625 20.68402344 -4.203125 21.32617188 C-9.57336319 26.80978176 -9.57336319 26.80978176 -13.8125 27.375 C-17 27 -17 27 -19.875 24.875 C-22.42389586 21.42649383 -22.51742155 20.1962888 -22 16 C-17.14789271 8.22584588 -10.03005209 -1.67167535 0 0 Z " fill="#000000" transform="translate(412,373)"/>
<path d="M0 0 C1.57491211 -0.0299707 1.57491211 -0.0299707 3.18164062 -0.06054688 C4.69854492 -0.05958008 4.69854492 -0.05958008 6.24609375 -0.05859375 C7.63139282 -0.06137329 7.63139282 -0.06137329 9.04467773 -0.06420898 C12.30179864 0.58481491 13.48015073 1.91064074 15.5625 4.4375 C16.74258862 7.05055338 16.62113256 8.1971065 15.9375 11 C14.15005627 14.16865025 12.89016889 14.92688507 9.5625 16.4375 C6.36598247 16.8442293 3.2176823 16.81126585 0 16.75 C-0.85013672 16.75322266 -1.70027344 16.75644531 -2.57617188 16.75976562 C-6.78227161 16.72347771 -9.75346539 16.6507053 -13.4375 14.4375 C-15.53429403 11.74162197 -15.43260821 10.344556 -15.25 6.875 C-13.28504962 -1.43825159 -7.28851003 -0.04903585 0 0 Z " fill="#000000" transform="translate(410.4375,420.5625)"/>
</svg>
