<?xml version="1.0" encoding="UTF-8"?>
<svg version="1.1" xmlns="http://www.w3.org/2000/svg" width="512" height="512">
<path d="M0 0 C1.20591797 -0.01546875 2.41183594 -0.0309375 3.65429688 -0.046875 C14.81248417 0.00241572 14.81248417 0.00241572 19.4375 4.5 C24.72593362 10.2580558 24.00663097 16.45885819 23.9765625 23.96484375 C23.99458234 25.96146857 24.01261193 27.95809335 24.03120995 29.95471287 C24.05241917 32.74237741 24.05584435 35.52995336 24.05914307 38.31768799 C24.06686178 43.19184261 24.09393866 48.06584583 24.13412476 52.93983459 C24.15370007 55.53078977 24.1630956 58.12184706 24.16104126 60.71287537 C24.0072027 71.38483643 24.0072027 71.38483643 29.0390625 80.37109375 C30.03679687 81.21800781 31.03453125 82.06492187 32.0625 82.9375 C32.578125 83.38287109 33.09375 83.82824219 33.625 84.28710938 C34.88435163 85.37155105 36.15937677 86.43774708 37.4375 87.5 C40.26212301 84.99335978 41.87047768 82.20688479 43.6875 78.9140625 C44.2959375 77.81835938 44.904375 76.72265625 45.53125 75.59375 C46.47484375 73.87671875 46.47484375 73.87671875 47.4375 72.125 C48.68690326 69.86685723 49.93688252 67.60903303 51.1875 65.3515625 C51.73921875 64.34947754 52.2909375 63.34739258 52.859375 62.31494141 C54.4375 59.5 54.4375 59.5 56.11743164 57.33959961 C58.23848384 52.77700332 57.83758108 48.18234371 57.80859375 43.21484375 C57.82596921 40.97070155 57.84355366 38.72656095 57.86132812 36.48242188 C57.87142031 32.95138665 57.87499179 29.42045338 57.87329102 25.8894043 C57.87685305 22.47674104 57.90415985 19.06486701 57.93359375 15.65234375 C57.92541122 14.5949852 57.9172287 13.53762665 57.90879822 12.44822693 C57.9833485 5.13403248 57.9833485 5.13403248 60.34399414 1.83837891 C63.26065749 -0.02624483 65.14857945 -0.13930718 68.53515625 0.0625 C70.4375 0.5 70.4375 0.5 72.875 2.4375 C74.91343125 6.43282525 75.24419086 10.06355516 75.4375 14.5 C76.118125 13.819375 76.79875 13.13875 77.5 12.4375 C80.4375 10.5 80.4375 10.5 84.0625 10.5625 C88.74184783 11.86231884 88.74184783 11.86231884 90.4375 14.5 C91.64897962 17.70176757 91.5896687 19.10193551 90.359375 22.3203125 C88.37533722 25.60284656 86.53536083 27.23051517 83.60375977 29.57910156 C77.93034073 34.24655432 77.93034073 34.24655432 74.96240234 40.74755859 C74.8496744 43.26617889 74.88910901 45.73135897 75 48.25 C75.49094161 61.47761151 69.10298284 70.78866914 62.22167969 81.67431641 C60.16084925 84.93814392 58.19512893 88.2510617 56.23632812 91.57666016 C54.66477457 94.23535745 53.05468689 96.8688626 51.4375 99.5 C54.83861254 102.9941521 58.18946323 106.34175312 62.0625 109.3125 C68.07451267 114.43284337 70.41055009 121.20100739 71.57421875 128.8359375 C71.8230481 130.43381104 71.8230481 130.43381104 72.0769043 132.06396484 C72.19590088 132.86785645 72.31489746 133.67174805 72.4375 134.5 C76.47925321 130.48308033 80.51762313 126.46279996 84.55297852 122.43945312 C85.92446313 121.07297806 87.29684639 119.70740428 88.67016602 118.34277344 C90.65100786 116.37414571 92.6285292 114.40223305 94.60546875 112.4296875 C95.21400192 111.82631561 95.8225351 111.22294373 96.44950867 110.60128784 C97.60013107 109.45081523 98.73990819 108.28936696 99.8671875 107.11601257 C101.30831638 105.63294319 102.81506721 104.214387 104.3269043 102.8034668 C107.47166433 97.88134441 107.10909315 93.43946615 107.0390625 87.71484375 C107.04706879 86.58099747 107.05507507 85.44715118 107.06332397 84.27894592 C107.0863689 80.6647651 107.07693471 77.05171091 107.0625 73.4375 C107.0586528 69.81993012 107.0620817 66.20285637 107.08309937 62.58534241 C107.09519022 60.33719347 107.09251696 58.08890517 107.07339478 55.84080505 C107.09414525 50.04350459 107.11753359 45.81996641 111.4375 41.5 C118.47596154 40.92307692 118.47596154 40.92307692 121.68359375 42.84765625 C124.47469352 47.06849532 123.85830053 51.31649229 123.6875 56.25 C123.66945312 57.23355469 123.65140625 58.21710937 123.6328125 59.23046875 C123.58574126 61.65463783 123.52000742 64.07682059 123.4375 66.5 C124.06672363 66.04931152 124.69594727 65.59862305 125.34423828 65.13427734 C133.45572936 59.38677794 133.45572936 59.38677794 138.4375 59.5 C140.76481556 60.63779872 142.60590714 61.66840714 144.4375 63.5 C145.14976335 70.62263346 145.14976335 70.62263346 142.3984375 74.01171875 C140.05864076 75.97801231 138.36205128 77.15024507 135.703125 78.47265625 C131.47263308 80.61207794 127.38479331 82.6865932 124.4375 86.5 C123.40350788 90.5045822 123.60501322 94.51546161 124.26074219 98.57641602 C124.60682324 102.15749331 124.44071355 105.03663059 122.34640312 108.09156322 C120.81657836 109.90948184 119.21971759 111.62964873 117.57250977 113.34204102 C116.95635803 113.99575809 116.3402063 114.64947517 115.7053833 115.32300186 C110.82070219 120.37388854 105.5461167 124.75288179 100.06445312 129.13378906 C85.9922718 140.6592004 71.94559467 152.33477891 69.390625 171.25195312 C68.12420069 184.0347599 68.86233372 196.86570705 69.7220459 209.65081787 C70.08347919 215.68859689 70.21120114 221.73142509 70.3671875 227.77734375 C71.25273877 257.15479679 72.96980594 283.91608144 86.86328125 310.33203125 C88.4375 313.5 88.4375 313.5 88.4375 315.5 C89.28417866 315.49631283 90.13085732 315.49262566 91.0031929 315.48882675 C111.59216866 315.40054027 132.18111185 315.33432184 152.77023697 315.29275131 C162.72693931 315.27211445 172.6835154 315.24397239 182.64013672 315.19824219 C191.31699479 315.15840882 199.99376145 315.13257537 208.67070842 315.12364602 C213.26633821 315.11842533 217.86170644 315.10613157 222.4572525 315.07707977 C226.78120964 315.04996589 231.10479703 315.04154679 235.4288311 315.04756927 C237.01715287 315.04646723 238.60548677 315.03848921 240.19373512 315.0231781 C242.3604278 315.0033121 244.52571961 315.00804695 246.69244385 315.01898193 C247.90552341 315.01529476 249.11860298 315.01160759 250.36844254 315.00780869 C254.04478297 315.59739127 255.25918033 316.52262742 257.4375 319.5 C257.4375 320.49 257.4375 321.48 257.4375 322.5 C263.7075 322.5 269.9775 322.5 276.4375 322.5 C277.0975 320.85 277.7575 319.2 278.4375 317.5 C281.03000941 314.90749059 282.07123118 315.24504626 285.68009949 315.23257446 C287.34767303 315.21977951 287.34767303 315.21977951 289.04893494 315.20672607 C290.88712547 315.20808563 290.88712547 315.20808563 292.76245117 315.20947266 C294.04872406 315.20275543 295.33499695 315.19603821 296.6602478 315.18911743 C300.19562951 315.17141321 303.73091446 315.16676003 307.2663362 315.16548586 C310.21835712 315.16358815 313.17035545 315.15623155 316.12236768 315.14914167 C323.09078602 315.13284106 330.05915268 315.12797399 337.02758789 315.12939453 C344.20987892 315.1305944 351.39186867 315.10952762 358.57408351 315.0779072 C364.74234941 315.05172092 370.91051713 315.04102831 377.07883817 315.04230535 C380.76182048 315.04281458 384.44453554 315.03715452 388.12746239 315.01594925 C392.24037464 314.99291701 396.35261709 315.00210207 400.46557617 315.01416016 C401.68091537 315.00292114 402.89625458 314.99168213 404.14842224 314.98010254 C410.80780702 315.02972476 415.05392744 315.45943297 420.4375 319.5 C424.9773093 324.3982153 425.56264306 327.8665118 425.58467102 334.42610168 C425.59018605 335.48940367 425.59018605 335.48940367 425.5958125 336.5741865 C425.60684773 338.95547083 425.61069288 341.33671151 425.61450195 343.71801758 C425.62076666 345.4229903 425.62741347 347.12796166 425.63441467 348.83293152 C425.65182204 353.46936776 425.66237545 358.10579368 425.6706202 362.7422545 C425.67577034 365.63839475 425.68184602 368.53453179 425.68813133 371.43066978 C425.70718166 380.49049485 425.72141381 389.55031177 425.7297433 398.61015302 C425.73951977 409.07128213 425.76585064 419.53219987 425.80624419 429.99325448 C425.83638976 438.07742011 425.85121064 446.16152509 425.85452431 454.24574584 C425.85687633 459.07500088 425.86585656 463.90403007 425.89098549 468.73322487 C425.91424436 473.27638782 425.91850829 477.81917586 425.90822411 482.36238289 C425.90772812 484.02887468 425.91406699 485.69538478 425.92778015 487.36182022 C425.94547167 489.63931213 425.93840778 491.91545447 425.92524719 494.19294739 C425.92763555 495.46665601 425.9300239 496.74036463 425.93248463 498.05267048 C425.18156893 503.28243664 422.73067023 506.33299272 418.875 509.8125 C415.11622047 512.41473198 412.27553751 512.62682986 407.81647587 512.63701439 C406.63906521 512.64208893 405.46165455 512.64716347 404.24856478 512.65239179 C402.94878221 512.65288955 401.64899963 512.65338731 400.30982971 512.65390015 C398.92003234 512.65791462 397.53023614 512.66235282 396.14044136 512.6671797 C392.31261232 512.67915206 388.48479588 512.68479515 384.65695179 512.68936086 C380.53213668 512.69531418 376.40733667 512.70692445 372.28253174 512.71765137 C362.31853845 512.7421776 352.35454016 512.75680081 342.39052597 512.76971143 C339.57773654 512.77342255 336.76494762 512.77739583 333.95215869 512.7814641 C316.49488519 512.80669466 299.03761093 512.82875335 281.58032322 512.84119225 C277.53654032 512.84412205 273.49275745 512.84708371 269.44897461 512.85009766 C267.94133746 512.85121673 267.94133746 512.85121673 266.403243 512.85235842 C250.10720279 512.86502264 233.81127144 512.89826036 217.51528216 512.93989949 C200.79550365 512.98227246 184.07578095 513.00588171 167.35594887 513.01111281 C157.96380839 513.01453169 148.57183818 513.02634329 139.17975044 513.05921555 C131.18436235 513.08715328 123.1891794 513.09824301 115.19374628 513.08702008 C111.11215386 513.08181769 107.0309915 513.08482191 102.94946098 513.10948563 C99.21559147 513.13186098 95.48246384 513.131331 91.74858236 513.11228175 C89.75241236 513.10812712 87.75623871 513.12871344 85.76017863 513.15006864 C83.99015102 513.13421073 83.99015102 513.13421073 82.18436527 513.11803246 C81.16378436 513.11938898 80.14320345 513.12074551 79.09169585 513.12214315 C75.46002524 512.27088005 74.39514998 510.58578037 72.4375 507.5 C72.4375 506.84 72.4375 506.18 72.4375 505.5 C66.1675 505.5 59.8975 505.5 53.4375 505.5 C53.1075 507.15 52.7775 508.8 52.4375 510.5 C49.15824875 512.6861675 48.2106609 512.75206333 44.40959167 512.76069641 C43.37078354 512.76778122 42.3319754 512.77486603 41.26168823 512.78216553 C39.55276901 512.7784494 39.55276901 512.7784494 37.80932617 512.7746582 C36.6090831 512.77976913 35.40884003 512.78488007 34.17222595 512.79014587 C30.87863444 512.80167736 27.58529433 512.80411316 24.29170012 512.80158257 C21.54084738 512.80051315 18.79001786 512.80539572 16.03917009 512.810188 C9.5468477 512.82128791 3.05458315 512.82171851 -3.43774414 512.81567383 C-10.12981612 512.80963876 -16.8216776 512.8219319 -23.51371366 512.8432439 C-29.26245392 512.86087698 -35.0111273 512.8668584 -40.7598936 512.86360615 C-44.19182758 512.86179515 -47.62361156 512.86441059 -51.05552101 512.87832069 C-54.88589322 512.89064881 -58.71577824 512.8839141 -62.54614258 512.87231445 C-63.67934937 512.87995819 -64.81255615 512.88760193 -65.98010254 512.89547729 C-72.37679363 512.852634 -77.3039265 512.54185127 -82.20703125 507.96484375 C-85.98055697 503.03023319 -86.68843012 500.90686995 -86.70294189 494.69415283 C-86.70591302 493.98613927 -86.70888414 493.2781257 -86.7119453 492.54865718 C-86.72065169 490.16426225 -86.72214218 487.7799174 -86.72363281 485.39550781 C-86.72825967 483.6906829 -86.73328415 481.98585903 -86.73867798 480.28103638 C-86.75181809 475.64040447 -86.75825026 470.99978705 -86.76268864 466.35913944 C-86.76561722 463.46082679 -86.76972165 460.56251811 -86.77419281 457.66420746 C-86.78787297 448.59903711 -86.79753667 439.53387583 -86.8013947 430.46869588 C-86.80587465 419.99910518 -86.82341743 409.5296451 -86.8523953 399.06009412 C-86.87400633 390.97170152 -86.8840987 382.88334567 -86.88543582 374.7949245 C-86.88648441 369.96234545 -86.8924035 365.12988908 -86.91025543 360.29734039 C-86.92672576 355.75013181 -86.92889667 351.20313826 -86.92011642 346.65591049 C-86.91934545 344.98781382 -86.92369674 343.31970564 -86.93357468 341.65163803 C-86.9462807 339.37209652 -86.94042516 337.09331811 -86.92999268 334.81378174 C-86.93145924 333.5387743 -86.9329258 332.26376686 -86.9344368 330.95012283 C-86.45763978 326.52730611 -85.07386873 323.1569954 -82.0625 319.85546875 C-77.98429703 316.679993 -75.24155971 315.36792577 -70.11328125 315.40234375 C-69.26572266 315.40556641 -68.41816406 315.40878906 -67.54492188 315.41210938 C-66.66384766 315.42048828 -65.78277344 315.42886719 -64.875 315.4375 C-63.53598633 315.44426758 -63.53598633 315.44426758 -62.16992188 315.45117188 C-59.96738013 315.46295017 -57.76497401 315.47939836 -55.5625 315.5 C-55.30887695 314.66009521 -55.05525391 313.82019043 -54.79394531 312.95483398 C-53.45214583 309.1904001 -51.73180412 305.7401874 -49.859375 302.22265625 C-49.11834937 300.80671399 -48.37746886 299.39069579 -47.63671875 297.97460938 C-46.48321114 295.78206994 -45.32745982 293.59076277 -44.16845703 291.40112305 C-37.61047536 278.98729605 -31.15171308 266.41096007 -28.25 252.5625 C-28.09466797 251.88638672 -27.93933594 251.21027344 -27.77929688 250.51367188 C-26.09424008 242.95622832 -25.41522054 235.51454518 -25.35717773 227.7890625 C-25.34727814 226.95884079 -25.33737854 226.12861908 -25.32717896 225.27323914 C-25.29585131 222.5571874 -25.27092147 219.84111825 -25.24609375 217.125 C-25.22549934 215.23070854 -25.20450225 213.33642141 -25.18312073 211.44213867 C-25.12815679 206.47743258 -25.0786352 201.5126868 -25.03027344 196.5479126 C-24.9798699 191.47331242 -24.92428263 186.39876926 -24.86914062 181.32421875 C-24.76187354 171.38286131 -24.66035987 161.44145418 -24.5625 151.5 C-25.16594238 151.21568115 -25.76938477 150.9313623 -26.39111328 150.63842773 C-29.4342315 149.04296335 -31.86614615 146.81014884 -34.4375 144.5625 C-39.03468176 140.60328915 -43.70294906 136.77671656 -48.5 133.0625 C-53.54106707 129.13787746 -58.49661488 125.12545108 -63.375 121 C-63.98013428 120.4954126 -64.58526855 119.9908252 -65.20874023 119.47094727 C-69.44471963 115.85334111 -69.44471963 115.85334111 -70.5625 112.5 C-70.55049195 111.10689195 -70.48614007 109.71382648 -70.38671875 108.32421875 C-69.9047458 97.49592201 -69.9047458 97.49592201 -74.70703125 88.13671875 C-77.661677 85.08165567 -80.83020514 82.30926042 -84.1796875 79.69482422 C-85.5625 78.5 -85.5625 78.5 -86.5625 76.5 C-87.02036963 69.28855326 -87.02036963 69.28855326 -85.4375 66.5625 C-82.73573836 65.03150174 -80.66814495 64.6242258 -77.5625 64.5 C-75.23518444 65.63779872 -73.39409286 66.66840714 -71.5625 68.5 C-71.53671875 67.90832031 -71.5109375 67.31664063 -71.484375 66.70703125 C-71.20437889 62.80617635 -70.79522206 59.95613524 -69 56.4375 C-66.01395687 54.06397854 -64.27590424 53.94084649 -60.5625 53.93359375 C-57.45040068 54.81495 -56.47550241 55.84498454 -54.5625 58.5 C-54.02818995 62.03808869 -54.17354444 65.54001865 -54.26953125 69.109375 C-54.27940974 71.24738976 -54.28782714 73.38541169 -54.29492188 75.5234375 C-54.32803576 78.88584595 -54.3749258 82.24663136 -54.44897461 85.60839844 C-54.51230889 88.85971751 -54.51945287 92.10752171 -54.51953125 95.359375 C-54.55665726 96.35547791 -54.59378326 97.35158081 -54.6320343 98.37786865 C-54.60238248 102.74701873 -54.43941788 105.43622168 -51.6000824 108.88058472 C-49.33546268 110.90777063 -47.02666809 112.72380259 -44.5625 114.5 C-43.57121094 115.33789062 -42.57992187 116.17578125 -41.55859375 117.0390625 C-40.71425781 117.72742188 -39.86992188 118.41578125 -39 119.125 C-38.15308594 119.81851563 -37.30617187 120.51203125 -36.43359375 121.2265625 C-32.86161655 124.05498526 -29.21895486 126.78214021 -25.5625 129.5 C-25.54268066 128.64245117 -25.52286133 127.78490234 -25.50244141 126.90136719 C-25.42420479 123.71052358 -25.33750657 120.5200526 -25.24511719 117.32958984 C-25.20690662 115.95044757 -25.17203998 114.57120833 -25.140625 113.19189453 C-25.09480376 111.20583033 -25.03583737 109.22008321 -24.9765625 107.234375 C-24.9451416 106.04038086 -24.9137207 104.84638672 -24.88134766 103.61621094 C-24.57318438 100.60442221 -24.37660371 98.90274078 -22.5625 96.5 C-20.9125 95.84 -19.2625 95.18 -17.5625 94.5 C-17.2325 88.23 -16.9025 81.96 -16.5625 75.5 C-18.2125 75.17 -19.8625 74.84 -21.5625 74.5 C-23.83432248 72.32727118 -24.49094646 70.98524716 -24.95018005 67.87091064 C-24.95558304 66.87355896 -24.96098602 65.87620728 -24.96655273 64.84863281 C-24.97923691 63.71355286 -24.99192108 62.5784729 -25.00498962 61.40899658 C-25.00205399 60.18605896 -24.99911835 58.96312134 -24.99609375 57.703125 C-25.0013356 56.44038757 -25.00657745 55.17765015 -25.01197815 53.87664795 C-25.01840427 51.20325628 -25.01849292 48.53071713 -25.00854492 45.85742188 C-24.99709458 42.45008319 -25.01720546 39.04378699 -25.04646206 35.63658524 C-25.06935454 32.36709447 -25.06235033 29.09767704 -25.05859375 25.828125 C-25.07544472 24.00586395 -25.07544472 24.00586395 -25.09263611 22.14678955 C-25.03527338 15.12889213 -24.40637089 10.4368778 -20.5625 4.5 C-14.44048743 -0.7074185 -7.74544439 -0.09967328 0 0 Z " fill="#DF9873" transform="translate(86.5625,-0.5)"/>
<path d="M0 0 C1.20591797 -0.01546875 2.41183594 -0.0309375 3.65429688 -0.046875 C14.81248417 0.00241572 14.81248417 0.00241572 19.4375 4.5 C24.72593362 10.2580558 24.00663097 16.45885819 23.9765625 23.96484375 C23.99458234 25.96146857 24.01261193 27.95809335 24.03120995 29.95471287 C24.05241917 32.74237741 24.05584435 35.52995336 24.05914307 38.31768799 C24.06686178 43.19184261 24.09393866 48.06584583 24.13412476 52.93983459 C24.15370007 55.53078977 24.1630956 58.12184706 24.16104126 60.71287537 C24.0072027 71.38483643 24.0072027 71.38483643 29.0390625 80.37109375 C30.03679687 81.21800781 31.03453125 82.06492187 32.0625 82.9375 C32.578125 83.38287109 33.09375 83.82824219 33.625 84.28710938 C34.88435163 85.37155105 36.15937677 86.43774708 37.4375 87.5 C40.26212301 84.99335978 41.87047768 82.20688479 43.6875 78.9140625 C44.2959375 77.81835938 44.904375 76.72265625 45.53125 75.59375 C46.47484375 73.87671875 46.47484375 73.87671875 47.4375 72.125 C48.68690326 69.86685723 49.93688252 67.60903303 51.1875 65.3515625 C51.73921875 64.34947754 52.2909375 63.34739258 52.859375 62.31494141 C54.4375 59.5 54.4375 59.5 56.11743164 57.33959961 C58.23848384 52.77700332 57.83758108 48.18234371 57.80859375 43.21484375 C57.82596921 40.97070155 57.84355366 38.72656095 57.86132812 36.48242188 C57.87142031 32.95138665 57.87499179 29.42045338 57.87329102 25.8894043 C57.87685305 22.47674104 57.90415985 19.06486701 57.93359375 15.65234375 C57.92541122 14.5949852 57.9172287 13.53762665 57.90879822 12.44822693 C57.9833485 5.13403248 57.9833485 5.13403248 60.34399414 1.83837891 C63.26065749 -0.02624483 65.14857945 -0.13930718 68.53515625 0.0625 C70.4375 0.5 70.4375 0.5 72.875 2.4375 C74.91343125 6.43282525 75.24419086 10.06355516 75.4375 14.5 C76.118125 13.819375 76.79875 13.13875 77.5 12.4375 C80.4375 10.5 80.4375 10.5 84.0625 10.5625 C88.74184783 11.86231884 88.74184783 11.86231884 90.4375 14.5 C91.64897962 17.70176757 91.5896687 19.10193551 90.359375 22.3203125 C88.37533722 25.60284656 86.53536083 27.23051517 83.60375977 29.57910156 C77.93034073 34.24655432 77.93034073 34.24655432 74.96240234 40.74755859 C74.8496744 43.26617889 74.88910901 45.73135897 75 48.25 C75.49094161 61.47761151 69.10298284 70.78866914 62.22167969 81.67431641 C60.16084925 84.93814392 58.19512893 88.2510617 56.23632812 91.57666016 C54.66477457 94.23535745 53.05468689 96.8688626 51.4375 99.5 C54.83861254 102.9941521 58.18946323 106.34175312 62.0625 109.3125 C68.07451267 114.43284337 70.41055009 121.20100739 71.57421875 128.8359375 C71.8230481 130.43381104 71.8230481 130.43381104 72.0769043 132.06396484 C72.19590088 132.86785645 72.31489746 133.67174805 72.4375 134.5 C76.47925321 130.48308033 80.51762313 126.46279996 84.55297852 122.43945312 C85.92446313 121.07297806 87.29684639 119.70740428 88.67016602 118.34277344 C90.65100786 116.37414571 92.6285292 114.40223305 94.60546875 112.4296875 C95.21400192 111.82631561 95.8225351 111.22294373 96.44950867 110.60128784 C97.60013107 109.45081523 98.73990819 108.28936696 99.8671875 107.11601257 C101.30831638 105.63294319 102.81506721 104.214387 104.3269043 102.8034668 C107.47166433 97.88134441 107.10909315 93.43946615 107.0390625 87.71484375 C107.04706879 86.58099747 107.05507507 85.44715118 107.06332397 84.27894592 C107.0863689 80.6647651 107.07693471 77.05171091 107.0625 73.4375 C107.0586528 69.81993012 107.0620817 66.20285637 107.08309937 62.58534241 C107.09519022 60.33719347 107.09251696 58.08890517 107.07339478 55.84080505 C107.09414525 50.04350459 107.11753359 45.81996641 111.4375 41.5 C118.47596154 40.92307692 118.47596154 40.92307692 121.68359375 42.84765625 C124.47469352 47.06849532 123.85830053 51.31649229 123.6875 56.25 C123.66945312 57.23355469 123.65140625 58.21710937 123.6328125 59.23046875 C123.58574126 61.65463783 123.52000742 64.07682059 123.4375 66.5 C124.06672363 66.04931152 124.69594727 65.59862305 125.34423828 65.13427734 C133.45572936 59.38677794 133.45572936 59.38677794 138.4375 59.5 C140.76481556 60.63779872 142.60590714 61.66840714 144.4375 63.5 C145.14976335 70.62263346 145.14976335 70.62263346 142.3984375 74.01171875 C140.05864076 75.97801231 138.36205128 77.15024507 135.703125 78.47265625 C131.47263308 80.61207794 127.38479331 82.6865932 124.4375 86.5 C123.40350788 90.5045822 123.60501322 94.51546161 124.26074219 98.57641602 C124.60682324 102.15749331 124.44071355 105.03663059 122.34640312 108.09156322 C120.81657836 109.90948184 119.21971759 111.62964873 117.57250977 113.34204102 C116.95635803 113.99575809 116.3402063 114.64947517 115.7053833 115.32300186 C110.82070219 120.37388854 105.5461167 124.75288179 100.06445312 129.13378906 C85.9922718 140.6592004 71.94559467 152.33477891 69.390625 171.25195312 C68.12420069 184.0347599 68.86233372 196.86570705 69.7220459 209.65081787 C70.08347919 215.68859689 70.21120114 221.73142509 70.3671875 227.77734375 C71.25273877 257.15479679 72.96980594 283.91608144 86.86328125 310.33203125 C88.4375 313.5 88.4375 313.5 88.4375 315.5 C89.28417866 315.49631283 90.13085732 315.49262566 91.0031929 315.48882675 C111.59216866 315.40054027 132.18111185 315.33432184 152.77023697 315.29275131 C162.72693931 315.27211445 172.6835154 315.24397239 182.64013672 315.19824219 C191.31699479 315.15840882 199.99376145 315.13257537 208.67070842 315.12364602 C213.26633821 315.11842533 217.86170644 315.10613157 222.4572525 315.07707977 C226.78120964 315.04996589 231.10479703 315.04154679 235.4288311 315.04756927 C237.01715287 315.04646723 238.60548677 315.03848921 240.19373512 315.0231781 C242.3604278 315.0033121 244.52571961 315.00804695 246.69244385 315.01898193 C247.90552341 315.01529476 249.11860298 315.01160759 250.36844254 315.00780869 C254.05077518 315.59835225 255.22554068 316.54787442 257.4375 319.5 C258 322.4375 258 322.4375 257.4375 325.5 C255.39945387 328.37022416 253.79746465 330.23008263 250.24594116 330.93496704 C247.51892494 331.07927346 244.83534693 331.0617788 242.10546875 330.98828125 C241.11372147 330.98120651 240.12197418 330.97413177 239.10017395 330.96684265 C235.94100658 330.93891433 232.78362918 330.8761772 229.625 330.8125 C227.47984335 330.78741518 225.33465885 330.76460234 223.18945312 330.74414062 C217.93819416 330.68909327 212.68797497 330.6054831 207.4375 330.5 C205.22237104 352.22092582 205.22237104 352.22092582 212.4765625 371.76171875 C216.20282766 375.67140306 220.26733494 379.07529111 224.6875 382.17602539 C226.4375 383.5 226.4375 383.5 227.4375 385.5 C227.8125 388.875 227.8125 388.875 227.4375 392.5 C225.08527641 395.12104914 223.57082504 396.33196169 220.06640625 396.8515625 C216.49686761 396.37420964 215.14592076 394.90949526 212.5625 392.4375 C211.70140625 391.6228125 210.8403125 390.808125 209.953125 389.96875 C209.12296875 389.1540625 208.2928125 388.339375 207.4375 387.5 C206.71046875 386.7884375 205.9834375 386.076875 205.234375 385.34375 C203.62043744 383.74293388 202.02107992 382.1307727 200.4375 380.5 C197.59051696 381.78960671 195.57948224 383.12381942 193.41650391 385.37329102 C192.85557037 385.95051407 192.29463684 386.52773712 191.71670532 387.12245178 C191.12183319 387.74333176 190.52696106 388.36421173 189.9140625 389.00390625 C188.63324841 390.31487915 187.35198447 391.62541267 186.0703125 392.93554688 C184.06164007 395.00001576 182.05711171 397.06810317 180.06054688 399.14428711 C178.12706429 401.15039435 176.17816437 403.14044348 174.2265625 405.12890625 C173.340327 406.06326256 173.340327 406.06326256 172.43618774 407.01649475 C169.68893357 409.79684279 167.99492835 411.33025489 164.19287109 412.48803711 C161.4375 412.5 161.4375 412.5 158.5625 411.0625 C156.14378151 408.14581006 155.88632993 406.34649831 155.98779297 402.60131836 C156.82118516 398.70717795 159.54551778 396.5532816 162.4375 394 C163.00984375 393.46375 163.5821875 392.9275 164.171875 392.375 C165.5762113 391.06428612 167.00457505 389.77939727 168.4375 388.5 C167.54448344 387.43513145 166.6479053 386.37324959 165.75 385.3125 C165.00169922 384.42498047 165.00169922 384.42498047 164.23828125 383.51953125 C163.64402344 382.85308594 163.04976562 382.18664062 162.4375 381.5 C161.48617187 380.16001953 161.48617187 380.16001953 160.515625 378.79296875 C155.68409405 375.19384607 150.73705531 375.91325359 144.875 376 C133.2467016 376.17148937 133.2467016 376.17148937 129.66015625 373.1953125 C127.98192329 369.49569351 128.29333534 367.36155573 129.4375 363.5 C133.53882506 359.35401661 138.19397425 359.99045957 143.70703125 359.89453125 C145.67736328 359.88486328 145.67736328 359.88486328 147.6875 359.875 C148.98558594 359.82988281 150.28367188 359.78476562 151.62109375 359.73828125 C162.34899703 359.66173148 162.34899703 359.66173148 167.046875 363.73046875 C168.20638723 364.95998926 169.33982722 366.21496935 170.4375 367.5 C171.345 368.37527344 172.2525 369.25054687 173.1875 370.15234375 C174.30125 371.28349609 174.30125 371.28349609 175.4375 372.4375 C176.200625 373.20964844 176.96375 373.98179687 177.75 374.77734375 C178.5853125 375.63005859 178.5853125 375.63005859 179.4375 376.5 C180.50236855 375.60698344 181.56425041 374.7104053 182.625 373.8125 C183.21667969 373.31363281 183.80835938 372.81476563 184.41796875 372.30078125 C186.84956744 370.13256655 189.13382607 367.80367393 191.4375 365.5 C191.7675 353.95 192.0975 342.4 192.4375 330.5 C168.3475 330.5 144.2575 330.5 119.4375 330.5 C118.7775 332.15 118.1175 333.8 117.4375 335.5 C116.60439317 336.97574683 115.73311354 338.43048977 114.828125 339.86328125 C114.32023438 340.66830078 113.81234375 341.47332031 113.2890625 342.30273438 C112.76054687 343.13095703 112.23203125 343.95917969 111.6875 344.8125 C111.17445313 345.62912109 110.66140625 346.44574219 110.1328125 347.28710938 C108.59364699 349.71380876 107.05439022 352.12403709 105.4375 354.5 C105.083461 355.17144547 104.729422 355.84289093 104.36465454 356.53468323 C102.26611397 360.04501964 100.72959019 362.12837252 96.70556641 363.28575134 C93.23772478 363.64484589 89.8537582 363.73973237 86.3671875 363.73828125 C85.09457062 363.75779343 83.82195374 363.7773056 82.51077271 363.79740906 C79.8170996 363.82475667 77.1296456 363.8346655 74.43652344 363.81762695 C71.69486848 363.8035855 68.96115119 363.83797634 66.22070312 363.92016602 C42.42744787 364.62732786 42.42744787 364.62732786 36.06689453 359.71972656 C32.915382 356.64563323 30.71909715 353.25078274 28.4375 349.5 C26.87084812 347.48527994 25.2230377 345.56501482 23.5625 343.625 C22.90507813 342.80257813 22.24765625 341.98015625 21.5703125 341.1328125 C20.86648437 340.26398438 20.16265625 339.39515625 19.4375 338.5 C19.04449707 337.8918042 18.65149414 337.2836084 18.24658203 336.65698242 C16.09727732 333.61568142 14.58456056 331.79398248 10.89599609 330.84863281 C7.93140643 330.58819885 5.03803145 330.52986514 2.0625 330.5625 C1.04027344 330.54638672 0.01804687 330.53027344 -1.03515625 330.51367188 C-3.54564339 330.47847813 -6.05201293 330.4748378 -8.5625 330.5 C-8.5310791 331.45253662 -8.5310791 331.45253662 -8.49902344 332.42431641 C-8.41545419 335.32438076 -8.36371226 338.22419116 -8.3125 341.125 C-8.27898437 342.12402344 -8.24546875 343.12304688 -8.2109375 344.15234375 C-8.13107077 350.18228155 -8.45982212 353.7526156 -12.5625 358.5 C-13.12453125 359.19867188 -13.6865625 359.89734375 -14.265625 360.6171875 C-15.03132813 361.48730469 -15.03132813 361.48730469 -15.8125 362.375 C-16.33328125 362.97054688 -16.8540625 363.56609375 -17.390625 364.1796875 C-17.77734375 364.61539062 -18.1640625 365.05109375 -18.5625 365.5 C-17.92441406 366.08007812 -17.28632812 366.66015625 -16.62890625 367.2578125 C-15.80261719 368.03898437 -14.97632812 368.82015625 -14.125 369.625 C-13.30128906 370.39070313 -12.47757812 371.15640625 -11.62890625 371.9453125 C-9.23103198 374.90979222 -8.72681886 376.72066624 -8.5625 380.5 C-10 383.375 -10 383.375 -12.5625 385.5 C-17.30549635 386.62545676 -17.30549635 386.62545676 -20.5625 385.5 C-23.92339159 382.80086536 -26.76108484 379.76831769 -29.5625 376.5 C-30.02140625 376.89832031 -30.4803125 377.29664063 -30.953125 377.70703125 C-32.2183569 378.79948988 -33.48944459 379.88519512 -34.765625 380.96484375 C-36.05902451 382.06985681 -37.32144246 383.21150856 -38.5625 384.375 C-41.68358727 386.13061159 -44.06203714 385.93755786 -47.5625 385.5 C-50 383.875 -50 383.875 -51.5625 381.5 C-51.92622153 378.14921543 -52.01059448 376.21107871 -50.19140625 373.32421875 C-49.50949219 372.61910156 -48.82757813 371.91398437 -48.125 371.1875 C-47.320625 370.34832031 -46.51625 369.50914062 -45.6875 368.64453125 C-44.64592131 367.59626675 -43.60424237 366.54810184 -42.5625 365.5 C-41.12466715 364.02506398 -39.68719496 362.54977634 -38.25 361.07421875 C-36.70985441 359.5063169 -35.1681768 357.93991854 -33.625 356.375 C-32.86711182 355.60373779 -32.10922363 354.83247559 -31.32836914 354.0378418 C-30.25510376 352.96336792 -30.25510376 352.96336792 -29.16015625 351.8671875 C-28.51570557 351.21862793 -27.87125488 350.57006836 -27.20727539 349.90185547 C-25.5625 348.5 -25.5625 348.5 -23.5625 348.5 C-23.5625 342.56 -23.5625 336.62 -23.5625 330.5 C-39.0725 330.83 -54.5825 331.16 -70.5625 331.5 C-70.5625 385.95 -70.5625 440.4 -70.5625 496.5 C-36.4075 496.995 -36.4075 496.995 -1.5625 497.5 C-2.0575 488.59 -2.0575 488.59 -2.5625 479.5 C-9.8225 475.87 -17.0825 472.24 -24.5625 468.5 C-26.8725 470.48 -29.1825 472.46 -31.5625 474.5 C-34.43720493 475.93735246 -36.38144588 475.88172649 -39.5625 475.5 C-42.43323815 472.93144481 -43.45160878 471.36769524 -43.94140625 467.53515625 C-43.5625 464.5 -43.5625 464.5 -41.62890625 462.75390625 C-40.80261719 462.19574219 -39.97632813 461.63757813 -39.125 461.0625 C-35.24791769 457.57795717 -34.25546411 454.96579638 -33.8828125 449.91015625 C-33.76584744 446.76050737 -33.74974604 443.63770309 -33.81274414 440.48657227 C-33.82684326 439.50358154 -33.84094238 438.52059082 -33.85546875 437.5078125 C-33.8918042 436.61723145 -33.92813965 435.72665039 -33.96557617 434.80908203 C-33.5625 432.5 -33.5625 432.5 -31.7277832 430.71826172 C-28.7216766 429.02692426 -26.96292723 428.94482821 -23.5625 429.5 C-20.63234482 431.5691008 -18.79868814 433.152533 -18.16186523 436.78564453 C-18.07033177 439.47759515 -18.12640647 442.12196398 -18.25 444.8125 C-18.27255859 445.74384766 -18.29511719 446.67519531 -18.31835938 447.63476562 C-18.37707922 449.9248396 -18.45913142 452.21157875 -18.5625 454.5 C-17.6861792 454.77473145 -16.8098584 455.04946289 -15.90698242 455.33251953 C-10.63832079 457.17168589 -5.81759665 459.80349307 -0.875 462.375 C0.16978516 462.90480469 1.21457031 463.43460937 2.29101562 463.98046875 C3.29197266 464.49996094 4.29292969 465.01945312 5.32421875 465.5546875 C6.23389404 466.02374512 7.14356934 466.49280273 8.08081055 466.97607422 C10.64308851 468.63294142 11.96940829 469.82753489 13.4375 472.5 C13.77807617 475.24902344 13.77807617 475.24902344 13.73046875 478.359375 C13.72080078 479.47441406 13.71113281 480.58945312 13.70117188 481.73828125 C13.67603516 482.89714844 13.65089844 484.05601562 13.625 485.25 C13.60469727 487.01150391 13.60469727 487.01150391 13.58398438 488.80859375 C13.5486478 491.70619298 13.49930979 494.60286427 13.4375 497.5 C14.47156982 497.47381592 15.50563965 497.44763184 16.57104492 497.4206543 C20.41929359 497.32993577 24.2674484 497.27267341 28.11645508 497.2253418 C29.78002839 497.20024653 31.44349196 497.16616204 33.10668945 497.12280273 C35.50239153 497.0619254 37.89663251 497.03374231 40.29296875 497.01171875 C41.40263252 496.97300911 41.40263252 496.97300911 42.53471375 496.93351746 C46.50929117 496.93137421 48.24942586 497.35206975 51.41137695 499.83911133 C53.4375 502.5 53.4375 502.5 54 505.5625 C53.30547552 509.18946118 52.2806717 510.20252378 49.4375 512.5 C47.0255146 513.00057125 47.0255146 513.00057125 44.28933716 513.00120544 C43.24915436 513.01103958 42.20897156 513.02087372 41.13726807 513.03100586 C39.43374176 513.01650391 39.43374176 513.01650391 37.69580078 513.00170898 C36.49541168 513.00711197 35.29502258 513.01251495 34.05825806 513.01808167 C30.76870884 513.02844646 27.4798127 513.0208642 24.19030619 513.00437045 C20.74445095 512.99050877 17.29862575 512.99698154 13.85275269 513.00050354 C8.06402169 513.00320552 2.27549805 512.9897338 -3.51318359 512.96655273 C-10.19791398 512.93996802 -16.88229715 512.93818786 -23.56706226 512.9499411 C-30.00422711 512.9607374 -36.44126684 512.95451571 -42.87842178 512.94038582 C-45.61434017 512.93463949 -48.35016658 512.93469806 -51.08608627 512.93945122 C-54.9116075 512.94236184 -58.73656208 512.92586115 -62.56201172 512.90405273 C-63.69364746 512.90855438 -64.8252832 512.91305603 -65.99121094 512.91769409 C-72.37760427 512.85721071 -77.31267714 512.53368262 -82.20703125 507.96484375 C-85.98055697 503.03023319 -86.68843012 500.90686995 -86.70294189 494.69415283 C-86.70591302 493.98613927 -86.70888414 493.2781257 -86.7119453 492.54865718 C-86.72065169 490.16426225 -86.72214218 487.7799174 -86.72363281 485.39550781 C-86.72825967 483.6906829 -86.73328415 481.98585903 -86.73867798 480.28103638 C-86.75181809 475.64040447 -86.75825026 470.99978705 -86.76268864 466.35913944 C-86.76561722 463.46082679 -86.76972165 460.56251811 -86.77419281 457.66420746 C-86.78787297 448.59903711 -86.79753667 439.53387583 -86.8013947 430.46869588 C-86.80587465 419.99910518 -86.82341743 409.5296451 -86.8523953 399.06009412 C-86.87400633 390.97170152 -86.8840987 382.88334567 -86.88543582 374.7949245 C-86.88648441 369.96234545 -86.8924035 365.12988908 -86.91025543 360.29734039 C-86.92672576 355.75013181 -86.92889667 351.20313826 -86.92011642 346.65591049 C-86.91934545 344.98781382 -86.92369674 343.31970564 -86.93357468 341.65163803 C-86.9462807 339.37209652 -86.94042516 337.09331811 -86.92999268 334.81378174 C-86.93145924 333.5387743 -86.9329258 332.26376686 -86.9344368 330.95012283 C-86.45763978 326.52730611 -85.07386873 323.1569954 -82.0625 319.85546875 C-77.98429703 316.679993 -75.24155971 315.36792577 -70.11328125 315.40234375 C-69.26572266 315.40556641 -68.41816406 315.40878906 -67.54492188 315.41210938 C-66.66384766 315.42048828 -65.78277344 315.42886719 -64.875 315.4375 C-63.53598633 315.44426758 -63.53598633 315.44426758 -62.16992188 315.45117188 C-59.96738013 315.46295017 -57.76497401 315.47939836 -55.5625 315.5 C-55.30887695 314.66009521 -55.05525391 313.82019043 -54.79394531 312.95483398 C-53.45214583 309.1904001 -51.73180412 305.7401874 -49.859375 302.22265625 C-49.11834937 300.80671399 -48.37746886 299.39069579 -47.63671875 297.97460938 C-46.48321114 295.78206994 -45.32745982 293.59076277 -44.16845703 291.40112305 C-37.61047536 278.98729605 -31.15171308 266.41096007 -28.25 252.5625 C-28.09466797 251.88638672 -27.93933594 251.21027344 -27.77929688 250.51367188 C-26.09424008 242.95622832 -25.41522054 235.51454518 -25.35717773 227.7890625 C-25.34727814 226.95884079 -25.33737854 226.12861908 -25.32717896 225.27323914 C-25.29585131 222.5571874 -25.27092147 219.84111825 -25.24609375 217.125 C-25.22549934 215.23070854 -25.20450225 213.33642141 -25.18312073 211.44213867 C-25.12815679 206.47743258 -25.0786352 201.5126868 -25.03027344 196.5479126 C-24.9798699 191.47331242 -24.92428263 186.39876926 -24.86914062 181.32421875 C-24.76187354 171.38286131 -24.66035987 161.44145418 -24.5625 151.5 C-25.16594238 151.21568115 -25.76938477 150.9313623 -26.39111328 150.63842773 C-29.4342315 149.04296335 -31.86614615 146.81014884 -34.4375 144.5625 C-39.03468176 140.60328915 -43.70294906 136.77671656 -48.5 133.0625 C-53.54106707 129.13787746 -58.49661488 125.12545108 -63.375 121 C-63.98013428 120.4954126 -64.58526855 119.9908252 -65.20874023 119.47094727 C-69.44471963 115.85334111 -69.44471963 115.85334111 -70.5625 112.5 C-70.55049195 111.10689195 -70.48614007 109.71382648 -70.38671875 108.32421875 C-69.9047458 97.49592201 -69.9047458 97.49592201 -74.70703125 88.13671875 C-77.661677 85.08165567 -80.83020514 82.30926042 -84.1796875 79.69482422 C-85.5625 78.5 -85.5625 78.5 -86.5625 76.5 C-87.02036963 69.28855326 -87.02036963 69.28855326 -85.4375 66.5625 C-82.73573836 65.03150174 -80.66814495 64.6242258 -77.5625 64.5 C-75.23518444 65.63779872 -73.39409286 66.66840714 -71.5625 68.5 C-71.53671875 67.90832031 -71.5109375 67.31664063 -71.484375 66.70703125 C-71.20437889 62.80617635 -70.79522206 59.95613524 -69 56.4375 C-66.01395687 54.06397854 -64.27590424 53.94084649 -60.5625 53.93359375 C-57.45040068 54.81495 -56.47550241 55.84498454 -54.5625 58.5 C-54.02818995 62.03808869 -54.17354444 65.54001865 -54.26953125 69.109375 C-54.27940974 71.24738976 -54.28782714 73.38541169 -54.29492188 75.5234375 C-54.32803576 78.88584595 -54.3749258 82.24663136 -54.44897461 85.60839844 C-54.51230889 88.85971751 -54.51945287 92.10752171 -54.51953125 95.359375 C-54.55665726 96.35547791 -54.59378326 97.35158081 -54.6320343 98.37786865 C-54.60238248 102.74701873 -54.43941788 105.43622168 -51.6000824 108.88058472 C-49.33546268 110.90777063 -47.02666809 112.72380259 -44.5625 114.5 C-43.57121094 115.33789062 -42.57992187 116.17578125 -41.55859375 117.0390625 C-40.71425781 117.72742188 -39.86992188 118.41578125 -39 119.125 C-38.15308594 119.81851563 -37.30617187 120.51203125 -36.43359375 121.2265625 C-32.86161655 124.05498526 -29.21895486 126.78214021 -25.5625 129.5 C-25.54268066 128.64245117 -25.52286133 127.78490234 -25.50244141 126.90136719 C-25.42420479 123.71052358 -25.33750657 120.5200526 -25.24511719 117.32958984 C-25.20690662 115.95044757 -25.17203998 114.57120833 -25.140625 113.19189453 C-25.09480376 111.20583033 -25.03583737 109.22008321 -24.9765625 107.234375 C-24.9451416 106.04038086 -24.9137207 104.84638672 -24.88134766 103.61621094 C-24.57318438 100.60442221 -24.37660371 98.90274078 -22.5625 96.5 C-20.9125 95.84 -19.2625 95.18 -17.5625 94.5 C-17.2325 88.23 -16.9025 81.96 -16.5625 75.5 C-18.2125 75.17 -19.8625 74.84 -21.5625 74.5 C-23.83432248 72.32727118 -24.49094646 70.98524716 -24.95018005 67.87091064 C-24.95558304 66.87355896 -24.96098602 65.87620728 -24.96655273 64.84863281 C-24.97923691 63.71355286 -24.99192108 62.5784729 -25.00498962 61.40899658 C-25.00205399 60.18605896 -24.99911835 58.96312134 -24.99609375 57.703125 C-25.0013356 56.44038757 -25.00657745 55.17765015 -25.01197815 53.87664795 C-25.01840427 51.20325628 -25.01849292 48.53071713 -25.00854492 45.85742188 C-24.99709458 42.45008319 -25.01720546 39.04378699 -25.04646206 35.63658524 C-25.06935454 32.36709447 -25.06235033 29.09767704 -25.05859375 25.828125 C-25.07544472 24.00586395 -25.07544472 24.00586395 -25.09263611 22.14678955 C-25.03527338 15.12889213 -24.40637089 10.4368778 -20.5625 4.5 C-14.44048743 -0.7074185 -7.74544439 -0.09967328 0 0 Z " fill="#010100" transform="translate(86.5625,-0.5)"/>
<path d="M0 0 C4.33035908 2.28414545 7.02574829 5.47703939 9.90234375 9.3125 C10.55589844 8.73242188 10.55589844 8.73242188 11.22265625 8.140625 C13.09413586 6.50409304 14.99570594 4.90785 16.90234375 3.3125 C17.80984375 2.52875 18.71734375 1.745 19.65234375 0.9375 C24.40591803 -1.43928714 28.68720429 -1.44917462 33.90234375 -0.6875 C39.53689912 1.97610799 42.60082112 5.89949429 44.8125 11.69921875 C45.55298724 13.89312746 46.25063994 16.09078246 46.90234375 18.3125 C47.44761719 18.02375 47.99289062 17.735 48.5546875 17.4375 C54.02948924 14.74221299 58.79167436 13.05792009 64.90234375 14.3125 C70.09230213 16.52253463 73.46173521 19.14284736 75.90234375 24.3125 C76.23046875 27.46875 76.23046875 27.46875 76.15234375 30.8125 C76.136875 31.9159375 76.12140625 33.019375 76.10546875 34.15625 C75.92421836 36.97260228 75.53737311 39.56753436 74.90234375 42.3125 C75.77117187 42.26609375 76.64 42.2196875 77.53515625 42.171875 C86.94775438 41.87707327 86.94775438 41.87707327 91.46484375 43.9375 C95.88685121 48.24612265 98.51857214 52.12048441 99 58.30859375 C98.69318387 64.60446072 94.26740106 70.19176062 90.90234375 75.3125 C91.72734375 75.498125 92.55234375 75.68375 93.40234375 75.875 C98.04094524 77.7801399 101.48853109 80.65426161 104.90234375 84.3125 C106.80336514 90.01556416 106.86263838 96.09964716 104.46484375 101.625 C101.04848831 105.20800693 97.25078308 107.94520292 92.90234375 110.3125 C92.24234375 110.3125 91.58234375 110.3125 90.90234375 110.3125 C91.64291016 111.364375 91.64291016 111.364375 92.3984375 112.4375 C99.12883719 122.40445005 99.12883719 122.40445005 98.90234375 129.3125 C97.66210744 135.52527257 95.06393514 138.76390592 89.90234375 142.3125 C86.617149 143.40756492 84.1657096 143.41210608 80.71484375 143.375 C79.62816406 143.36597656 78.54148437 143.35695312 77.421875 143.34765625 C76.59042969 143.33605469 75.75898438 143.32445312 74.90234375 143.3125 C75.06089844 144.01632813 75.21945312 144.72015625 75.3828125 145.4453125 C76.48732336 151.54088371 77.20910673 158.60005728 74.40234375 164.3125 C70.48850286 169.00910907 66.54023785 170.92170087 60.52734375 171.8125 C55.61347906 171.13472556 51.40377987 169.34131628 46.90234375 167.3125 C46.7321875 167.89257812 46.56203125 168.47265625 46.38671875 169.0703125 C44.43714192 175.35458674 42.25923262 180.12806641 37.33984375 184.6875 C32.46608597 186.99145822 28.20328592 187.081097 22.90234375 186.3125 C17.69153076 183.85456934 14.4220037 179.75575866 10.90234375 175.3125 C10.2990625 175.93898437 9.69578125 176.56546875 9.07421875 177.2109375 C8.275 178.02820313 7.47578125 178.84546875 6.65234375 179.6875 C5.8634375 180.49960938 5.07453125 181.31171875 4.26171875 182.1484375 C-0.20013334 186.24093097 -3.63328349 186.76954247 -9.5625 186.62109375 C-13.72762748 186.11409056 -15.76104454 184.91505713 -19.09765625 182.3125 C-22.35434193 177.60839847 -24.20915162 172.6947382 -26.09765625 167.3125 C-27.05865234 167.745625 -27.05865234 167.745625 -28.0390625 168.1875 C-34.47172093 170.94846219 -39.35397998 172.66022346 -46.22265625 170.1875 C-50.16057943 167.61928923 -52.96878208 164.57024835 -55.09765625 160.3125 C-55.19449189 158.54382545 -55.22745007 156.77131697 -55.22265625 155 C-55.22523438 154.05511719 -55.2278125 153.11023438 -55.23046875 152.13671875 C-55.10301925 149.42654264 -54.70361851 146.95276415 -54.09765625 144.3125 C-54.88269531 144.28671875 -55.66773438 144.2609375 -56.4765625 144.234375 C-64.75503181 143.78743923 -69.66889557 142.91709456 -75.53515625 136.75 C-77.7515716 131.87388624 -77.88048986 127.58511459 -77.09765625 122.3125 C-76.03365145 119.65248801 -74.7307061 117.71404389 -73.09765625 115.3125 C-72.39479322 113.66077188 -71.71110382 111.99948082 -71.09765625 110.3125 C-71.7009375 110.00957031 -72.30421875 109.70664063 -72.92578125 109.39453125 C-78.39189861 106.52922779 -82.25830217 103.99120816 -85.09765625 98.3125 C-85.60571096 93.21529542 -85.71630098 88.73807265 -83.66015625 84 C-80.24380081 80.41699307 -76.44609558 77.67979708 -72.09765625 75.3125 C-71.43765625 75.3125 -70.77765625 75.3125 -70.09765625 75.3125 C-70.51917969 74.69761719 -70.94070313 74.08273438 -71.375 73.44921875 C-71.92285156 72.64097656 -72.47070312 71.83273438 -73.03515625 71 C-73.58042969 70.19949219 -74.12570312 69.39898437 -74.6875 68.57421875 C-77.84474824 63.51037738 -77.7022647 58.10183299 -77.09765625 52.3125 C-74.52338785 47.16396319 -71.55163224 44.130492 -66.09765625 42.3125 C-64.03620518 42.243509 -61.97264224 42.22782273 -59.91015625 42.25 C-58.28013672 42.26353516 -58.28013672 42.26353516 -56.6171875 42.27734375 C-55.78574219 42.28894531 -54.95429688 42.30054688 -54.09765625 42.3125 C-54.34515625 40.889375 -54.34515625 40.889375 -54.59765625 39.4375 C-56.29384217 26.93129334 -56.29384217 26.93129334 -53.53515625 21.4375 C-50.2322977 17.20306596 -47.27506114 14.80738784 -41.890625 13.96875 C-36.53556564 13.74980379 -32.87934117 15.01729124 -28.09765625 17.3125 C-27.10765625 17.3125 -26.11765625 17.3125 -25.09765625 17.3125 C-24.93910156 16.66023438 -24.78054688 16.00796875 -24.6171875 15.3359375 C-22.9133348 8.95355002 -21.15330737 3.82561715 -15.26953125 0.1796875 C-10.56463865 -1.69888472 -4.79214556 -1.57061009 0 0 Z " fill="#FBDD75" transform="translate(406.09765625,0.6875)"/>
<path d="M0 0 C5.61 0 11.22 0 17 0 C17.0093457 1.80073975 17.01869141 3.60147949 17.02832031 5.45678711 C17.06397869 11.43605576 17.11785892 17.41493283 17.18390274 23.39392757 C17.22325196 27.01564669 17.2555012 30.63712725 17.27099609 34.2590332 C17.28624655 37.76067303 17.32083721 41.26165647 17.36830902 44.7630024 C17.39015817 46.73520513 17.3924665 48.70759352 17.39434814 50.67991638 C17.58471753 62.46381033 20.69166452 69.73649367 29 78 C35.51599251 84.26466137 42.28609272 90.11734927 49.31640625 95.80078125 C52.11032917 98.09041531 54.8500329 100.42692994 57.5625 102.8125 C58.36816406 103.52019531 59.17382812 104.22789063 60.00390625 104.95703125 C63.56602299 108.60279848 64.24982123 111.47554499 64.2515564 116.52056885 C64.25693924 117.64412277 64.26232208 118.7676767 64.26786804 119.92527771 C64.26374405 121.15424271 64.25962006 122.3832077 64.25537109 123.64941406 C64.26092982 125.64273802 64.26649285 127.63606197 64.27221513 129.62938547 C64.27655579 131.77333645 64.27608473 133.91724112 64.27439499 136.06119537 C64.27155058 140.55443197 64.28596354 145.04751265 64.30337524 149.54071045 C64.35027056 162.31927062 64.37427632 175.09782246 64.38085938 187.87646484 C64.38464823 194.93340731 64.4029919 201.990175 64.43595374 209.04704261 C64.45263785 212.76908915 64.462143 216.49081836 64.45301437 220.21289825 C64.40340006 242.35874065 64.94040492 264.55670752 73.6875 285.25 C74.48435856 287.23385908 75.2799877 289.21821255 76.07421875 291.203125 C76.42057373 292.03489258 76.76692871 292.86666016 77.1237793 293.72363281 C78 296 78 296 79 300 C43.03 300 7.06 300 -30 300 C-27.36 294.72 -24.72 289.44 -22 284 C-14.37050381 268.63215618 -7.82860539 253.90333736 -3.75 237.1875 C-3.58636963 236.51799316 -3.42273926 235.84848633 -3.25415039 235.15869141 C-1.01223148 225.39862369 -0.84515373 215.60372412 -0.82299805 205.62744141 C-0.81642685 204.32542786 -0.80985565 203.02341431 -0.80308533 201.6819458 C-0.78226351 197.40516344 -0.77171676 193.12838152 -0.76171875 188.8515625 C-0.75766563 187.37257241 -0.75354855 185.89358248 -0.74936867 184.41459274 C-0.73038023 177.4755903 -0.71612546 170.53659818 -0.7077567 163.59757483 C-0.69795034 155.6013396 -0.67151655 147.60537865 -0.63125581 139.60924017 C-0.6011293 133.4128466 -0.58629191 127.21653202 -0.58297569 121.02006662 C-0.5806251 117.3244268 -0.57166071 113.62908226 -0.54651451 109.93352127 C-0.51897207 105.82089988 -0.52305409 101.70889904 -0.5300293 97.59619141 C-0.51081421 95.76183029 -0.51081421 95.76183029 -0.49121094 93.89041138 C-0.49815475 92.77186768 -0.50509857 91.65332397 -0.51225281 90.50088501 C-0.50986445 89.52939829 -0.5074761 88.55791157 -0.50501537 87.55698586 C-1.14638802 84.24379047 -2.39246476 83.07766534 -5 81 C-6.485 80.505 -6.485 80.505 -8 80 C-8 73.4 -8 66.8 -8 60 C-6.02 59.34 -4.04 58.68 -2 58 C-0.99777511 56.21035482 -0.99777511 56.21035482 -1 54 C-0.94778793 53.16474792 -0.89557587 52.32949585 -0.84178162 51.46893311 C-0.82623734 50.51851135 -0.81069305 49.5680896 -0.79467773 48.58886719 C-0.77473251 47.50804871 -0.75478729 46.42723022 -0.73423767 45.31365967 C-0.70916893 43.57285126 -0.70916893 43.57285126 -0.68359375 41.796875 C-0.66281265 40.60394836 -0.64203156 39.41102173 -0.62062073 38.1819458 C-0.55523761 34.37135577 -0.49629224 30.56069686 -0.4375 26.75 C-0.39430411 24.16665954 -0.35068948 21.58332605 -0.30664062 19 C-0.19956763 12.66673726 -0.09826826 6.33340523 0 0 Z " fill="#DB7E65" transform="translate(78,15)"/>
<path d="M0 0 C1.28656494 -0.0071553 2.57312988 -0.01431061 3.89868164 -0.02168274 C7.42592411 -0.04020438 10.95241106 -0.02725212 14.47962213 -0.00759244 C18.17458991 0.00880007 21.86951005 -0.00002014 25.5644989 -0.00511169 C31.7727768 -0.00963372 37.98075355 0.00623938 44.18896484 0.03417969 C51.35657148 0.06619005 58.52363368 0.0662328 65.69127876 0.04896492 C72.59405646 0.03307039 79.49663545 0.03985483 86.39940453 0.05690193 C89.33268745 0.06375726 92.26581037 0.06275556 95.19909096 0.05535698 C99.30230264 0.04623496 103.40468199 0.07029117 107.5078125 0.09765625 C108.72000961 0.09113037 109.93220673 0.08460449 111.18113708 0.07788086 C117.82503955 0.15316646 122.07403068 0.60619396 127.44799805 4.63110352 C131.98780734 9.52931881 132.57314111 12.99761531 132.59516907 19.5572052 C132.59884576 20.26607319 132.60252244 20.97494118 132.60631055 21.70529002 C132.61734578 24.08657434 132.62119093 26.46781503 132.625 28.84912109 C132.63126471 30.55409382 132.63791151 32.25906518 132.64491272 33.96403503 C132.66232008 38.60047127 132.6728735 43.2368972 132.68111825 47.87335801 C132.68626838 50.76949826 132.69234407 53.66563531 132.69862938 56.5617733 C132.71767971 65.62159837 132.73191186 74.68141529 132.74024135 83.74125654 C132.75001782 94.20238564 132.77634869 104.66330339 132.81674224 115.124358 C132.84688781 123.20852363 132.86170869 131.2926286 132.86502236 139.37684935 C132.86737437 144.2061044 132.87635461 149.03513359 132.90148354 153.86432838 C132.92474241 158.40749134 132.92900634 162.95027937 132.91872215 167.4934864 C132.91822617 169.15997819 132.92456503 170.8264883 132.9382782 172.49292374 C132.95596972 174.77041565 132.94890582 177.04655799 132.93574524 179.3240509 C132.93813359 180.59775952 132.94052195 181.87146814 132.94298267 183.18377399 C132.19206698 188.41354016 129.74116828 191.46409623 125.88549805 194.94360352 C122.12671852 197.5458355 119.28603555 197.75793338 114.82697392 197.7681179 C113.64956326 197.77319245 112.4721526 197.77826699 111.25906283 197.78349531 C109.95928025 197.78399306 108.65949768 197.78449082 107.32032776 197.78500366 C105.93053039 197.78901814 104.54073419 197.79345634 103.1509394 197.79828322 C99.32311036 197.81025558 95.49529393 197.81589866 91.66744983 197.82046437 C87.54263472 197.8264177 83.41783471 197.83802796 79.29302979 197.84875488 C69.32903649 197.87328112 59.3650382 197.88790432 49.40102401 197.90081495 C46.58823459 197.90452607 43.77544566 197.90849934 40.96265674 197.91256762 C23.50538324 197.93779817 6.04810897 197.95985686 -11.40917873 197.97229576 C-15.45296163 197.97522557 -19.49674451 197.97818722 -23.54052734 197.98120117 C-25.04816449 197.98232025 -25.04816449 197.98232025 -26.58625896 197.98346193 C-42.88229916 197.99612615 -59.17823052 198.02936388 -75.47421979 198.071003 C-92.19399831 198.11337598 -108.913721 198.13698523 -125.63355309 198.14221632 C-135.02569356 198.14563521 -144.41766378 198.15744681 -153.80975151 198.19031906 C-161.8051396 198.21825679 -169.80032255 198.22934653 -177.79575568 198.2181236 C-181.87734809 198.2129212 -185.95851045 198.21592542 -190.04004097 198.24058914 C-193.77391048 198.2629645 -197.50703812 198.26243452 -201.2409196 198.24338527 C-203.23708959 198.23923064 -205.23326324 198.25981696 -207.22932333 198.28117216 C-208.40934173 198.27060022 -209.58936014 198.26002827 -210.80513668 198.24913597 C-211.82571759 198.2504925 -212.8462985 198.25184903 -213.89780611 198.25324667 C-216.55200195 197.63110352 -216.55200195 197.63110352 -218.94633728 195.31903899 C-220.55200195 192.63110352 -220.55200195 192.63110352 -219.98950195 189.00610352 C-217.98046269 184.28922873 -217.98046269 184.28922873 -215.55200195 182.63110352 C-212.76189765 182.35054212 -210.19770984 182.25215893 -207.40869141 182.29052734 C-206.16445404 182.28987022 -206.16445404 182.28987022 -204.89508057 182.28919983 C-202.15157587 182.29129093 -199.40868123 182.31463691 -196.6652832 182.33813477 C-194.76385329 182.34372958 -192.86241906 182.34800022 -190.96098328 182.35099792 C-185.95494663 182.3624557 -180.94917084 182.39193093 -175.9432373 182.42510986 C-170.83564788 182.45579064 -165.72801633 182.469499 -160.62036133 182.48461914 C-150.59746022 182.51679971 -140.57475277 182.56800736 -130.55200195 182.63110352 C-130.62887125 179.71754461 -130.72823997 176.80772162 -130.84082031 173.89550781 C-130.86020409 173.07243889 -130.87958786 172.24936996 -130.89955902 171.40135956 C-131.10039271 166.71629875 -131.2994759 163.74170501 -134.9309082 160.40063477 C-136.3021856 159.3828553 -137.69772084 158.39702262 -139.11450195 157.44360352 C-144.10489292 153.3851982 -146.91621601 150.26311952 -147.68481445 143.72485352 C-148.22524114 128.96810701 -148.22524114 128.96810701 -144.66137695 123.99047852 C-141.68101792 122.06980269 -140.03083827 121.99213358 -136.55200195 122.63110352 C-133.85668945 124.70141602 -133.85668945 124.70141602 -131.55200195 127.63110352 C-131.3371582 131.12719727 -131.3371582 131.12719727 -131.61450195 135.06860352 C-131.67790428 138.92740001 -131.67735828 142.25837298 -129.15258789 145.33813477 C-127.31715691 146.97549765 -125.40114507 148.52090047 -123.48950195 150.06860352 C-116.55200195 157.63110352 -116.55200195 157.63110352 -116.55200195 182.63110352 C-62.76200195 182.30110352 -8.97200195 181.97110352 46.44799805 181.63110352 C42.15799805 175.69110352 37.86799805 169.75110352 33.44799805 163.63110352 C31.79799805 161.32110352 30.14799805 159.01110352 28.44799805 156.63110352 C25.76532436 155.51641551 25.76532436 155.51641551 22.80664062 155.52026367 C21.14384819 155.41447495 21.14384819 155.41447495 19.44746399 155.30654907 C18.25783554 155.26154266 17.06820709 155.21653625 15.8425293 155.17016602 C13.30670455 155.00637355 10.7708978 154.84230222 8.23510742 154.67797852 C4.25074093 154.4602884 0.26632011 154.25638781 -3.71923828 154.06176758 C-7.57656591 153.86175977 -11.42837291 153.61159786 -15.2824707 153.35766602 C-16.461978 153.31670807 -17.64148529 153.27575012 -18.85673523 153.23355103 C-28.01872164 152.60745166 -32.42366181 149.27269744 -38.55200195 142.63110352 C-39.90754136 141.2977352 -41.26732801 139.96864949 -42.6340332 138.64672852 C-43.88016341 137.39414167 -45.123703 136.13897166 -46.36450195 134.88110352 C-46.99291992 134.24817383 -47.62133789 133.61524414 -48.26879883 132.96313477 C-49.48068294 131.74236773 -50.6893705 130.51841607 -51.89428711 129.29077148 C-52.94626956 128.23754959 -54.01716522 127.20262918 -55.11206055 126.1940918 C-56.5012207 124.90454102 -56.5012207 124.90454102 -58.55200195 122.63110352 C-58.55200195 119.08749109 -58.21050239 116.7651876 -56.42700195 113.69360352 C-53.19248414 111.86071009 -51.21228761 112.03105669 -47.55200195 112.63110352 C-43.06372207 115.37337063 -39.62102709 119.55192635 -36.05981445 123.36547852 C-35.42237305 124.03377686 -34.78493164 124.7020752 -34.12817383 125.390625 C-32.85184211 126.7335521 -31.59427625 128.09463205 -30.35864258 129.47509766 C-25.48190857 134.60620773 -21.51524503 135.98828444 -14.55200195 136.63110352 C-13.17322876 136.93419434 -13.17322876 136.93419434 -11.76660156 137.2434082 C-7.62075734 137.83393482 -4.37801133 137.87424229 -0.8024292 135.44000244 C3.96015931 131.4367907 8.09445778 126.79930036 12.26049805 122.19360352 C14.16435104 120.12344357 16.07659234 118.06305738 18.00822449 116.01878357 C19.20333991 114.75071633 20.3820654 113.46693532 21.54121399 112.16590881 C24.43356799 109.06418892 25.97438829 107.76174271 30.17333984 106.60351562 C33.44799805 106.63110352 33.44799805 106.63110352 36.44799805 108.63110352 C38.44799805 111.63110352 38.44799805 111.63110352 38.35253906 115.00244141 C37.30934674 119.18731794 36.05503189 120.72622189 32.9753418 123.68969727 C32.0762207 124.56948242 31.17709961 125.44926758 30.25073242 126.35571289 C29.30520508 127.2509668 28.35967773 128.1462207 27.38549805 129.06860352 C26.42514294 129.9988311 25.46614312 130.93046002 24.50854492 131.86352539 C22.16798432 134.13351632 19.81459026 136.38831693 17.44799805 138.63110352 C19.61571881 140.79882428 25.29651707 139.93144325 28.36987305 139.97290039 C33.39516325 140.17151021 35.95317139 141.02179116 39.44799805 144.63110352 C41.03593052 146.64956698 42.50611775 148.64029762 43.94799805 150.75610352 C44.81312618 151.99621549 45.67905463 153.23576941 46.5456543 154.47485352 C47.0072998 155.1387207 47.46894531 155.80258789 47.94458008 156.48657227 C50.71609673 160.4399666 53.55448633 164.34521317 56.38549805 168.25610352 C56.94108398 169.02583496 57.49666992 169.79556641 58.0690918 170.58862305 C61.03586191 174.7121423 61.03586191 174.7121423 64.12207031 178.74584961 C65.44799805 180.63110352 65.44799805 180.63110352 65.44799805 182.63110352 C90.69299805 182.13610352 90.69299805 182.13610352 116.44799805 181.63110352 C116.44799805 127.18110352 116.44799805 72.73110352 116.44799805 16.63110352 C93.34799805 16.30110352 70.24799805 15.97110352 46.44799805 15.63110352 C44.56530761 39.33106665 44.56530761 39.33106665 54.44799805 47.63110352 C55.41608398 48.35168945 56.38416992 49.07227539 57.3815918 49.81469727 C60.7309866 54.37975143 59.71256166 59.20861882 59.51049805 64.69360352 C59.44484183 75.06130857 59.44484183 75.06130857 64.75048828 83.57226562 C67.22060967 85.74965294 69.77841233 87.70263825 72.44799805 89.63110352 C73.89230659 92.51972061 73.8248831 94.42758053 73.44799805 97.63110352 C71.20961342 100.57298046 69.80711949 102.40943461 66.0769043 103.01782227 C62.52426284 102.49521973 61.15071108 101.03513723 58.57299805 98.56860352 C57.70932617 97.74875977 56.8456543 96.92891602 55.95581055 96.08422852 C55.12823242 95.27469727 54.3006543 94.46516602 53.44799805 93.63110352 C52.74416992 92.96594727 52.0403418 92.30079102 51.31518555 91.61547852 C44.67439285 85.22475751 44.67439285 85.22475751 44.22436523 80.0690918 C44.23113281 79.12275879 44.23790039 78.17642578 44.24487305 77.20141602 C44.23327148 76.15856445 44.22166992 75.11571289 44.2097168 74.04125977 C44.20193217 71.858968 44.20963381 69.67656366 44.2331543 67.49438477 C44.17816415 60.5742714 44.17816415 60.5742714 40.6784668 54.85375977 C37.78323461 52.51008341 37.78323461 52.51008341 35.2019043 52.30688477 C34.47874023 52.51700195 33.75557617 52.72711914 33.01049805 52.94360352 C32.15842773 53.17563477 31.30635742 53.40766602 30.4284668 53.64672852 C25.65468783 55.22338946 20.89020493 56.8101827 16.15893555 58.51000977 C13.35917078 59.35583344 11.07278542 59.8752236 8.21606445 60.20117188 C6.97260254 60.34304932 5.72914063 60.48492676 4.44799805 60.63110352 C4.46894531 61.66517334 4.48989258 62.69924316 4.51147461 63.76464844 C4.58405093 67.6129768 4.62986122 71.46124505 4.66772461 75.31005859 C4.68780012 76.97357365 4.71506681 78.63701848 4.74975586 80.30029297 C4.79845571 82.69589591 4.8210066 85.09056344 4.83862305 87.48657227 C4.85926819 88.22634811 4.87991333 88.96612396 4.90118408 89.72831726 C4.90275263 93.36433092 4.54496378 95.47140374 2.64233398 98.60498047 C0.44799805 100.63110352 0.44799805 100.63110352 -3.05200195 101.19360352 C-7.16836261 100.53204555 -8.11229855 99.94693621 -10.55200195 96.63110352 C-10.90140124 93.8802416 -11.02085375 91.54274791 -10.94262695 88.80297852 C-10.93696716 88.05397278 -10.93130737 87.30496704 -10.92547607 86.53326416 C-10.90314253 84.14855152 -10.85295581 81.76535943 -10.80200195 79.38110352 C-10.78193286 77.7613336 -10.7636828 76.14154006 -10.74731445 74.52172852 C-10.70328819 70.55760385 -10.63428493 66.59461119 -10.55200195 62.63110352 C-11.38393066 62.67037964 -11.38393066 62.67037964 -12.23266602 62.71044922 C-14.75548765 62.81464355 -17.27785684 62.87949243 -19.80200195 62.94360352 C-20.67469727 62.98549805 -21.54739258 63.02739258 -22.4465332 63.07055664 C-28.93646799 63.19441036 -28.93646799 63.19441036 -32.13012695 60.27172852 C-33.72335175 57.31288246 -34.22741627 55.9237483 -33.55200195 52.63110352 C-31.54008292 50.12773209 -30.38944875 48.77289663 -27.17138672 48.22802734 C-26.28765381 48.26436279 -25.4039209 48.30069824 -24.4934082 48.33813477 C-23.48117187 48.35231445 -22.46893555 48.36649414 -21.42602539 48.38110352 C-20.33322266 48.40172852 -19.24041992 48.42235352 -18.11450195 48.44360352 C-3.47355638 48.36029799 8.86782943 44.45475379 22.51733398 39.55493164 C25.44799805 38.63110352 25.44799805 38.63110352 31.44799805 37.63110352 C31.44799805 30.37110352 31.44799805 23.11110352 31.44799805 15.63110352 C26.86151367 15.70071289 26.86151367 15.70071289 22.18237305 15.77172852 C19.22031311 15.80292525 16.25827149 15.8272124 13.29614258 15.85083008 C11.23779099 15.87094321 9.17949653 15.89823749 7.12133789 15.93286133 C4.16237291 15.98139235 1.20416344 16.00407518 -1.75512695 16.02172852 C-3.13501801 16.05269623 -3.13501801 16.05269623 -4.54278564 16.08428955 C-10.92117151 16.08652879 -10.92117151 16.08652879 -14.10180664 13.7902832 C-16.01709078 10.93863793 -16.55200195 9.07464045 -16.55200195 5.63110352 C-13.32169611 -1.41673697 -6.72146408 -0.06450845 0 0 Z " fill="#010100" transform="translate(379.552001953125,314.368896484375)"/>
<path d="M0 0 C4.33035908 2.28414545 7.02574829 5.47703939 9.90234375 9.3125 C10.55589844 8.73242188 10.55589844 8.73242188 11.22265625 8.140625 C13.09413586 6.50409304 14.99570594 4.90785 16.90234375 3.3125 C17.80984375 2.52875 18.71734375 1.745 19.65234375 0.9375 C24.40591803 -1.43928714 28.68720429 -1.44917462 33.90234375 -0.6875 C39.53689912 1.97610799 42.60082112 5.89949429 44.8125 11.69921875 C45.55298724 13.89312746 46.25063994 16.09078246 46.90234375 18.3125 C47.44761719 18.02375 47.99289062 17.735 48.5546875 17.4375 C54.02948924 14.74221299 58.79167436 13.05792009 64.90234375 14.3125 C70.09230213 16.52253463 73.46173521 19.14284736 75.90234375 24.3125 C76.23046875 27.46875 76.23046875 27.46875 76.15234375 30.8125 C76.136875 31.9159375 76.12140625 33.019375 76.10546875 34.15625 C75.92421836 36.97260228 75.53737311 39.56753436 74.90234375 42.3125 C75.77117187 42.26609375 76.64 42.2196875 77.53515625 42.171875 C86.94775438 41.87707327 86.94775438 41.87707327 91.46484375 43.9375 C95.88685121 48.24612265 98.51857214 52.12048441 99 58.30859375 C98.69318387 64.60446072 94.26740106 70.19176062 90.90234375 75.3125 C91.72734375 75.498125 92.55234375 75.68375 93.40234375 75.875 C98.04094524 77.7801399 101.48853109 80.65426161 104.90234375 84.3125 C106.80336514 90.01556416 106.86263838 96.09964716 104.46484375 101.625 C101.04848831 105.20800693 97.25078308 107.94520292 92.90234375 110.3125 C92.24234375 110.3125 91.58234375 110.3125 90.90234375 110.3125 C91.64291016 111.364375 91.64291016 111.364375 92.3984375 112.4375 C99.12883719 122.40445005 99.12883719 122.40445005 98.90234375 129.3125 C97.66210744 135.52527257 95.06393514 138.76390592 89.90234375 142.3125 C86.617149 143.40756492 84.1657096 143.41210608 80.71484375 143.375 C79.62816406 143.36597656 78.54148437 143.35695312 77.421875 143.34765625 C76.59042969 143.33605469 75.75898438 143.32445312 74.90234375 143.3125 C75.06089844 144.01632813 75.21945312 144.72015625 75.3828125 145.4453125 C76.48732336 151.54088371 77.20910673 158.60005728 74.40234375 164.3125 C70.48850286 169.00910907 66.54023785 170.92170087 60.52734375 171.8125 C55.61347906 171.13472556 51.40377987 169.34131628 46.90234375 167.3125 C46.7321875 167.89257812 46.56203125 168.47265625 46.38671875 169.0703125 C44.43714192 175.35458674 42.25923262 180.12806641 37.33984375 184.6875 C32.46608597 186.99145822 28.20328592 187.081097 22.90234375 186.3125 C17.69153076 183.85456934 14.4220037 179.75575866 10.90234375 175.3125 C10.2990625 175.93898437 9.69578125 176.56546875 9.07421875 177.2109375 C8.275 178.02820313 7.47578125 178.84546875 6.65234375 179.6875 C5.8634375 180.49960938 5.07453125 181.31171875 4.26171875 182.1484375 C-0.20013334 186.24093097 -3.63328349 186.76954247 -9.5625 186.62109375 C-13.72762748 186.11409056 -15.76104454 184.91505713 -19.09765625 182.3125 C-22.35434193 177.60839847 -24.20915162 172.6947382 -26.09765625 167.3125 C-27.05865234 167.745625 -27.05865234 167.745625 -28.0390625 168.1875 C-34.47172093 170.94846219 -39.35397998 172.66022346 -46.22265625 170.1875 C-50.16057943 167.61928923 -52.96878208 164.57024835 -55.09765625 160.3125 C-55.19449189 158.54382545 -55.22745007 156.77131697 -55.22265625 155 C-55.22523438 154.05511719 -55.2278125 153.11023438 -55.23046875 152.13671875 C-55.10301925 149.42654264 -54.70361851 146.95276415 -54.09765625 144.3125 C-54.88269531 144.28671875 -55.66773438 144.2609375 -56.4765625 144.234375 C-64.75503181 143.78743923 -69.66889557 142.91709456 -75.53515625 136.75 C-77.7515716 131.87388624 -77.88048986 127.58511459 -77.09765625 122.3125 C-76.03365145 119.65248801 -74.7307061 117.71404389 -73.09765625 115.3125 C-72.39479322 113.66077188 -71.71110382 111.99948082 -71.09765625 110.3125 C-71.7009375 110.00957031 -72.30421875 109.70664063 -72.92578125 109.39453125 C-78.39189861 106.52922779 -82.25830217 103.99120816 -85.09765625 98.3125 C-85.60571096 93.21529542 -85.71630098 88.73807265 -83.66015625 84 C-80.24380081 80.41699307 -76.44609558 77.67979708 -72.09765625 75.3125 C-71.43765625 75.3125 -70.77765625 75.3125 -70.09765625 75.3125 C-70.51917969 74.69761719 -70.94070313 74.08273438 -71.375 73.44921875 C-71.92285156 72.64097656 -72.47070312 71.83273438 -73.03515625 71 C-73.58042969 70.19949219 -74.12570312 69.39898437 -74.6875 68.57421875 C-77.84474824 63.51037738 -77.7022647 58.10183299 -77.09765625 52.3125 C-74.52338785 47.16396319 -71.55163224 44.130492 -66.09765625 42.3125 C-64.03620518 42.243509 -61.97264224 42.22782273 -59.91015625 42.25 C-58.28013672 42.26353516 -58.28013672 42.26353516 -56.6171875 42.27734375 C-55.78574219 42.28894531 -54.95429688 42.30054688 -54.09765625 42.3125 C-54.34515625 40.889375 -54.34515625 40.889375 -54.59765625 39.4375 C-56.29384217 26.93129334 -56.29384217 26.93129334 -53.53515625 21.4375 C-50.2322977 17.20306596 -47.27506114 14.80738784 -41.890625 13.96875 C-36.53556564 13.74980379 -32.87934117 15.01729124 -28.09765625 17.3125 C-27.10765625 17.3125 -26.11765625 17.3125 -25.09765625 17.3125 C-24.93910156 16.66023438 -24.78054688 16.00796875 -24.6171875 15.3359375 C-22.9133348 8.95355002 -21.15330737 3.82561715 -15.26953125 0.1796875 C-10.56463865 -1.69888472 -4.79214556 -1.57061009 0 0 Z M-8.09765625 14.3125 C-8.42636719 15.63314453 -8.42636719 15.63314453 -8.76171875 16.98046875 C-11.9213729 28.55302318 -11.9213729 28.55302318 -18.09765625 32.3125 C-22.44978223 34.48856299 -28.15876366 33.80220562 -32.7578125 32.640625 C-34.89918981 31.92117652 -37.00470226 31.16181466 -39.09765625 30.3125 C-39.05125 31.38628906 -39.00484375 32.46007812 -38.95703125 33.56640625 C-38.50972614 48.12089488 -38.50972614 48.12089488 -43.09765625 53.3125 C-48.50784577 57.47418425 -55.52968439 57.0299018 -62.09765625 57.3125 C-60.78718269 60.09266353 -59.27687374 62.45801982 -57.47265625 64.9375 C-54.54904279 69.57376276 -54.08967462 73.95339769 -55.09765625 79.3125 C-57.06981664 84.58954351 -59.37103792 86.5455009 -64.28515625 89.1875 C-65.91517578 90.08082031 -65.91517578 90.08082031 -67.578125 90.9921875 C-68.40957031 91.42789063 -69.24101562 91.86359375 -70.09765625 92.3125 C-66.57740233 95.02100587 -62.88846902 97.36805683 -59.12109375 99.71484375 C-56.13983053 102.06877552 -55.29889243 104.08379835 -54.69140625 107.79296875 C-54.4612951 114.43742829 -55.59679282 118.17663781 -59.6875 123.4375 C-61.29079525 125.36276511 -61.29079525 125.36276511 -62.09765625 128.3125 C-61.15664063 128.33828125 -60.215625 128.3640625 -59.24609375 128.390625 C-46.56248067 128.96834651 -46.56248067 128.96834651 -42.09765625 133.3125 C-38.57817811 137.81709523 -38.7316593 141.66482421 -38.91015625 147.125 C-38.93045898 148.30739258 -38.93045898 148.30739258 -38.95117188 149.51367188 C-38.98632169 151.44691169 -39.04012264 153.37979682 -39.09765625 155.3125 C-35.01801344 154.01094994 -35.01801344 154.01094994 -31.09765625 152.3125 C-24.91888268 151.78750617 -19.29942297 151.54121913 -14.09765625 155.3125 C-10.61538926 159.5686041 -9.52694289 165.0920559 -8.09765625 170.3125 C-5.32274803 169.06061833 -4.10751083 168.3248977 -2.16015625 165.875 C0.61795358 162.423409 2.73114417 160.57799007 7.234375 160.02734375 C12.53048331 159.84471933 16.47469675 160.16395102 20.90234375 163.3125 C23.37887001 165.86972773 25.67427721 168.53730469 27.90234375 171.3125 C30.34711096 168.86773279 30.40798247 167.41231514 31.08984375 164.0625 C32.36801875 159.27091784 33.70535303 156.23550591 37.74609375 153.2734375 C42.6128916 151.10453846 48.0459295 151.39658456 53.05859375 153.00390625 C54.69658667 153.72226332 56.30257935 154.5126178 57.90234375 155.3125 C58.89234375 155.3125 59.88234375 155.3125 60.90234375 155.3125 C60.74185547 153.68441406 60.74185547 153.68441406 60.578125 152.0234375 C60.45612454 150.57820125 60.33508147 149.13288397 60.21484375 147.6875 C60.14201172 146.97464844 60.06917969 146.26179687 59.99414062 145.52734375 C59.61219521 140.62945551 60.09431954 137.54003314 62.90234375 133.3125 C66.27110547 129.6839973 70.45751496 129.5770639 75.15234375 129.125 C75.89742187 129.04314453 76.6425 128.96128906 77.41015625 128.87695312 C79.23969731 128.67758006 81.07089526 128.49351526 82.90234375 128.3125 C81.41597512 124.32663255 79.59125602 121.60858601 76.90234375 118.3125 C75.94465925 115.4394465 75.70698916 113.43389007 75.65234375 110.4375 C75.61367188 109.17292969 75.61367188 109.17292969 75.57421875 107.8828125 C75.99286851 104.60338937 76.87647505 102.93048063 78.90234375 100.3125 C81.8203125 98.29296875 81.8203125 98.29296875 85.08984375 96.5 C86.17652344 95.89542969 87.26320313 95.29085937 88.3828125 94.66796875 C89.21425781 94.22066406 90.04570312 93.77335937 90.90234375 93.3125 C88.75982894 91.00260122 86.62463597 89.44753623 83.90234375 87.875 C79.64301103 85.27250863 77.50071582 83.10761622 75.90234375 78.3125 C75.02116523 72.75772906 75.64520564 69.11481704 78.83984375 64.4375 C79.38511719 63.71820313 79.93039062 62.99890625 80.4921875 62.2578125 C82.08504337 60.26567158 82.08504337 60.26567158 82.90234375 57.3125 C81.59910156 57.27382812 81.59910156 57.27382812 80.26953125 57.234375 C68.47858251 56.65405985 68.47858251 56.65405985 63.90234375 52.3125 C59.88605747 47.87344674 59.46105901 44.47011092 59.6953125 38.7265625 C59.93914303 35.88340652 60.31435435 33.10544963 60.90234375 30.3125 C58.303595 30.75799979 56.09642432 31.2182323 53.71484375 32.375 C48.09601415 34.2479432 42.78899872 34.23867607 37.46484375 31.625 C32.11670234 26.79862848 30.75303531 21.07211811 28.90234375 14.3125 C25.84084444 16.80441804 22.9771596 19.23594425 20.21484375 22.0625 C16.95774139 25.23157257 14.34338899 25.48348866 9.96484375 25.5625 C9.11019531 25.58828125 8.25554687 25.6140625 7.375 25.640625 C4.42741134 25.24947579 3.16675215 24.17097773 0.90234375 22.3125 C0.24234375 22.3125 -0.41765625 22.3125 -1.09765625 22.3125 C-1.49984375 21.44625 -1.49984375 21.44625 -1.91015625 20.5625 C-3.12694814 18.25699957 -4.40099504 16.29193808 -6.09765625 14.3125 C-6.75765625 14.3125 -7.41765625 14.3125 -8.09765625 14.3125 Z " fill="#010100" transform="translate(406.09765625,0.6875)"/>
<path d="M0 0 C10.96719952 6.8951348 19.85159751 17.32987796 23.55786133 29.890625 C24.37382159 33.7834448 24.22677038 37.72394653 24.25 41.6875 C24.270625 42.54794922 24.29125 43.40839844 24.3125 44.29492188 C24.34929788 50.39876998 23.28660545 55.35342796 21 61 C20.720354 61.69391846 20.44070801 62.38783691 20.15258789 63.1027832 C15.27556372 74.61011025 4.96103436 82.66753936 -6.3125 87.3125 C-18.63004961 92.01340058 -32.27513518 91.3052787 -44.25 86.00390625 C-54.46087819 80.88073993 -61.90368513 73.14200409 -67 63 C-67.32742188 62.35933594 -67.65484375 61.71867187 -67.9921875 61.05859375 C-72.33843285 51.80730008 -72.69020384 38.44754482 -70.09375 28.54296875 C-68.89963677 25.56151295 -67.56548516 22.80292437 -66 20 C-65.56558594 19.20207031 -65.13117188 18.40414062 -64.68359375 17.58203125 C-58.90072581 8.00981965 -50.3179232 1.14381109 -40 -3 C-38.67935547 -3.54527344 -38.67935547 -3.54527344 -37.33203125 -4.1015625 C-25.22715473 -7.36547997 -10.90347985 -6.17916003 0 0 Z " fill="#040301" transform="translate(440,51)"/>
<path d="M0 0 C0.70664543 0.60890076 0.70664543 0.60890076 1.42756653 1.23010254 C2.05064194 1.76582886 2.67371735 2.30155518 3.31567383 2.85351562 C3.93114578 3.38319946 4.54661774 3.9128833 5.18074036 4.45861816 C8.52292737 7.29031202 11.99688058 9.96078936 15.44921875 12.65625 C19.18299574 16.08697924 21.66800447 18.56683269 22.36355591 23.66447067 C22.50507343 27.07452296 22.51402791 30.46356137 22.48242188 33.87646484 C22.48842888 35.8701936 22.49443684 37.86392235 22.50048065 39.857651 C22.50310587 41.99607173 22.49588077 44.13425854 22.4858551 46.27265549 C22.46540207 50.75771074 22.47555184 55.24238816 22.4901123 59.72744751 C22.51910145 70.08107218 22.50851009 80.43458541 22.49741364 90.7882309 C22.48767625 100.23502677 22.48685492 109.68162054 22.51729441 119.12838328 C22.52832786 122.84373274 22.53136411 126.55869449 22.5141449 130.27402878 C22.41422517 152.4122139 22.9427691 174.56230055 31.6875 195.25 C32.48435856 197.23385908 33.2799877 199.21821255 34.07421875 201.203125 C34.42057373 202.03489258 34.76692871 202.86666016 35.1237793 203.72363281 C36 206 36 206 37 210 C30.07 210 23.14 210 16 210 C12.08217236 203.14380162 8.96333891 196.28278207 6 189 C5.68804687 188.24976563 5.37609375 187.49953125 5.0546875 186.7265625 C0.11051886 173.55946076 -0.44659316 158.98463959 -0.34057617 145.08544922 C-0.33972672 143.48675554 -0.34021122 141.88806069 -0.34190369 140.28936768 C-0.34275267 136.01360374 -0.32530818 131.73810035 -0.30418181 127.46239614 C-0.28522872 122.9701535 -0.28365008 118.47790268 -0.28010559 113.98562622 C-0.27083919 105.50758647 -0.24629987 97.02966493 -0.21605712 88.55167687 C-0.18234321 78.88761485 -0.1659847 69.22354671 -0.15097082 59.55944037 C-0.11974448 39.706228 -0.06709101 19.85312149 0 0 Z " fill="#D5684A" transform="translate(120,105)"/>
<path d="M0 0 C9.10959165 -0.02312545 18.21917326 -0.04091612 27.3287878 -0.05181217 C31.55831371 -0.05704056 35.7878196 -0.0641374 40.01733398 -0.07543945 C44.09568543 -0.08626991 48.17401757 -0.09227717 52.25238228 -0.09487724 C53.81177639 -0.09673121 55.3711694 -0.10035127 56.93055534 -0.10573006 C59.10729162 -0.11294262 61.28394714 -0.11399085 63.46069336 -0.11352539 C65.32267616 -0.11685631 65.32267616 -0.11685631 67.22227478 -0.12025452 C70 0 70 0 71 1 C71.09909909 3.12396524 71.12632359 5.25128773 71.12698364 7.37756348 C71.12932363 8.38846597 71.12932363 8.38846597 71.13171089 9.41979074 C71.13572286 11.6945958 71.1325305 13.96933498 71.12939453 16.24414062 C71.13074849 17.8682611 71.13252838 19.49238127 71.13470459 21.11650085 C71.13927963 25.53992904 71.13748908 29.96333401 71.1343255 34.38676262 C71.13180226 39.00544169 71.13413934 43.62411871 71.13571167 48.24279785 C71.13753347 56.00057331 71.13512678 63.75833926 71.13037109 71.51611328 C71.12492845 80.49849474 71.1266911 89.48085351 71.1321975 98.46323442 C71.13672833 106.16087301 71.13737933 113.85850475 71.13475883 121.55614424 C71.13319589 126.15993592 71.13300275 130.76371693 71.13629532 135.36750793 C71.1391736 139.69466533 71.13719915 144.02179332 71.13140106 148.34894753 C71.13007323 149.94173445 71.13046797 151.53452383 71.13266373 153.1273098 C71.13537434 155.29238601 71.13199524 157.4573665 71.12698364 159.62243652 C71.1264181 161.44425571 71.1264181 161.44425571 71.12584114 163.30287933 C71 166 71 166 70 167 C62.08 167 54.16 167 46 167 C46 112.22 46 57.44 46 1 C30.82 1 15.64 1 0 1 C0 0.67 0 0.34 0 0 Z " fill="#DB8658" transform="translate(426,330)"/>
<path d="M0 0 C6.76332257 4.95772967 12.6857857 11.56524518 14.58984375 19.8984375 C15.81887503 30.73331853 15.25132854 39.79211912 8.58984375 48.8984375 C2.39728411 56.05821598 -4.6078977 60.30269758 -14.0625 61.2734375 C-21.73789338 61.51880472 -27.86459331 61.03451172 -34.41015625 56.8984375 C-35.45429688 56.26228516 -35.45429688 56.26228516 -36.51953125 55.61328125 C-43.63868397 50.80919135 -48.16516356 44.1705277 -50.41015625 35.8984375 C-51.58609446 25.29237939 -50.82489035 16.76819329 -44.41015625 7.8984375 C-32.94771152 -5.1524359 -15.31000485 -8.9465872 0 0 Z " fill="#FCA75B" transform="translate(434.41015625,65.1015625)"/>
<path d="M0 0 C1.02673828 0.47566406 1.02673828 0.47566406 2.07421875 0.9609375 C5.39750379 2.14116957 8.29754535 2.41197245 11.8125 2.625 C13.55466797 2.73714844 13.55466797 2.73714844 15.33203125 2.8515625 C16.21246094 2.90054688 17.09289062 2.94953125 18 3 C16.68347642 5.78684665 15.1674054 8.18756615 13.375 10.6875 C10.57239072 15.14016623 10.12970814 18.84519435 11 24 C13.67370758 31.45823694 19.40273051 34.37796969 26 38 C23.73833338 40.50813029 21.51275375 41.87866564 18.5 43.375 C14.73377223 45.45101823 12.41353201 46.75940398 11 51 C9.90309509 59.25491258 11.79759565 63.76825139 16.75 70.3125 C18 72 18 72 18 74 C16.35451172 74.12955078 16.35451172 74.12955078 14.67578125 74.26171875 C13.22124094 74.40248072 11.76681933 74.54447295 10.3125 74.6875 C9.2306543 74.76774414 9.2306543 74.76774414 8.12695312 74.84960938 C4.12434765 75.26997433 2.33336204 75.73142086 -0.89453125 78.33203125 C-4.98082459 83.51002448 -5.20317578 86.7050502 -4.625 93.25 C-4.53992188 94.36761719 -4.53992188 94.36761719 -4.453125 95.5078125 C-4.31223742 97.33935108 -4.15748116 99.16981352 -4 101 C-6.65355542 100.54510479 -8.98444892 100.00647553 -11.4765625 98.96875 C-16.46844393 97.05236208 -22.14397896 96.81042793 -27.12890625 98.88671875 C-33.12192828 103.19703481 -34.36294233 110.14672751 -36 117 C-36.70125 116.278125 -37.4025 115.55625 -38.125 114.8125 C-43.21004426 109.74190189 -47.31125714 105.90643028 -54.8125 105.6875 C-59.68624531 105.75125539 -62.26928063 106.70308521 -66 110 C-66.93486278 111.06767058 -67.85178781 112.15131726 -68.75 113.25 C-69.86375 114.61125 -69.86375 114.61125 -71 116 C-71.66 116 -72.32 116 -73 116 C-73.23074219 115.19175781 -73.46148437 114.38351563 -73.69921875 113.55078125 C-76.18279218 105.16640278 -76.18279218 105.16640278 -82 99 C-87.77524492 97.07491836 -93.96551997 97.14337683 -99.5625 99.5 C-100.366875 99.995 -101.17125 100.49 -102 101 C-102.66 101 -103.32 101 -104 101 C-103.67 96.38 -103.34 91.76 -103 87 C-102.67 87 -102.34 87 -102 87 C-102 88.65 -102 90.3 -102 92 C-98.68751922 92.02945031 -95.37507289 92.04694801 -92.0625 92.0625 C-90.67321289 92.07506836 -90.67321289 92.07506836 -89.25585938 92.08789062 C-78.01676143 92.13224361 -78.01676143 92.13224361 -67.1875 89.4375 C-64.04107456 88.23968048 -62.53855845 88 -59 88 C-59 87.34 -59 86.68 -59 86 C-58.20078125 85.97421875 -57.4015625 85.9484375 -56.578125 85.921875 C-42.03533734 85.17083902 -28.67757303 80.69439566 -18.52734375 69.8515625 C-10.59211345 60.23187155 -7.96409381 50.58742459 -7.48242188 38.26367188 C-7.21623884 33.21623884 -7.21623884 33.21623884 -5 31 C-1.37101515 20.7840653 -0.28287769 10.76349629 0 0 Z " fill="#FACD59" transform="translate(471,55)"/>
<path d="M0 0 C4.06997831 0.65410366 5.01089719 1.36799434 7.5 4.5625 C7.95410156 7.21972656 7.95410156 7.21972656 7.890625 10.203125 C7.87773437 11.27304687 7.86484375 12.34296875 7.8515625 13.4453125 C7.81804687 14.55648438 7.78453125 15.66765625 7.75 16.8125 C7.73195312 17.93914062 7.71390625 19.06578125 7.6953125 20.2265625 C7.64820222 23.00606896 7.58243361 25.7838534 7.5 28.5625 C8.17546875 28.75585938 8.8509375 28.94921875 9.546875 29.1484375 C10.43890625 29.40882813 11.3309375 29.66921875 12.25 29.9375 C13.13171875 30.19273437 14.0134375 30.44796875 14.921875 30.7109375 C17.5 31.5625 17.5 31.5625 19.578125 32.7265625 C21.462382 33.72610357 21.462382 33.72610357 23.52490234 33.39648438 C25.94624717 32.37407227 27.27842132 31.10956128 29.1015625 29.21875 C29.75640625 28.54972656 30.41125 27.88070313 31.0859375 27.19140625 C31.75882812 26.48886719 32.43171875 25.78632813 33.125 25.0625 C34.46921383 23.67500656 35.8154711 22.289489 37.1640625 20.90625 C37.75654785 20.28943359 38.3490332 19.67261719 38.95947266 19.03710938 C41.16448163 16.92645103 42.29412511 16.58040216 45.375 16.3125 C48.5 16.5625 48.5 16.5625 50.875 17.5625 C52.92253724 20.08254584 53.24322902 22.16328419 53.078125 25.3828125 C51.92425552 29.73321228 48.64041975 32.50119935 45.5 35.5625 C44.53320312 36.58150391 44.53320312 36.58150391 43.546875 37.62109375 C40.1423456 41.17582298 40.1423456 41.17582298 38.5 42.5625 C37.84 42.5625 37.18 42.5625 36.5 42.5625 C37.53874555 43.7733454 38.58118969 44.98101795 39.625 46.1875 C40.25792969 46.92097656 40.89085937 47.65445313 41.54296875 48.41015625 C43.25802359 50.29637425 45.02811282 51.94346332 46.9375 53.625 C49.5 56.5625 49.5 56.5625 50.125 60.1875 C49.5 63.5625 49.5 63.5625 47.9375 66 C44.42824162 68.2495246 42.62869928 68.20708264 38.5 67.5625 C35.57759492 65.22573947 33.25698761 62.38382664 30.8125 59.5625 C24.8268916 53.14266778 19.15024144 48.5468501 11 45.1875 C10.18829346 44.83042969 9.37658691 44.47335937 8.5402832 44.10546875 C5.14064375 42.85214545 2.73898797 42.1598056 -0.77075195 43.30053711 C-3.15112727 44.57432605 -5.30275235 45.9944707 -7.5 47.5625 C-8.25780762 48.07329102 -9.01561523 48.58408203 -9.79638672 49.11035156 C-12.89821142 51.21321686 -15.96703194 53.35899727 -19.01367188 55.54101562 C-26.18709336 60.48926266 -26.18709336 60.48926266 -31.5 59.5625 C-33.875 58 -33.875 58 -35.5 55.5625 C-36.0625 52.125 -36.0625 52.125 -35.5 48.5625 C-31.79132538 44.18597976 -27.41805309 41.41693858 -22.5625 38.5 C-20.50477293 37.24538209 -18.44977915 35.9898695 -16.41210938 34.70288086 C-14.5 33.5625 -14.5 33.5625 -11.03515625 32 C-7.9975109 29.07936718 -8.07029091 28.1846326 -7.8359375 24.09765625 C-7.82000495 21.9401237 -7.83412935 19.78220424 -7.875 17.625 C-8.00758697 6.46780663 -8.00758697 6.46780663 -5.6953125 2.34375 C-3.5 0.5625 -3.5 0.5625 0 0 Z " fill="#040202" transform="translate(136.5,390.4375)"/>
<path d="M0 0 C3.41981544 2.73585235 3.93100103 4.40858022 4.4375 8.75 C4.07255277 15.22173088 1.96787731 20.75597214 -1.6875 26.0625 C-3.7006186 29.20222626 -4.85862354 31.79969772 -4.63671875 35.65625 C-3.42474517 40.11750245 -0.97255394 43.99579285 1.37109375 47.94921875 C4.69590122 54.17625625 4.9420429 61.50489766 3.50390625 68.3671875 C2.05172499 73.10933874 -0.12194829 76.85422297 -2.87109375 80.94921875 C-4.47345398 83.86008076 -4.97147752 86.75469264 -5.4453125 90.01953125 C-6.13646491 92.48723738 -6.95527656 93.46999909 -9 95 C-13.2519518 95.47243909 -15.72351506 95.67015459 -19.5 93.6875 C-22.06169506 89.09779635 -22.03507986 85.10958498 -21 80 C-19.81130968 77.20016293 -18.39023277 74.54556086 -16.9375 71.875 C-12.99054292 64.83103918 -12.99054292 64.83103918 -13.171875 56.94921875 C-14.39132262 54.07891515 -15.90879512 51.5369046 -17.74609375 49.01953125 C-21.94014524 42.26462589 -21.70720879 34.67580275 -21 27 C-19.87246553 23.03619325 -18.04454768 19.71711615 -15.9140625 16.21484375 C-13.41883748 12.09678442 -12.3096678 8.61704488 -11.58984375 3.91796875 C-10.03682996 -1.13189728 -4.35529695 -0.83250143 0 0 Z " fill="#000000" transform="translate(227,203)"/>
<path d="M0 0 C0.7734375 -0.00773438 1.546875 -0.01546875 2.34375 -0.0234375 C4.5 0.375 4.5 0.375 6.25 1.51953125 C9.09375781 5.74073426 8.10027857 11.54523575 7.5 16.375 C6.2096604 19.95927668 4.45420226 23.11414179 2.5 26.375 C0.32504003 30.2169001 -0.58478098 32.71794738 0 37.25 C1.24342538 41.26180642 3.23442879 44.7991907 5.37890625 48.39453125 C8.79067596 54.42159481 8.32356674 62.62544282 7.5 69.375 C6.27578879 73.04290696 4.53173085 76.10233174 2.5 79.375 C0.78856215 82.89854851 -0.5035495 86.38853247 -1.5 90.1875 C-2.5 93.375 -2.5 93.375 -5.5 95.375 C-9.05025388 95.69775035 -11.59708604 95.77893519 -14.875 94.3125 C-17.68291932 90.9645962 -17.68692997 87.5187288 -17.31640625 83.26953125 C-16.52031333 78.63249516 -14.97184797 75.35425888 -12.375 71.4375 C-9.69289785 67.15670642 -8.59646904 64.01116369 -8.8984375 58.94921875 C-9.85314718 54.86380526 -11.90301344 51.54668654 -14.02734375 47.9609375 C-17.93134399 41.10563734 -18.36970207 34.00961679 -16.5 26.375 C-15.13618469 23.3200537 -13.67958619 20.39022422 -12.08911133 17.45141602 C-10.26152536 14.04612596 -8.96066012 10.98798673 -8.25 7.1875 C-7.18615085 1.77960014 -5.56430946 -0.05564309 0 0 Z " fill="#000000" transform="translate(436.5,202.625)"/>
<path d="M0 0 C2.5625 1.8125 2.5625 1.8125 4 5 C4.71247289 14.23246124 0.98896229 21.51655656 -4 29 C-5.37375275 36.19899277 -3.3702369 40.70141181 0.52734375 46.64453125 C4.97638672 53.76063976 4.74967 61.97156631 3 70 C1.40816953 73.47417 -0.40453593 76.69465788 -2.359375 79.9765625 C-3.89334997 82.80345923 -4.63880955 84.98527132 -5.1875 88.125 C-6 92 -6 92 -7.6875 94.0625 C-11.01204321 95.41028779 -13.44958918 95.44380135 -17 95 C-19.4375 93.6875 -19.4375 93.6875 -21 91 C-22.17553151 82.67777121 -20.62579269 75.78423064 -15.875 68.9375 C-13.62925404 65.41916466 -13.07311262 63.16741934 -13 59 C-14.13776042 55.64992767 -15.44367219 52.88814351 -17.31640625 49.8984375 C-21.84138769 42.18920985 -22.1155117 34.66058689 -21 26 C-19.76037284 22.33296604 -18.08568738 19.24717796 -16 16 C-14.14056341 12.55659891 -12.83722098 9.54812446 -12 5.75 C-10.31744793 -0.55957026 -5.91506765 -1.09274342 0 0 Z " fill="#000000" transform="translate(334,203)"/>
<path d="M0 0 C6.39482151 2.85286218 10.70894848 8.74516889 13.296875 15.16015625 C15.78634391 25.21484456 15.1655046 35.41123453 9.89453125 44.41015625 C4.57551614 51.68130474 -2.08411039 57.05912607 -11 59 C-23.38638583 60.27175726 -31.65287687 58.10790715 -41.3359375 50.52734375 C-43.43482598 48.60089916 -44.7898258 46.57162017 -46 44 C-45.32195312 44.03480469 -44.64390625 44.06960937 -43.9453125 44.10546875 C-31.19605607 44.476292 -20.64199099 40.42684887 -11.1875 31.75 C-2.90793823 22.92367472 -0.80081268 11.65393185 0 0 Z " fill="#FB9537" transform="translate(435,67)"/>
<path d="M0 0 C4.1638373 0.8674661 5.48563882 2.20267505 8 5.625 C8.62166379 7.83442672 9.01562444 10.02794147 9.40625 12.2890625 C10.23054893 15.53202802 11.85167228 17.90523652 13.78125 20.60546875 C17.73459078 27.15635716 17.71510325 34.21234435 17 41.625 C15.6733888 46.56218188 13.49114692 50.88319837 10.875 55.25 C9.31132023 58.06462359 8.60647245 59.83421613 7.9375 62.875 C7 66.625 7 66.625 5.875 68.625 C2.67201202 70.33326026 -0.53096071 70.34393571 -4 69.625 C-6.69976374 67.5326831 -7.73783561 66.01228656 -8.375 62.640625 C-8.80989256 54.9756436 -5.74669907 48.31794458 -1.75 41.9375 C0.32257304 38.01441532 0.38386683 36.01865651 0 31.625 C-1.44114918 28.1863711 -1.44114918 28.1863711 -3.4375 24.9375 C-7.1847043 18.49533665 -9.17787613 13.1473453 -8 5.625 C-5.56887157 2.12131491 -4.17862962 0.87054784 0 0 Z " fill="#000000" transform="translate(374,228.375)"/>
<path d="M0 0 C2.79456974 2.31274737 3.18443296 4.70686591 3.8125 8.125 C4.75638827 13.03972856 6.95646155 16.67132219 9.66015625 20.8359375 C13.35594772 26.80523334 12.50737252 34.23734982 12 41 C11.08181158 44.29691491 9.71111666 47.04919678 8 50 C7.28259765 51.37029011 6.57406567 52.74526513 5.875 54.125 C5.54371094 54.77082031 5.21242188 55.41664063 4.87109375 56.08203125 C3.82147906 58.26239151 3.82147906 58.26239151 2.9375 61.8125 C1.54117647 66.56 1.54117647 66.56 -1 68 C-4.0940232 68.39289183 -6.04461765 68.62437655 -9 68 C-12.13306079 65.41522485 -12.88696362 63.82355078 -13.4375 59.8125 C-12.67869037 53.20001609 -11.16106607 47.42608001 -7.3125 41.9375 C-4.96624415 38.36804369 -4.20516813 35.63314466 -4.43359375 31.359375 C-5.34728997 27.55335765 -7.40399039 24.593734 -9.53125 21.34765625 C-12.74061439 16.21779455 -13.55193163 10.96086163 -13 5 C-11.6875 2.125 -11.6875 2.125 -10 0 C-6.20519658 -1.26493447 -3.87641726 -0.89988258 0 0 Z " fill="#000000" transform="translate(272,230)"/>
<path d="M0 0 C22.44 0 44.88 0 68 0 C67.34 1.65 66.68 3.3 66 5 C65.69562012 6.01070557 65.39124023 7.02141113 65.07763672 8.06274414 C63.50511802 11.96629411 62.16423702 14.18269556 59 17 C52.68876527 19.04308808 45.86914017 18.68023878 39.31298828 18.50952148 C36.13601461 18.43774884 32.97758649 18.48840961 29.80078125 18.55273438 C14.26154535 18.5780776 14.26154535 18.5780776 9.69042969 14.66064453 C7.37298331 11.86747185 5.68536417 9.20602351 4 6 C2.68 4.02 1.36 2.04 0 0 Z " fill="#DD9672" transform="translate(120,330)"/>
<path d="M0 0 C2.14771065 1.61664925 2.90762423 2.486245 3.38768005 5.15611267 C3.39308304 5.99010086 3.39848602 6.82408905 3.40405273 7.68334961 C3.41673691 8.63120834 3.42942108 9.57906708 3.44248962 10.5556488 C3.43955399 11.57755814 3.43661835 12.59946747 3.43359375 13.65234375 C3.4388356 14.70402237 3.44407745 15.75570099 3.44947815 16.83924866 C3.45590411 19.06429155 3.45455397 21.28936839 3.44604492 23.5144043 C3.43754112 26.92102535 3.46627989 30.32596684 3.49804688 33.73242188 C3.49965908 35.89322866 3.49908099 38.05403843 3.49609375 40.21484375 C3.50732773 41.23472885 3.51856171 42.25461395 3.53013611 43.30540466 C3.46072699 50.34187947 3.46072699 50.34187947 1.15258789 53.63891602 C-1.85666545 55.54167062 -3.50326945 55.64225663 -7 55 C-9.83821317 52.96624769 -11.71018807 51.35195842 -12.46243286 47.84277344 C-12.64596323 45.16396723 -12.66666152 42.52863274 -12.62890625 39.84375 C-12.63131821 38.86386108 -12.63373016 37.88397217 -12.63621521 36.87438965 C-12.63523755 34.80668076 -12.62186325 32.73894543 -12.59692383 30.67138672 C-12.56261383 27.51048667 -12.57626988 24.35238291 -12.59570312 21.19140625 C-12.58880445 19.17967563 -12.57913187 17.1679522 -12.56640625 15.15625 C-12.57136612 14.21342163 -12.57632599 13.27059326 -12.58143616 12.29919434 C-12.50477305 8.01776084 -12.39241019 5.63106579 -10.08959961 1.92773438 C-6.49985225 -1.38394283 -4.68521323 -1.14739916 0 0 Z " fill="#070403" transform="translate(112,176)"/>
<path d="M0 0 C5.01088672 0.71584096 5.01088672 0.71584096 7.5 3.5 C8.10848286 6.48546655 8.05761616 9.40064842 8 12.4375 C8.01546875 13.24896484 8.0309375 14.06042969 8.046875 14.89648438 C8.02149534 18.76371065 7.9779662 20.84519641 5.65234375 24.03125 C2.66008301 26.0731557 1.05153886 26.15232346 -2.5 25.5 C-5.99547538 22.78072577 -7.35621193 21.32164611 -8.12890625 16.90625 C-8.10699219 15.6171875 -8.08507812 14.328125 -8.0625 13 C-8.06378906 11.7109375 -8.06507812 10.421875 -8.06640625 9.09375 C-7.21612294 3.69884903 -5.54571725 0.79224532 0 0 Z " fill="#070403" transform="translate(107.5,246.5)"/>
</svg>
