<?xml version="1.0" encoding="UTF-8"?>
<svg version="1.1" xmlns="http://www.w3.org/2000/svg" width="512" height="512">
<path d="M0 0 C1.04212646 -0.00807175 2.08425293 -0.01614349 3.15795898 -0.02445984 C5.3600094 -0.03824836 7.56208071 -0.04899374 9.76416016 -0.05688477 C11.99046198 -0.06836722 14.21673709 -0.08875918 16.44287109 -0.1184082 C32.17616555 -0.32754675 46.16402066 0.16490206 60.4375 7.48828125 C61.59894531 8.08382813 62.76039063 8.679375 63.95703125 9.29296875 C66.99242808 11.15687457 69.12299506 13.10678438 71.625 15.61328125 C77.93779934 21.04062194 85.68802057 20.03822843 93.578125 20.12109375 C117.39859269 20.38937888 139.46223726 31.04871371 156.44140625 47.3828125 C160.80526358 52.02615996 164.55270774 56.9689719 168.125 62.23828125 C168.67800781 63.03621094 169.23101562 63.83414063 169.80078125 64.65625 C182.85456017 84.79347484 183.63532038 107.16388435 183.51611328 130.37817383 C183.49883037 133.7785858 183.50902057 137.17829703 183.52683067 140.57868481 C183.5402743 143.85456516 183.53087289 147.13036055 183.5234375 150.40625 C183.52951019 151.62080368 183.53558289 152.83535736 183.5418396 154.0867157 C183.53238312 155.21591934 183.52292664 156.34512299 183.51318359 157.50854492 C183.51079681 158.49731125 183.50841003 159.48607758 183.50595093 160.50480652 C183.05978963 163.70619165 181.9217756 165.5814546 180.125 168.23828125 C179.12969206 170.13596884 179.12969206 170.13596884 179.125 172.23828125 C180.31619123 175.08390474 181.78188875 177.6682218 183.37109375 180.30859375 C188.99123344 189.88117589 190.81855012 199.95440325 188.125 210.86328125 C187.795 211.97703125 187.465 213.09078125 187.125 214.23828125 C188.01960938 214.16480469 188.91421875 214.09132812 189.8359375 214.015625 C193.77938244 214.2825803 194.86228667 215.18596179 197.75 217.80078125 C216.38348972 233.54190838 238.35330186 237.93300402 262.125 236.23828125 C277.34791462 234.22226534 293.06403362 227.72892055 304.4375 217.30078125 C307.67176711 214.81866929 309.16410244 215.05799212 313.125 215.23828125 C313.54910156 216.470625 313.97320312 217.70296875 314.41015625 218.97265625 C323.03876387 243.54056497 337.08534335 262.48673985 360.125 275.23828125 C364.57353343 277.34627413 369.13434812 279.12812785 373.73828125 280.86328125 C377.125 282.23828125 377.125 282.23828125 379.125 284.23828125 C379.59525597 288.30575299 379.56038886 290.52645502 377.40234375 294.0546875 C376.63019531 294.96089844 375.85804688 295.86710937 375.0625 296.80078125 C360.12075413 315.64241676 355.84457265 338.19521214 358.39306641 361.71191406 C360.40090768 374.81542136 366.43258524 386.0323564 373.125 397.30078125 C375.24468126 401.08592636 375.96751642 403.85719589 375.125 408.23828125 C371.55810944 412.5440757 367.80012152 414.48197145 362.6875 416.42578125 C354.27934493 419.8706815 347.09089263 424.38193797 340.125 430.23828125 C339.43994385 430.77259766 338.7548877 431.30691406 338.04907227 431.85742188 C331.42537534 437.57311058 330.39358119 443.45971455 329.0625 451.86328125 C326.59534381 465.13366894 323.54739923 477.79152316 313.125 487.23828125 C311.91809199 487.93669752 310.70704021 488.62799645 309.4921875 489.3125 C307.223938 490.90630025 306.27831081 491.72222402 305.48144531 494.40454102 C305.24805885 496.95421172 305.20394868 499.42859554 305.25 501.98828125 C305.23476594 503.71226865 305.21669448 505.43623414 305.1953125 507.16015625 C305.20320801 507.9190918 305.21110352 508.67802734 305.21923828 509.45996094 C305.125 511.23828125 305.125 511.23828125 304.125 512.23828125 C301.08634239 512.33892324 298.0703727 512.37442715 295.03125 512.36767578 C294.07686035 512.3694281 293.1224707 512.37118042 292.13916016 512.37298584 C288.96775523 512.37740612 285.79640555 512.37446575 282.625 512.37109375 C280.43164052 512.37176674 278.2382811 512.37273672 276.04492188 512.37399292 C271.44139905 512.37547013 266.83789558 512.37331459 262.234375 512.36865234 C256.31895405 512.36295505 250.40357846 512.36623393 244.48815918 512.37222481 C239.95702774 512.37582979 235.42590715 512.37469212 230.89477539 512.37209702 C228.71297195 512.37142757 226.53116754 512.37225677 224.34936523 512.37457657 C221.3058001 512.37710207 218.26230954 512.37326395 215.21875 512.36767578 C214.30754395 512.36970001 213.39633789 512.37172424 212.45751953 512.37380981 C206.23926229 512.35254354 206.23926229 512.35254354 205.125 511.23828125 C205.10139491 509.87630498 205.13579377 508.51322364 205.1953125 507.15234375 C205.72164223 496.79612747 205.72164223 496.79612747 201.71875 487.640625 C199.84404985 485.70530808 197.90527188 484.1243301 195.7890625 482.4296875 C193.125 480.23828125 193.125 480.23828125 191.5859375 477.640625 C190.29768306 475.06663917 190.29768306 475.06663917 187.68894005 473.92370224 C184.54592601 471.85762358 183.94374501 470.35931066 182.64102173 466.86920166 C182.22015919 465.799524 181.79929665 464.72984634 181.36568069 463.62775421 C180.55669753 461.4176557 179.78445582 459.19365502 179.05500412 456.95604706 C175.97734289 448.09954571 171.72828146 439.68377391 163.125 435.23828125 C147.31601543 430.19969909 128.87450511 432.20039508 112.49367193 432.61509056 C105.47836023 432.78720473 98.46472999 432.81034141 91.44760911 432.8247796 C78.93460005 432.85392819 66.42527132 432.9905176 53.9140625 433.19970703 C41.77981497 433.40229232 29.64626647 433.56602839 17.51074219 433.66943359 C16.38642113 433.67904576 16.38642113 433.67904576 15.23938651 433.6888521 C7.05899306 433.75782306 -1.12145591 433.81756189 -9.30195045 433.8731041 C-11.46973232 433.88797186 -13.63751391 433.90287831 -15.80529515 433.91783574 C-17.23391134 433.9276229 -18.6625286 433.93725481 -20.0911469 433.94672891 C-29.17752024 434.00766807 -38.26221709 434.10895925 -47.34763885 434.25364447 C-52.54060629 434.33563515 -57.73381455 434.3948616 -62.92709923 434.45288658 C-65.34159947 434.48467674 -67.75600125 434.52530392 -70.17019463 434.57522774 C-73.45487931 434.64244981 -76.73856885 434.67949775 -80.02377319 434.70928955 C-80.98784855 434.7370158 -81.95192391 434.76474205 -82.94521368 434.7933085 C-85.35856948 434.79875523 -87.52079946 434.76728638 -89.875 434.23828125 C-94.53193884 429.0768778 -93.27982096 422.04023558 -92.99609375 415.51025391 C-91.61197564 389.54129592 -83.82685465 368.49186157 -64.75 350.11328125 C-53.41301921 340.124821 -35.43217063 329.26595809 -19.875 330.23828125 C-19.875 329.24828125 -19.875 328.25828125 -19.875 327.23828125 C-20.56023239 327.2471637 -21.24546478 327.25604614 -21.95146179 327.26519775 C-28.46658307 327.34595049 -34.98156104 327.40654964 -41.49707317 327.44552994 C-44.84543768 327.46624572 -48.19306905 327.49648403 -51.54125977 327.54003906 C-55.40652161 327.58903027 -59.27120105 327.61135864 -63.13671875 327.62890625 C-64.31642746 327.64955139 -65.49613617 327.67019653 -66.71159363 327.69146729 C-79.80128834 327.69493572 -90.37015288 323.98129063 -100.875 316.23828125 C-101.97134766 315.43583984 -101.97134766 315.43583984 -103.08984375 314.6171875 C-112.89230527 306.77145534 -119.01950111 294.57909935 -120.875 282.23828125 C-121.63514496 270.16539065 -120.65416884 258.62209231 -118.36328125 246.78417969 C-117.39524919 241.73686052 -116.50756859 236.67611361 -115.625 231.61328125 C-115.43776367 230.60555664 -115.25052734 229.59783203 -115.05761719 228.55957031 C-113.90989638 221.99144723 -113.71579776 216.65980978 -115.421875 210.15234375 C-117.38842867 201.8453498 -116.48457353 191.96544236 -112.875 184.23828125 C-111.89783355 182.90869411 -110.8964535 181.59665509 -109.875 180.30078125 C-104.91503819 173.51476385 -104.81583947 164.35095844 -103.875 156.23828125 C-105.09413086 155.60950073 -105.09413086 155.60950073 -106.33789062 154.96801758 C-110.33583747 150.66653147 -109.55219748 146.22982942 -109.46875 140.5625 C-109.46879028 139.40514847 -109.46883057 138.24779694 -109.46887207 137.05537415 C-109.46350717 134.59993072 -109.44588349 132.14448829 -109.41699219 129.68920898 C-109.37558044 125.97780156 -109.37588926 122.26823737 -109.3828125 118.55664062 C-109.35025923 106.45743829 -109.10797562 94.94921953 -105.875 83.23828125 C-105.68711914 82.4918335 -105.49923828 81.74538574 -105.30566406 80.97631836 C-98.16010128 54.06902613 -78.74764787 29.38220863 -54.875 15.23828125 C-37.61981554 5.59067812 -19.79778877 0.1479268 0 0 Z M93.125 327.23828125 C93.455 328.22828125 93.785 329.21828125 94.125 330.23828125 C95.05699219 330.39683594 95.98898438 330.55539062 96.94921875 330.71875 C114.24141531 333.88344927 128.05044474 340.76419361 142.125 351.23828125 C142.18010734 349.11358732 142.21828102 346.98845301 142.25 344.86328125 C142.27320313 343.67992187 142.29640625 342.4965625 142.3203125 341.27734375 C142.17508185 336.20146752 142.17508185 336.20146752 140.125 327.23828125 C124.615 327.23828125 109.105 327.23828125 93.125 327.23828125 Z " fill="#3963CB" transform="translate(126.875,-0.23828125)"/>
<path d="M0 0 C3.10343929 2.91535206 5.74651597 5.91080557 8.3125 9.3125 C20.80841644 25.51688196 38.89388861 35.61002449 59.26757812 38.29931641 C61.61449032 38.55133054 63.96227131 38.7811696 66.3125 39 C76.9730095 40.02136618 85.83184285 42.51461739 93 51 C98.48637947 58.99510854 100.39086443 66.38489372 99 76 C97.02642475 84.15975264 92.66965587 91.14710994 85.4296875 95.5703125 C79.85503605 98.41452242 75.08006649 100.09074768 68.8125 100.5625 C67.18248047 100.68818359 67.18248047 100.68818359 65.51953125 100.81640625 C64.68808594 100.87699219 63.85664063 100.93757813 63 101 C62.82621826 101.54237305 62.65243652 102.08474609 62.47338867 102.64355469 C56.33584517 121.46562367 48.21714257 138.06908939 35 153 C34.38769531 153.69609375 33.77539062 154.3921875 33.14453125 155.109375 C13.79699553 175.7357457 -14.26725551 185.47653395 -41.89453125 187.25 C-71.32453287 187.77848488 -99.59326832 176.57241794 -120.96264648 156.4934082 C-135.50422138 142.33624856 -145.42395637 124.2472822 -150.2109375 104.5625 C-150.60152344 103.2940625 -150.60152344 103.2940625 -151 102 C-153.58786815 100.70606592 -155.67169847 100.81671846 -158.5625 100.6875 C-168.32205683 99.90626905 -175.34848054 96.19450064 -182 89 C-188.07216308 80.5494229 -188.99715172 72.10654817 -188 62 C-185.52831253 53.64702046 -179.86147517 46.96316436 -172.3125 42.6875 C-166.73964692 40.13646902 -160.11888011 39 -154 39 C-153.67 34.05 -153.34 29.1 -153 24 C-151.00709175 23.98786972 -151.00709175 23.98786972 -148.97392273 23.97549438 C-136.42439342 23.89785209 -123.87497011 23.81006758 -111.32557964 23.71247292 C-104.87454548 23.66262695 -98.42352676 23.61629606 -91.97241211 23.578125 C-85.74129437 23.54112421 -79.5103097 23.49472457 -73.27930641 23.44193649 C-70.9076249 23.42347096 -68.53591494 23.4083344 -66.16419029 23.39665604 C-62.83027023 23.3796589 -59.49664974 23.35059215 -56.1628418 23.31884766 C-54.70734421 23.31560738 -54.70734421 23.31560738 -53.22244263 23.31230164 C-43.69750998 23.19720565 -34.70336398 21.84183936 -26 17.875 C-25.32138916 17.57150635 -24.64277832 17.2680127 -23.94360352 16.95532227 C-14.90330228 12.75532894 -7.408306 6.58516089 0 0 Z " fill="#F8CECE" transform="translate(208,131)"/>
<path d="M0 0 C2.22634378 -0.01649623 4.45263601 -0.04370148 6.67871094 -0.08203125 C23.95175124 -0.3770557 39.0138809 0.57191481 53.36083984 11.35009766 C54.10205078 12.13642578 54.84326172 12.92275391 55.60693359 13.73291016 C59.96754196 18.18421917 63.32428022 20.55321838 69.61083984 20.81884766 C73.61572628 20.81516177 77.60964927 20.64824866 81.61083984 20.48681641 C93.58771756 20.03511927 104.62686936 23.08805347 115.36083984 28.35009766 C116.74529297 29.01332031 116.74529297 29.01332031 118.15771484 29.68994141 C138.88622255 40.25913813 152.87469919 58.65013994 160.36083984 80.35009766 C164.74808162 94.77489202 163.69469549 109.88417493 163.54833984 124.78759766 C163.53154014 127.46532446 163.51958275 130.14304617 163.50732422 132.82080078 C163.47452871 139.33074765 163.4245402 145.84038365 163.36083984 152.35009766 C158.31122975 152.42508044 153.2619542 152.47908685 148.21191406 152.51489258 C146.49929142 152.52984226 144.78670613 152.55020952 143.07421875 152.57641602 C122.05624842 152.88965871 104.90719959 148.35442902 89.36083984 133.35009766 C84.20773799 127.82059532 75.36083984 118.30793309 75.36083984 110.35009766 C73.08122227 109.88274511 73.08122227 109.88274511 70.36083984 110.35009766 C68.41993022 112.16578731 66.83746215 113.87182961 65.17333984 115.91259766 C53.96825243 128.81073032 38.47834003 136.92141351 21.36083984 138.35009766 C17.01864179 138.48729841 12.67949426 138.47657832 8.33544922 138.46362305 C7.04680969 138.46376907 5.75817017 138.4639151 4.43048096 138.46406555 C0.91865583 138.46435097 -2.59313472 138.45849575 -6.10495186 138.45149159 C-9.78314155 138.44521532 -13.46133215 138.44465089 -17.13952637 138.44346619 C-24.09496351 138.44036543 -31.05038483 138.43216905 -38.00581503 138.4221167 C-45.92845947 138.41091647 -53.85110468 138.40543528 -61.77375507 138.40042126 C-78.06223268 138.38998532 -94.35069439 138.37241031 -110.63916016 138.35009766 C-110.69028927 131.73392068 -110.72507205 125.11779553 -110.74902344 118.50146484 C-110.75901906 116.25535173 -110.77262004 114.00925141 -110.79003906 111.76318359 C-110.81457273 108.51608093 -110.82570796 105.26915179 -110.83447266 102.02197266 C-110.84479523 101.03396667 -110.8551178 100.04596069 -110.86575317 99.02801514 C-110.8695028 75.1968952 -101.41154306 54.5856033 -86.63916016 36.35009766 C-86.10033203 35.64626953 -85.56150391 34.94244141 -85.00634766 34.21728516 C-70.28491263 15.94495123 -45.62134969 3.75619053 -22.76716614 0.57019043 C-15.23494072 -0.20884327 -7.56374603 0.04093295 0 0 Z " fill="#4570C6" transform="translate(137.63916015625,8.64990234375)"/>
<path d="M0 0 C4.02349098 2.12561787 6.31345292 3.78476726 8 8 C8.25333309 10.00872707 8.25333309 10.00872707 8.25828552 12.16783142 C8.26511353 12.99069138 8.27194153 13.81355133 8.27897644 14.66134644 C8.27642349 15.55548248 8.27387054 16.44961853 8.27124023 17.37084961 C8.27646698 18.31925217 8.28169373 19.26765472 8.28707886 20.24479675 C8.29731577 22.30294579 8.30309872 24.3611207 8.30496025 26.41929436 C8.308621 29.67658983 8.32533945 32.93358005 8.34571838 36.19081116 C8.40116172 45.45128713 8.43183351 54.71180799 8.45629883 63.97241211 C8.47216803 69.63756156 8.50237975 75.30249407 8.54106331 80.9675312 C8.55271821 83.1264675 8.5586437 85.28544258 8.55874443 87.44441032 C8.55893635 90.46308947 8.57719316 93.48116966 8.59936523 96.49975586 C8.59478806 97.39186768 8.59021088 98.28397949 8.585495 99.203125 C8.64086255 103.94158802 8.88622169 107.16852778 12 111 C14.85324437 112.42662219 16.83454549 112.31033868 20 112 C23.32800924 109.94956629 24.76557942 108.69755645 26.02319336 104.95532227 C26.21018799 103.75447998 26.39718262 102.5536377 26.58984375 101.31640625 C26.6996759 100.64473419 26.80950806 99.97306213 26.92266846 99.28103638 C27.2820235 97.04428441 27.60985073 94.804098 27.9375 92.5625 C28.18455755 90.98456266 28.43304298 89.40684831 28.68286133 87.8293457 C30.13266771 78.52260222 31.38955234 69.19085713 32.609375 59.8515625 C32.74215347 58.8380925 32.87493195 57.8246225 33.01173401 56.78044128 C33.66314528 51.78688656 34.29885312 46.79210875 34.90795898 41.79321289 C35.14036735 39.94936955 35.37286628 38.10553762 35.60546875 36.26171875 C35.75051849 35.0106987 35.75051849 35.0106987 35.89849854 33.73440552 C36.69031503 27.5624943 37.91106036 22.26301795 42.25 17.5625 C45.84561362 15.51953772 47.91554166 15.42674269 52 16 C55.96604965 18.09527151 58.50767156 19.73722451 60 24 C60.0345483 26.5824853 59.9588136 29.00089136 59.75 31.5625 C59.71003906 32.21541016 59.67007813 32.86832031 59.62890625 33.54101562 C59.34946185 37.45701351 58.79741389 41.25882957 58.06176758 45.11499023 C57.0506916 50.59049878 56.25271821 56.07406935 55.52734375 61.59375 C55.26497694 63.54947957 55.00260706 65.50520872 54.74023438 67.4609375 C54.33573749 70.50022382 53.9322415 73.53964145 53.52905273 76.57910156 C53.13503548 79.54264204 52.73756426 82.50570462 52.33984375 85.46875 C52.22003647 86.38120483 52.10022919 87.29365967 51.97679138 88.23376465 C51.86319778 89.07894653 51.74960419 89.92412842 51.63256836 90.79492188 C51.53423203 91.53673706 51.43589569 92.27855225 51.33457947 93.04284668 C51 95 51 95 50 98 C49.3673465 102.82624241 49.29370788 105.98210842 52.125 110.0625 C55.53381736 112.35974648 56.97483052 112.75471928 61 112 C64.6106783 109.87357237 66.25191462 108.00908591 67.40625 104.06103516 C67.78909735 102.47467443 68.15263455 100.8835686 68.5 99.2890625 C68.70302734 98.44330658 68.90605469 97.59755066 69.11523438 96.72616577 C69.76161432 94.02967375 70.38339125 91.32844397 71 88.625 C71.61734778 85.92892649 72.24048637 83.23503055 72.88476562 80.54525757 C73.28480784 78.87502177 73.66978466 77.20108071 74.03710938 75.52334595 C75.32761362 70.13174089 77.09030868 66.96150092 81 63 C84.22859847 61.38570077 87.50993653 61.40429343 91 62 C94.02508145 63.73602105 96.41790069 65.83580137 98 69 C98.64855384 76.69926055 96.56990952 83.65717982 94.625 91.0625 C94.14933594 92.92358398 94.14933594 92.92358398 93.6640625 94.82226562 C92.49381518 99.37891611 91.31913418 103.92493726 89.98022461 108.43530273 C88.96384819 112.13147013 88.24588867 115.78608139 87.58984375 119.5625 C87.32392506 121.07430573 87.05797288 122.58610557 86.79199219 124.09790039 C86.65321655 124.89471222 86.51444092 125.69152405 86.37145996 126.51248169 C83.4849202 143.05852549 80.41157066 159.56700793 77.25 176.0625 C76.96465897 177.55632202 76.96465897 177.55632202 76.67355347 179.08032227 C75.46740002 185.39053626 74.24736505 191.69779519 73 198 C72.85526245 198.73138184 72.7105249 199.46276367 72.56140137 200.21630859 C72.17338337 202.15742839 71.77457531 204.09638251 71.375 206.03515625 C71.16101563 207.07422119 70.94703125 208.11328613 70.7265625 209.18383789 C67.83889945 220.37644317 60.66545187 228.93540275 51 235 C50.34 235 49.68 235 49 235 C49 240.61 49 246.22 49 252 C21.94 252 -5.12 252 -33 252 C-33.495 243.09 -33.495 243.09 -34 234 C-37.88746747 230.11347421 -37.88746747 230.11347421 -41.07958984 228.21337891 C-44.84071497 225.36282211 -47.06911658 222.11315264 -49.64453125 218.19921875 C-50.13457642 217.45598358 -50.62462158 216.71274841 -51.1295166 215.94699097 C-52.70224174 213.53456117 -54.25700089 211.11106471 -55.8125 208.6875 C-56.92887303 206.97626286 -58.04724367 205.26632746 -59.16748047 203.55761719 C-60.93285767 200.86436414 -62.69695845 198.17036077 -64.4552002 195.47244263 C-70.77897456 185.77177276 -77.24061719 176.16547472 -83.72177124 166.56948853 C-85.58558051 163.80839697 -87.44513975 161.04448455 -89.30395508 158.2800293 C-100.74575298 141.24056148 -100.74575298 141.24056148 -113.62890625 125.2890625 C-115 123 -115 123 -114.93359375 120.35546875 C-113.53803263 116.83445053 -111.6617119 116.19574896 -108.3125 114.73046875 C-102.81033708 112.99245445 -98.34864866 113.24921139 -93.125 115.63671875 C-88.83531223 117.88250822 -85.77987825 120.79794649 -82.5 124.3125 C-81.37815091 125.47444412 -80.25445999 126.63461288 -79.12890625 127.79296875 C-78.59410645 128.34645996 -78.05930664 128.89995117 -77.50830078 129.47021484 C-74.51248883 132.50869942 -71.31090459 135.31133038 -68 138 C-67.33226562 138.54527344 -66.66453125 139.09054687 -65.9765625 139.65234375 C-63.16973167 141.56609204 -61.31680615 141.49399241 -58 141 C-54.78012372 137.81524101 -54.60535091 135.19547103 -54.56640625 130.77734375 C-54.55512695 129.53065918 -54.54384766 128.28397461 -54.53222656 126.99951172 C-54.54022703 125.64549385 -54.55037318 124.2914872 -54.5625 122.9375 C-54.56487671 122.24738831 -54.56725342 121.55727661 -54.56970215 120.84625244 C-54.63943813 107.82849382 -56.21088874 95.29802602 -58.42675781 82.47119141 C-59.46437612 76.18803248 -60.28130222 69.87410143 -61.125 63.5625 C-62.15735064 55.87453643 -63.25675073 48.21327869 -64.57958984 40.56933594 C-65.98764317 31.96402046 -65.98764317 31.96402046 -63.97265625 27.95703125 C-61.92535946 25.11576894 -60.23371551 23.34306527 -56.80859375 22.390625 C-52.81293946 22.14723489 -49.82096954 22.68039146 -46.5625 25.0625 C-41.74152313 30.58898568 -41.46956339 37.86599908 -40.5625 44.921875 C-40.43689697 45.86250793 -40.31129395 46.80314087 -40.18188477 47.77227783 C-39.78299997 50.76422368 -39.39101877 53.75701684 -39 56.75 C-38.60808301 59.72856913 -38.21459411 62.70691005 -37.81811523 65.68487549 C-37.57258229 67.53113676 -37.32970818 69.37775452 -37.09008789 71.22479248 C-36.36836577 76.67650931 -35.48085163 82.07705208 -34.46669006 87.4821167 C-33.58011334 92.26536988 -32.826882 97.07185381 -32.05664062 101.875 C-31.54331768 105.01406386 -31.0077275 107.9768175 -30 111 C-28.58566794 111.2236337 -27.16832382 111.42826476 -25.75 111.625 C-24.56664062 111.79902344 -24.56664062 111.79902344 -23.359375 111.9765625 C-20.58090704 112.00416318 -19.27437103 111.58428409 -17 110 C-15.29321919 107.17737318 -14.74997173 105.07324694 -14.7484436 101.79420471 C-14.74306076 100.9629306 -14.73767792 100.13165649 -14.73213196 99.27519226 C-14.73625595 98.37170547 -14.74037994 97.46821869 -14.74462891 96.53735352 C-14.74100845 95.57919739 -14.737388 94.62104126 -14.73365784 93.6338501 C-14.72676709 91.55441299 -14.7242578 89.47495781 -14.72560501 87.39550972 C-14.72656962 84.10460786 -14.71363599 80.81403317 -14.69662476 77.5231781 C-14.65032906 68.1670891 -14.6257397 58.81103357 -14.61914062 49.45483398 C-14.6141301 43.73128707 -14.58990421 38.00808201 -14.55381393 32.2846508 C-14.54400615 30.10338326 -14.54168929 27.92206876 -14.54698563 25.7407856 C-14.55404438 22.69083152 -14.53679827 19.64189858 -14.51416016 16.59204102 C-14.52641884 15.23984718 -14.52641884 15.23984718 -14.53892517 13.8603363 C-14.4848869 9.77115227 -14.35234681 7.5681647 -12.15536499 4.02549744 C-8.03152199 0.15012901 -5.61414996 -0.5709305 0 0 Z " fill="#F7CECE" transform="translate(374,252)"/>
<path d="M0 0 C1.340625 0.4125 2.68125 0.825 4.0625 1.25 C17.43946382 5.26308915 29.64961877 8.20319013 43.65234375 8.24023438 C45.8337398 8.24981872 48.01414206 8.28081709 50.1953125 8.3125 C62.77984582 8.40849561 74.40494852 6.57159199 86.3125 2.3125 C92.84070796 0 92.84070796 0 95 0 C95.02505615 0.57032959 95.0501123 1.14065918 95.07592773 1.72827148 C95.19156549 4.29826157 95.31443624 6.86785527 95.4375 9.4375 C95.47681641 10.33533203 95.51613281 11.23316406 95.55664062 12.15820312 C95.61948242 13.43920898 95.61948242 13.43920898 95.68359375 14.74609375 C95.72025146 15.53685303 95.75690918 16.3276123 95.79467773 17.14233398 C95.80563257 19.01401441 95.80563257 19.01401441 97 20 C99.16409771 20.25227544 101.33156991 20.47566807 103.5 20.6875 C120.1675075 22.65481236 134.80913455 29.49018848 147 41 C144.4177456 43.71691183 141.61509336 45.72268994 138.5234375 47.81640625 C136.84949692 48.94105943 136.84949692 48.94105943 136 51 C135.72592615 53.00555501 135.72592615 53.00555501 135.6875 55.25 C135.65011719 55.99765625 135.61273438 56.7453125 135.57421875 57.515625 C136.48190597 62.81185504 140.68863246 66.92854745 143.96020508 71.05029297 C151.03899371 80.01354111 157.4586946 89.39278562 163.8125 98.875 C164.26818359 99.55014648 164.72386719 100.22529297 165.19335938 100.92089844 C166.49739101 102.85624697 167.79131557 104.79794027 169.08203125 106.7421875 C169.47828201 107.32902313 169.87453278 107.91585876 170.28279114 108.52047729 C173 112.65490453 173 112.65490453 173 116 C172.53848588 115.50489392 172.07697177 115.00978784 171.60147238 114.49967855 C167.1181537 110.08880067 164.04972275 108.20038236 157.73814821 108.07025772 C156.38403377 108.09500614 156.38403377 108.09500614 155.00256348 108.12025452 C154.02384262 108.11018999 153.04512176 108.10012546 152.03674269 108.08975595 C148.77176422 108.06460309 145.50909584 108.08909836 142.24414062 108.11352539 C139.89815086 108.10563418 137.55216972 108.09467158 135.20620728 108.08087158 C128.84713418 108.05215538 122.48879751 108.06637497 116.1297245 108.08831334 C110.15452953 108.10236293 104.17946811 108.08424504 98.20430368 108.06630235 C86.37344917 108.03181989 74.54279968 108.02841777 62.71191406 108.04467773 C51.22292999 108.06040097 39.73409905 108.06141414 28.24511719 108.04272461 C27.18191245 108.04100271 27.18191245 108.04100271 26.09722883 108.03924603 C22.54118451 108.03339641 18.98514076 108.02725845 15.42909718 108.02097714 C-14.04729702 107.96928349 -43.52357751 107.96859901 -73 108 C-73.04093288 105.02459664 -73.07046343 102.0497715 -73.09375 99.07421875 C-73.11260254 97.83037415 -73.11260254 97.83037415 -73.13183594 96.56140137 C-73.24498384 77.18953696 -66.081604 59.26383147 -53 45 C-52.37480469 44.29488281 -51.74960938 43.58976562 -51.10546875 42.86328125 C-40.6098418 31.64086954 -25.99994388 24.61891464 -11.0703125 21.640625 C-7.67321566 20.93181599 -4.33673431 19.95335266 -1 19 C-0.67 12.73 -0.34 6.46 0 0 Z " fill="#6BDCDC" transform="translate(116,317)"/>
<path d="M0 0 C3.86589277 0.3416588 5.01068316 1.27524489 7.8515625 3.84765625 C26.48505222 19.58878338 48.45486436 23.97987902 72.2265625 22.28515625 C87.44947712 20.26914034 103.16559612 13.77579555 114.5390625 3.34765625 C117.77332961 0.86554429 119.26566494 1.10486712 123.2265625 1.28515625 C123.86271484 3.13367188 123.86271484 3.13367188 124.51171875 5.01953125 C133.14032637 29.58743997 147.18690585 48.53361485 170.2265625 61.28515625 C174.67509593 63.39314913 179.23591062 65.17500285 183.83984375 66.91015625 C187.2265625 68.28515625 187.2265625 68.28515625 189.2265625 70.28515625 C189.69681847 74.35262799 189.66195136 76.57333002 187.50390625 80.1015625 C186.73175781 81.00777344 185.95960938 81.91398437 185.1640625 82.84765625 C170.22231663 101.68929176 165.94613515 124.24208714 168.49462891 147.75878906 C170.50247018 160.86229636 176.53414774 172.0792314 183.2265625 183.34765625 C185.34624376 187.13280136 186.06907892 189.90407089 185.2265625 194.28515625 C181.65967194 198.5909507 177.90168402 200.52884645 172.7890625 202.47265625 C161.47839124 207.10674469 151.91383562 213.89760785 143.58203125 222.88671875 C143.13472656 223.34820312 142.68742188 223.8096875 142.2265625 224.28515625 C141.8965625 224.28515625 141.5665625 224.28515625 141.2265625 224.28515625 C141.75131244 216.20060011 142.79443438 208.38445529 144.37109375 200.44140625 C144.58215256 199.35162476 144.79321136 198.26184326 145.01066589 197.13903809 C145.68083649 193.68655158 146.3598246 190.23586896 147.0390625 186.78515625 C147.48299565 184.50401784 147.92635905 182.22276847 148.36914062 179.94140625 C149.44361053 174.41484649 150.52923393 168.89055847 151.61981201 163.36715698 C152.19407706 160.45016664 152.76212554 157.53203444 153.32861328 154.61352539 C155.29073443 144.56492916 157.53967943 134.67401786 160.2890625 124.80664062 C162.26467587 117.32249302 164.32974912 108.5534875 160.5390625 101.34765625 C156.78772976 96.37967506 153.31411149 93.74616801 147.2265625 92.28515625 C141.17130563 91.61234993 137.14903519 92.92892487 132.2265625 96.28515625 C124.54502701 102.95425384 123.52597277 113.81157199 121.4765625 123.22265625 C120.90234054 125.79944726 120.32251933 128.37472314 119.7333374 130.94813538 C119.36975322 132.54186742 119.01548049 134.13775801 118.67144775 135.73582458 C118.25229907 137.60075249 117.74736458 139.44602415 117.2265625 141.28515625 C116.5665625 141.61515625 115.9065625 141.94515625 115.2265625 142.28515625 C114.8972482 133.25126399 116.16682307 124.6162323 117.5390625 115.72265625 C117.76962086 114.19285222 117.99976232 112.6629853 118.22949219 111.13305664 C119.57916781 102.20502586 121.05193405 93.30550077 122.66796875 84.421875 C123.38888877 80.37363182 123.97586172 76.38948618 124.2265625 72.28515625 C124.34064453 70.72861328 124.34064453 70.72861328 124.45703125 69.140625 C124.72339375 62.84151172 124.67013241 58.01535366 120.7578125 52.875 C116.30364616 48.25039362 112.63001844 47.0271308 106.3515625 46.66015625 C101.03246942 46.86678769 97.561032 48.17076459 93.1640625 51.09375 C85.88907684 59.3221108 85.80710914 70.74447124 84.6015625 81.16015625 C84.19783793 84.51235184 83.78674714 87.86362533 83.375 91.21484375 C83.2770816 92.0223558 83.17916321 92.82986786 83.07827759 93.66184998 C82.46302563 98.65572574 81.67952792 103.58168019 80.72216797 108.52246094 C79.62542362 114.63613534 78.90185205 120.81425868 78.1015625 126.97265625 C77.91821644 128.36787111 77.73462423 129.76305365 77.55078125 131.15820312 C77.10696457 134.53354577 76.66561373 137.90919101 76.2265625 141.28515625 C75.2365625 141.61515625 74.2465625 141.94515625 73.2265625 142.28515625 C73.22513748 141.0626416 73.22371246 139.84012695 73.22224426 138.58056641 C73.20555668 127.04541884 73.16272887 115.51062326 73.09447193 103.97566223 C73.06021788 98.04573534 73.03509434 92.11606566 73.03100586 86.18603516 C73.02671964 80.46050066 72.99822902 74.73554625 72.95313072 69.01019287 C72.94016625 66.82862734 72.93584429 64.64699235 72.94040871 62.46539307 C72.94532195 59.40337913 72.91918865 56.34305581 72.88598633 53.28125 C72.89461197 52.38428909 72.90323761 51.48732819 72.91212463 50.56318665 C72.79924805 44.33143998 71.23994987 40.09872504 67.2265625 35.28515625 C62.12759116 31.12273067 57.69671666 30.58209052 51.1640625 30.8515625 C45.69618648 31.6586559 42.3117485 33.75363071 38.80976868 38.00521851 C33.30957068 47.16753661 34.49715205 57.9489859 34.51953125 68.26171875 C34.50640256 70.39978435 34.49109476 72.53783758 34.47370911 74.6758728 C34.43398366 80.27523387 34.42367665 85.87426954 34.41967773 91.47375488 C34.41032284 97.19874871 34.37289451 102.92355321 34.33789062 108.6484375 C34.27344152 119.86066834 34.24009746 131.07275637 34.2265625 142.28515625 C33.5665625 141.95515625 32.9065625 141.62515625 32.2265625 141.28515625 C31.67993164 138.70336914 31.67993164 138.70336914 31.26171875 135.2578125 C31.1030835 133.99984863 30.94444824 132.74188477 30.78100586 131.44580078 C30.70075165 130.77695862 30.62049744 130.10811646 30.53781128 129.41900635 C30.12170965 125.95409632 29.67691115 122.49286613 29.234375 119.03125 C29.14798264 118.34981934 29.06159027 117.66838867 28.97257996 116.96630859 C28.32695403 111.92254547 27.5568787 106.9153018 26.6640625 101.91015625 C25.78872785 97.00015873 25.06301771 92.09884879 24.48046875 87.14453125 C24.29109741 85.53457275 24.29109741 85.53457275 24.09790039 83.89208984 C23.85719593 81.79712229 23.62535619 79.70110965 23.40405273 77.60400391 C22.22577857 66.59009143 22.22577857 66.59009143 15.9140625 57.91015625 C11.1328991 54.22926058 6.41511275 52.71557144 0.30859375 52.9140625 C-5.15561383 53.88798318 -9.43200526 57.34923803 -12.7734375 61.66015625 C-17.99335423 71.39852246 -14.30156669 86.09075321 -12.5234375 96.34765625 C-12.17788657 98.44831986 -11.83819577 100.54988026 -11.49882507 102.65155029 C-11.15270983 104.79460833 -10.80323405 106.93710127 -10.45361328 109.07958984 C-7.17824417 129.2594158 -5.09327028 148.81212301 -5.7734375 169.28515625 C-7.03633856 168.36015324 -8.29614658 167.43092663 -9.5546875 166.5 C-10.6075293 165.72450806 -10.6075293 165.72450806 -11.68164062 164.93334961 C-14.3382918 162.84008956 -16.63932998 160.49611009 -19 158.08203125 C-26.10251897 150.88564639 -32.68712958 145.56111264 -43.0625 144.68359375 C-43.9488916 144.60544434 -44.8352832 144.52729492 -45.74853516 144.44677734 C-46.41675293 144.39344238 -47.0849707 144.34010742 -47.7734375 144.28515625 C-47.81082031 142.96644531 -47.84820312 141.64773438 -47.88671875 140.2890625 C-48.72195373 115.65424509 -52.54916919 92.50942456 -70.7734375 74.28515625 C-70.65234375 71.77734375 -70.65234375 71.77734375 -69.7734375 69.28515625 C-68.05078125 68.16796875 -68.05078125 68.16796875 -65.7109375 67.41015625 C-64.81117188 67.08789062 -63.91140625 66.765625 -62.984375 66.43359375 C-61.92476562 66.05460937 -60.86515625 65.675625 -59.7734375 65.28515625 C-49.82541216 61.40923447 -41.0758955 57.13336205 -32.7734375 50.28515625 C-31.98453125 49.65867187 -31.195625 49.0321875 -30.3828125 48.38671875 C-16.82747559 37.09060466 -8.7073933 20.75788626 -4.46484375 3.8828125 C-3.52791947 0.36272975 -3.52791947 0.36272975 0 0 Z " fill="#FDE892" transform="translate(316.7734375,213.71484375)"/>
<path d="M0 0 C3.53405691 1.22408675 5.31681667 3.58247977 7.09765625 6.7265625 C8.56279393 10.84106709 9.54711371 15.03819558 10.53515625 19.2890625 C11.12933236 21.71147278 11.725715 24.13334282 12.32421875 26.5546875 C12.61844727 27.75931641 12.91267578 28.96394531 13.21582031 30.20507812 C14.50387951 35.34875639 15.93811844 40.44545366 17.41015625 45.5390625 C17.65241943 46.38476807 17.89468262 47.23047363 18.14428711 48.10180664 C19.36982296 52.34424579 20.6645593 56.54837843 22.09765625 60.7265625 C23.08765625 60.7265625 24.07765625 60.7265625 25.09765625 60.7265625 C25.44387255 50.79808885 24.35902368 41.23304607 23.09765625 31.4140625 C22.80918637 29.14187815 22.52295641 26.86947865 22.24169922 24.59638977 C22.06807326 23.19559503 21.89031432 21.79530345 21.70751953 20.39567566 C20.36486876 9.64138407 20.36486876 9.64138407 21.875 5.6953125 C23.71998152 3.35957832 25.3091976 1.84300746 28.29296875 1.40234375 C32.18572022 1.62717263 34.25378777 1.91575923 37.14135742 4.69018555 C39.78919229 8.79989754 40.09672555 12.42837091 40.58203125 17.2265625 C40.68735168 18.13986328 40.79267212 19.05316406 40.90118408 19.99414062 C41.23246844 22.9034275 41.54000328 25.81469216 41.84765625 28.7265625 C42.0688296 30.68506387 42.29147038 32.64340011 42.515625 34.6015625 C44.24579532 49.98611214 44.24579532 49.98611214 44.09765625 54.7265625 C45.74765625 54.7265625 47.39765625 54.7265625 49.09765625 54.7265625 C49.06623535 53.53897339 49.06623535 53.53897339 49.03417969 52.32739258 C48.95090158 48.73141232 48.89895734 45.13563514 48.84765625 41.5390625 C48.81414062 40.29318359 48.780625 39.04730469 48.74609375 37.76367188 C48.72675781 35.9605957 48.72675781 35.9605957 48.70703125 34.12109375 C48.67561035 32.46364136 48.67561035 32.46364136 48.64355469 30.77270508 C49.20093535 27.03375966 50.49156205 25.40989449 53.09765625 22.7265625 C56.0006143 21.27508347 57.87027404 21.35417225 61.09765625 21.7265625 C65.43324484 24.48606243 66.82028199 25.49087267 67.96484375 30.58984375 C68.01150663 32.07218468 68.01177516 33.5565033 67.97265625 35.0390625 C67.96113525 35.82869385 67.94961426 36.6183252 67.93774414 37.43188477 C67.4781904 46.3963181 63.68175147 53.2119282 59.09765625 60.7265625 C58.54722656 61.71140625 57.99679688 62.69625 57.4296875 63.7109375 C44.59656345 85.63815193 21.35472815 102.84329273 -3.13378906 109.31640625 C-19.52651369 113.39625475 -19.52651369 113.39625475 -23.90234375 112.7265625 C-26.0859375 111.14453125 -26.0859375 111.14453125 -28.33984375 108.9140625 C-33.05942964 104.42903434 -38.00803493 100.41349964 -43.16772461 96.44604492 C-49.24451418 91.75279864 -49.24451418 91.75279864 -50.90234375 89.7265625 C-50.90234375 87.2890625 -50.90234375 87.2890625 -49.90234375 84.7265625 C-46.35089041 81.36202776 -43.64774545 79.91543059 -38.76171875 79.38671875 C-33.75816021 79.8273155 -30.45095581 81.69217302 -26.15234375 84.1640625 C-24.65850494 84.99780331 -23.16374972 85.82990483 -21.66796875 86.66015625 C-21.01602539 87.03197021 -20.36408203 87.40378418 -19.69238281 87.78686523 C-17.75534906 88.86498356 -17.75534906 88.86498356 -14.90234375 89.7265625 C-17.34077274 76.16962521 -22.24569423 64.25364759 -28.04785156 51.79516602 C-28.90234375 49.7265625 -28.90234375 49.7265625 -28.90234375 47.7265625 C-42.05546993 48.26520016 -42.05546993 48.26520016 -52.90234375 54.7265625 C-53.90420389 56.78332808 -53.90420389 56.78332808 -54.58984375 58.9765625 C-55.02296875 60.2140625 -55.45609375 61.4515625 -55.90234375 62.7265625 C-58.46484375 63.8515625 -58.46484375 63.8515625 -60.90234375 63.7265625 C-62.90234375 61.7265625 -62.90234375 61.7265625 -63.40234375 58.1015625 C-63.24242373 53.68777003 -61.81024937 50.95468085 -58.9609375 47.625 C-51.2164793 40.48305183 -43.03383263 38.93936938 -32.84985352 39.15405273 C-23.96326363 39.60386008 -15.74597181 41.43803099 -9.5390625 48.24609375 C-5.78540524 53.9348106 -3.39674388 60.41095366 -0.90234375 66.7265625 C0.08765625 66.7265625 1.07765625 66.7265625 2.09765625 66.7265625 C2.32604942 61.50710682 1.57878774 57.20795301 -0.02734375 52.2890625 C-2.62392406 43.93946059 -4.76613634 35.50534806 -6.84619141 27.01391602 C-7.08515137 26.03994873 -7.32411133 25.06598145 -7.5703125 24.0625 C-7.7962207 23.13961182 -8.02212891 22.21672363 -8.25488281 21.26586914 C-8.81415934 19.07241696 -9.42926686 16.91178893 -10.0859375 14.74609375 C-11.10332023 10.983238 -10.89521391 8.48528526 -9.90234375 4.7265625 C-7.3094073 0.68158164 -4.70930468 0.2434233 0 0 Z " fill="#F8A7A7" transform="translate(197.90234375,204.2734375)"/>
<path d="M0 0 C0.50861572 0.40049561 1.01723145 0.80099121 1.54125977 1.21362305 C9.9216553 7.67900362 18.34426388 11.46721319 29 12 C29.34611328 12.87398437 29.34611328 12.87398437 29.69921875 13.765625 C30.39918315 15.52521931 31.10410919 17.28284362 31.8125 19.0390625 C32.57682205 20.94483918 33.32793093 22.85599617 34.0625 24.7734375 C39.78769782 39.28522365 47.43806431 51.56844385 58 63 C58.98226562 64.10408203 58.98226562 64.10408203 59.984375 65.23046875 C64.92989138 70.52470744 70.70804972 74.58812617 76.6328125 78.703125 C77.19000977 79.09306641 77.74720703 79.48300781 78.32128906 79.88476562 C79.97136279 80.98097516 81.70150897 81.95346516 83.4296875 82.921875 C84.27789062 83.60765625 85.12609375 84.2934375 86 85 C86.16064453 88.12988281 86.16064453 88.12988281 86 91 C78.79282592 91.11678034 71.58586175 91.2051573 64.37792683 91.25906086 C61.02939232 91.2849569 57.68200319 91.3227523 54.33374023 91.37719727 C50.4684172 91.43843724 46.60400405 91.46634557 42.73828125 91.48828125 C41.55857254 91.51408768 40.37886383 91.5398941 39.16340637 91.56648254 C25.57427752 91.57098351 14.96419753 86.70905161 5.29296875 77.34765625 C-4.05264578 67.29224821 -6.7158451 54.86963334 -6.46875 41.53125 C-5.76615108 27.5873638 -2.60422487 13.69065025 0 0 Z " fill="#4570C6" transform="translate(21,227)"/>
<path d="M0 0 C0.92087402 0.28399658 0.92087402 0.28399658 1.86035156 0.57373047 C15.92694377 4.89351544 28.89589512 8.20119615 43.65234375 8.24023438 C45.8337398 8.24981872 48.01414206 8.28081709 50.1953125 8.3125 C62.77984582 8.40849561 74.40494852 6.57159199 86.3125 2.3125 C92.84070796 0 92.84070796 0 95 0 C95.06058594 1.31355469 95.12117188 2.62710937 95.18359375 3.98046875 C95.26803256 5.71615541 95.35267888 7.45183198 95.4375 9.1875 C95.47681641 10.05181641 95.51613281 10.91613281 95.55664062 11.80664062 C95.59853516 12.64775391 95.64042969 13.48886719 95.68359375 14.35546875 C95.72025146 15.12528076 95.75690918 15.89509277 95.79467773 16.68823242 C95.93614473 19.04024856 95.93614473 19.04024856 96.64819336 21.40649414 C97.11555824 24.85189116 96.21905371 26.91918464 94.9453125 30.140625 C94.49542969 31.29304688 94.04554688 32.44546875 93.58203125 33.6328125 C92.86080078 35.42332031 92.86080078 35.42332031 92.125 37.25 C91.41537109 39.06371094 91.41537109 39.06371094 90.69140625 40.9140625 C87.17845547 49.82154453 87.17845547 49.82154453 86 51 C83.59651714 51.09496708 81.22189018 51.12558862 78.81811523 51.11352539 C77.6913588 51.11374443 77.6913588 51.11374443 76.5418396 51.1139679 C74.04739541 51.11326863 71.55302497 51.10547564 69.05859375 51.09765625 C67.33366436 51.09579212 65.60873443 51.09436819 63.88380432 51.09336853 C59.33487497 51.08954297 54.78597733 51.07971238 50.23706055 51.06866455 C45.59879994 51.05845124 40.96053423 51.05387108 36.32226562 51.04882812 C27.21482978 51.03809014 18.10741752 51.02101327 9 51 C5.86081671 44.83896979 3.12498573 38.63601914 0.625 32.1875 C0.24472656 31.24712891 -0.13554688 30.30675781 -0.52734375 29.33789062 C-0.87667969 28.43619141 -1.22601563 27.53449219 -1.5859375 26.60546875 C-1.9061084 25.79231201 -2.2262793 24.97915527 -2.55615234 24.14135742 C-2.70262207 23.43470947 -2.8490918 22.72806152 -3 22 C-2.01 20.515 -2.01 20.515 -1 19 C-0.63566627 16.87662229 -0.63566627 16.87662229 -0.5859375 14.55078125 C-0.54726562 13.70322266 -0.50859375 12.85566406 -0.46875 11.98242188 C-0.4378125 11.10134766 -0.406875 10.22027344 -0.375 9.3125 C-0.33632812 8.41982422 -0.29765625 7.52714844 -0.2578125 6.60742188 C-0.16359782 4.4051538 -0.07798412 2.20289278 0 0 Z " fill="#F8CECF" transform="translate(116,317)"/>
<path d="M0 0 C33.99 0 67.98 0 103 0 C103 0.33 103 0.66 103 1 C89.8 1.33 76.6 1.66 63 2 C67.95 6.455 67.95 6.455 73 11 C78.19021626 20.10935915 80.8847073 28.16597567 78.3515625 38.6953125 C75.07508088 47.62862563 70.35499137 54.12990698 61.8125 58.5 C53.86925037 62.1708214 46.10600675 63.37130349 37.42578125 61.421875 C31.17268605 59.0862537 27.90991993 54.91113147 25 49 C25 48.34 25 47.68 25 47 C24.01 47 23.02 47 22 47 C21.67 47.66 21.34 48.32 21 49 C20.18501438 47.3970947 19.37310073 45.79262722 18.5625 44.1875 C18.11003906 43.29417969 17.65757813 42.40085938 17.19140625 41.48046875 C13.79890069 34.4173834 13.86847203 26.24343931 16.4375 18.875 C19.49556114 12.07686408 24.82115366 6.11923089 31 2 C20.77 1.67 10.54 1.34 0 1 C0 0.67 0 0.34 0 0 Z " fill="#A3C6FC" transform="translate(55,155)"/>
<path d="M0 0 C0.33 0 0.66 0 1 0 C1 1.98 1 3.96 1 6 C1.66 6.33 2.32 6.66 3 7 C-8.21053109 27.92428827 -22.95068173 44.0914303 -46 52 C-45.34813838 47.80495506 -43.02353025 44.50682543 -40.875 40.9375 C-37.6193622 35.50273152 -35.40860281 30.38052102 -33.67919922 24.28833008 C-30.70964082 14.12555895 -30.70964082 14.12555895 -27.31494141 11.890625 C-23.95979851 10.60760061 -20.58575155 10.13761757 -17.0390625 9.6796875 C-10.37543495 8.80860452 -4.67988506 4.67988506 0 0 Z " fill="#4771C5" transform="translate(305,227)"/>
<path d="M0 0 C7.30895739 6.86406433 14.16332839 17.23916934 17 27 C16.67 27.66 16.34 28.32 16 29 C-5.78 28.505 -5.78 28.505 -28 28 C-28 22 -28 22 -26.61401367 20.37597656 C-25.97181885 19.96831055 -25.32962402 19.56064453 -24.66796875 19.140625 C-23.95632568 18.66915039 -23.24468262 18.19767578 -22.51147461 17.71191406 C-21.74456299 17.22948242 -20.97765137 16.74705078 -20.1875 16.25 C-12.81276613 11.35871297 -6.33181564 6.18138374 0 0 Z " fill="#4771C5" transform="translate(248,290)"/>
<path d="M0 0 C2.97 0.495 2.97 0.495 6 1 C6.60173622 3.83675645 7.02606252 6.46912543 7.1875 9.375 C8.4967645 15.21633392 11.42383411 18.35042281 16.421875 21.55078125 C23.22907182 25.04291257 29.41755354 26.00877577 37 25 C41.00730462 23.66423179 42.44561221 22.953547 44.5625 19.3125 C45.036875 18.549375 45.51125 17.78625 46 17 C48.5625 16.5625 48.5625 16.5625 51 17 C51.66 17.66 52.32 18.32 53 19 C52.91579093 22.78940814 52.29049304 24.63028159 49.9375 27.625 C42.10172727 33.96030561 34.9051051 35.10442778 24.96582031 34.26171875 C15.14737419 32.95454361 7.44044224 27.24392821 1 20 C-2.55666367 15.05958877 -2.79260149 8.88789678 -2 3 C-1.34 2.01 -0.68 1.02 0 0 Z " fill="#3D65CC" transform="translate(201,168)"/>
<path d="M0 0 C4.55555556 0.55555556 4.55555556 0.55555556 6 2 C6.76082508 8.79308104 6.77467574 14.58716935 2.59765625 20.1953125 C-4.4316112 28.13546301 -12.45267877 33.52596988 -23.26953125 34.48046875 C-30.15014793 34.82265703 -36.8538874 34.98837214 -42.48046875 30.4921875 C-42.98191406 29.99976563 -43.48335938 29.50734375 -44 29 C-44.53238281 28.50757813 -45.06476563 28.01515625 -45.61328125 27.5078125 C-47.0625 26 -47.0625 26 -49 23 C-48.81395349 18.81395349 -48.81395349 18.81395349 -47 17 C-44.625 16.6875 -44.625 16.6875 -42 17 C-40.02389614 19.04424538 -39 20.1176825 -39 23 C-32.19616022 26.02392879 -24.71941537 26.32868004 -17.73046875 23.83203125 C-9.87153063 20.1152752 -9.87153063 20.1152752 -4 14 C-3.29297274 10.88322303 -2.81338821 7.82041584 -2.45703125 4.64453125 C-2 2 -2 2 0 0 Z " fill="#3A65CD" transform="translate(123,168)"/>
<path d="M0 0 C5.01333141 3.00099943 8.98413058 6.90025012 11.23828125 12.33984375 C11.48828125 15.96484375 11.48828125 15.96484375 11.23828125 19.33984375 C9.23828125 21.33984375 9.23828125 21.33984375 6.86328125 21.52734375 C4.23828125 20.33984375 4.23828125 20.33984375 3.375 18.4375 C3.10300781 17.66277344 2.83101562 16.88804687 2.55078125 16.08984375 C0.54200091 11.11156203 -1.88777109 9.23880214 -6.77734375 7.1484375 C-15.16603156 4.87558622 -24.05708635 5.27740121 -31.76171875 9.33984375 C-35.80748435 12.59404652 -37.47856884 15.32389409 -38.76171875 20.33984375 C-41.13671875 20.96484375 -41.13671875 20.96484375 -43.76171875 21.33984375 C-45.76171875 19.33984375 -45.76171875 19.33984375 -46.26171875 15.71484375 C-46.10179873 11.30105128 -44.66962437 8.5679621 -41.8203125 5.23828125 C-30.86773566 -4.86219758 -13.43107674 -5.86956853 0 0 Z " fill="#3C64CB" transform="translate(180.76171875,246.66015625)"/>
<path d="M0 0 C0.66 0 1.32 0 2 0 C3.60228353 1.89794299 5.0550786 3.79722189 6.5 5.8125 C6.96124268 6.44961914 7.42248535 7.08673828 7.89770508 7.74316406 C12.53011172 14.21772762 17.00309666 20.80443947 21.44775391 27.40878296 C22.27434693 28.636403 23.10296293 29.86266333 23.93359375 31.08755493 C25.11280608 32.82961864 26.28231817 34.57779793 27.44921875 36.328125 C28.13330811 37.3480957 28.81739746 38.36806641 29.5222168 39.41894531 C31 42 31 42 31 45 C30.26910156 44.27296875 30.26910156 44.27296875 29.5234375 43.53125 C19.88668074 34.42013452 9.11663635 28.93366641 -3.40234375 24.98974609 C-10.33905755 22.76823742 -10.33905755 22.76823742 -12 20 C-11.92121617 15.93825604 -8.95808369 13.06634713 -6.5625 10 C-2.84986589 5.26533305 -2.84986589 5.26533305 0 0 Z " fill="#F8E794" transform="translate(258,388)"/>
<path d="M0 0 C0.99 0 1.98 0 3 0 C4.60546875 1.8984375 4.60546875 1.8984375 6.1875 4.375 C6.98220703 5.59316406 6.98220703 5.59316406 7.79296875 6.8359375 C9 9 9 9 9 11 C9.66 11 10.32 11 11 11 C13.53916705 15.6302458 13.43370114 20.02262247 12 25 C9.5 28 9.5 28 7 30 C6.67 30.33 6.34 30.66 6 31 C2.94602448 31.44169067 0.04969923 31.47716383 -3 31 C-6.23897547 28.43581108 -8.51750462 26.20309209 -9.4140625 22.109375 C-9.98986687 15.66889651 -8.09027183 11.65030307 -4.6875 6.375 C-4.28418457 5.7469043 -3.88086914 5.11880859 -3.46533203 4.47167969 C-2.26171875 2.7109375 -2.26171875 2.7109375 0 0 Z " fill="#E0EAFA" transform="translate(77,202)"/>
<path d="M0 0 C4.39869164 1.38477329 6.45020832 3.38571629 8.67114258 7.41259766 C9.03361084 8.25870605 9.3960791 9.10481445 9.76953125 9.9765625 C10.16720703 10.90210938 10.56488281 11.82765625 10.97460938 12.78125 C11.37486328 13.7403125 11.77511719 14.699375 12.1875 15.6875 C12.60708984 16.65429688 13.02667969 17.62109375 13.45898438 18.6171875 C15.71865218 23.94806773 15.71865218 23.94806773 16.375 26.0625 C16.045 26.7225 15.715 27.3825 15.375 28.0625 C14.570625 27.299375 13.76625 26.53625 12.9375 25.75 C4.99705638 19.26162824 -4.81442631 19.43734405 -14.625 19.0625 C-14.625 18.7325 -14.625 18.4025 -14.625 18.0625 C-11.16 17.5675 -11.16 17.5675 -7.625 17.0625 C-7.955 16.5675 -8.285 16.0725 -8.625 15.5625 C-10.03990741 12.02523149 -10.45204053 8.76588505 -9.625 5.0625 C-6.49597232 1.32293034 -4.91526448 0.08474594 0 0 Z " fill="#F4A6A9" transform="translate(171.625,224.9375)"/>
<path d="M0 0 C4.29 0 8.58 0 13 0 C13 2.64 13 5.28 13 8 C11.2365625 8.433125 11.2365625 8.433125 9.4375 8.875 C5.5981073 9.83313721 1.7986682 10.89205511 -2 12 C-1.34 8.04 -0.68 4.08 0 0 Z " fill="#446FC6" transform="translate(33,155)"/>
<path d="M0 0 C3.25548753 3.02295271 5.68977058 6.20462309 8 10 C8 10.66 8 11.32 8 12 C6.140625 11.77734375 6.140625 11.77734375 4 11 C2.734375 9.00390625 2.734375 9.00390625 1.75 6.5625 C1.41484375 5.75941406 1.0796875 4.95632813 0.734375 4.12890625 C0 2 0 2 0 0 Z " fill="#EDDF95" transform="translate(309,462)"/>
<path d="M0 0 C-0.28109113 1.64767247 -0.57518526 3.29313145 -0.875 4.9375 C-1.03742188 5.85402344 -1.19984375 6.77054687 -1.3671875 7.71484375 C-1.57601563 8.46894531 -1.78484375 9.22304688 -2 10 C-2.99 10.495 -2.99 10.495 -4 11 C-4 7.7 -4 4.4 -4 1 C-2 0 -2 0 0 0 Z " fill="#DAD19C" transform="translate(436,345)"/>
</svg>
